<?xml version="1.0" encoding="UTF-8" standalone="yes"?>
<svg xmlns="http://www.w3.org/2000/svg" xmlns:xlink="http://www.w3.org/1999/xlink" width="0.242424in" height="0.242424in" version="1.1" viewBox="496.000000 368.000000 32.000000 32.000000">
  <!--
	Exported with Concepts: Smarter Sketching
	Version: 669
	iOS Version: 12.2
	https://concepts.app/
	-->
  <title>Untitled 10</title>
  <desc>Drawing exported from Concepts: Smarter Sketching</desc>
  <g id="Pen" opacity="1.000">
    <path id="STROKE_93000F00-1D98-4500-95C1-0B4E1B835F00" opacity="1.000" fill="none" stroke="#bb3e45" stroke-width="0.500" stroke-opacity="1.000" stroke-linecap="round" stroke-linejoin="round" d="M 511.277 377.083 Q 511.151 376.980 510.871 376.785 Q 510.591 376.590 510.338 376.433 Q 510.085 376.275 509.883 376.169 Q 509.682 376.063 509.304 375.918 Q 508.927 375.772 508.589 375.696 Q 508.252 375.620 507.873 375.594 Q 507.494 375.569 507.042 375.617 Q 506.589 375.665 506.193 375.778 Q 505.797 375.892 505.574 375.986 Q 505.352 376.080 505.136 376.193 Q 504.920 376.305 504.513 376.581 Q 504.105 376.857 503.783 377.150 Q 503.460 377.444 503.238 377.701 Q 503.015 377.959 502.893 378.126 Q 502.770 378.293 502.657 378.466 Q 502.544 378.639 502.352 378.999 Q 502.160 379.359 501.987 379.815 Q 501.813 380.271 501.748 380.516 Q 501.684 380.761 501.639 381.016 Q 501.595 381.271 501.574 381.664 Q 501.553 382.057 501.614 382.592 Q 501.674 383.127 501.767 383.469 Q 501.859 383.811 502.009 384.163 Q 502.158 384.515 502.340 384.821 Q 502.522 385.126 502.755 385.430 Q 502.989 385.734 503.151 385.910 Q 503.313 386.085 503.432 386.197 Q 503.550 386.310 503.666 386.409 Q 503.781 386.509 503.953 386.646 Q 504.125 386.782 504.538 387.046 Q 504.951 387.310 505.193 387.435 Q 505.435 387.560 505.773 387.706 Q 506.112 387.852 506.521 387.987 Q 506.930 388.122 507.401 388.224 Q 507.872 388.326 508.294 388.374 Q 508.716 388.421 509.096 388.425 Q 509.476 388.429 509.680 388.417 Q 509.883 388.405 510.002 388.394 Q 510.120 388.383 510.401 388.350 Q 510.682 388.317 511.480 388.157 Q 512.279 387.997 512.738 387.868 Q 513.196 387.739 513.497 387.633 Q 513.797 387.528 514.159 387.375 Q 514.521 387.222 514.785 387.088 Q 515.049 386.954 515.374 386.753 Q 515.699 386.552 515.884 386.422 Q 516.069 386.292 516.281 386.129 Q 516.492 385.966 516.745 385.749 Q 516.997 385.532 517.335 385.204 Q 517.672 384.877 517.882 384.646 Q 518.092 384.414 518.198 384.284 Q 518.304 384.153 518.541 383.797 Q 518.777 383.440 518.878 383.255 Q 518.978 383.069 519.011 383.000 Q 519.043 382.930 519.229 382.451 Q 519.414 381.971 519.476 381.766 Q 519.537 381.562 519.575 381.406 Q 519.614 381.251 519.635 381.147 Q 519.656 381.042 519.704 380.750 Q 519.752 380.457 519.779 380.133 Q 519.806 379.809 519.808 379.381 Q 519.809 378.952 519.780 378.618 Q 519.751 378.284 519.728 378.129 Q 519.705 377.975 519.668 377.793 Q 519.631 377.611 519.588 377.455 Q 519.545 377.300 519.471 377.077 Q 519.398 376.854 519.317 376.665 Q 519.236 376.476 519.137 376.282 Q 519.037 376.088 518.967 375.974 Q 518.896 375.861 518.772 375.692 Q 518.648 375.523 518.615 375.485 Q 518.583 375.446 518.428 375.286 Q 518.274 375.126 518.097 374.977 Q 517.920 374.828 517.859 374.784 Q 517.797 374.740 517.705 374.681 Q 517.614 374.623 517.549 374.586 Q 517.484 374.550 517.424 374.518 Q 517.364 374.485 517.120 374.380 Q 516.876 374.275 516.596 374.196 Q 516.316 374.118 516.148 374.087 Q 515.980 374.056 515.614 374.034 Q 515.248 374.011 514.968 374.030 Q 514.688 374.049 514.413 374.103 Q 514.137 374.156 513.883 374.233 Q 513.629 374.310 513.440 374.386 Q 513.252 374.462 513.014 374.584 Q 512.775 374.706 512.618 374.806 Q 512.460 374.906 512.241 375.080 Q 512.021 375.253 511.996 375.277 Q 511.971 375.301 511.894 375.373 Q 511.817 375.445 511.769 375.495 Q 511.721 375.545 511.679 375.594 Q 511.638 375.643 511.535 375.775 Q 511.432 375.907 511.373 376.000 Q 511.313 376.092 511.269 376.180 Q 511.224 376.268 511.192 376.334 L 511.161 376.383 L 511.062 376.648 Q 511.057 376.674 510.988 376.925 "></path>
    <path id="STROKE_68FB1D87-C6E4-4A45-AC55-EB188570AEE5" opacity="1.000" fill="none" stroke="#bb3e45" stroke-width="6.000" stroke-opacity="1.000" stroke-linecap="round" stroke-linejoin="round" d="M 510.602 379.349 Q 510.184 379.315 510.013 379.305 Q 509.843 379.295 509.687 379.284 Q 509.531 379.272 509.513 379.272 Q 509.495 379.271 509.394 379.270 Q 509.294 379.269 509.183 379.266 Q 509.073 379.263 508.970 379.250 Q 508.867 379.236 508.595 379.204 Q 508.323 379.172 508.269 379.165 Q 508.215 379.157 508.086 379.142 L 508.077 379.138 Q 508.045 379.125 508.037 379.123 Q 508.029 379.121 507.999 379.118 Q 507.968 379.114 507.963 379.107 Q 507.957 379.101 507.952 379.094 Q 507.947 379.086 507.944 379.080 Q 507.940 379.074 507.918 379.045 Q 507.908 379.037 507.895 379.029 Q 507.883 379.022 507.862 379.014 Q 507.841 379.006 507.803 378.995 Q 507.765 378.985 507.740 378.978 Q 507.716 378.972 507.691 378.963 Q 507.667 378.954 507.640 378.946 Q 507.613 378.939 507.576 378.933 Q 507.540 378.927 507.456 378.920 Q 507.372 378.913 507.309 378.913 Q 507.246 378.913 507.233 378.912 Q 507.221 378.912 507.196 378.904 Q 507.172 378.897 507.137 378.898 Q 507.102 378.899 507.072 378.907 Q 507.041 378.914 506.999 378.923 Q 506.954 378.925 506.871 378.943 Q 506.789 378.962 506.640 379.011 Q 506.491 379.061 506.318 379.147 Q 506.146 379.233 506.011 379.319 Q 505.875 379.404 505.803 379.455 Q 505.730 379.506 505.517 379.687 Q 505.305 379.867 505.036 380.187 Q 504.768 380.508 504.652 380.708 Q 504.537 380.908 504.422 381.246 Q 504.306 381.583 504.285 381.779 Q 504.264 381.976 504.299 382.296 Q 504.335 382.616 504.390 382.802 Q 504.446 382.989 504.508 383.133 Q 504.569 383.277 504.617 383.371 Q 504.666 383.465 504.729 383.568 Q 504.793 383.671 504.909 383.825 Q 505.024 383.980 505.077 384.040 Q 505.130 384.100 505.222 384.198 Q 505.313 384.296 505.528 384.476 Q 505.743 384.656 505.997 384.817 Q 506.251 384.978 506.428 385.067 Q 506.604 385.156 506.830 385.246 Q 507.056 385.337 507.239 385.400 Q 507.422 385.463 507.865 385.577 Q 508.308 385.691 508.547 385.739 Q 508.785 385.787 509.335 385.857 Q 509.885 385.927 510.194 385.942 Q 510.503 385.957 510.629 385.957 Q 510.755 385.957 510.898 385.953 Q 511.042 385.949 511.317 385.925 Q 511.592 385.901 511.918 385.844 Q 512.243 385.787 512.529 385.718 Q 512.814 385.649 512.972 385.601 Q 513.130 385.552 513.178 385.537 Q 513.227 385.522 513.531 385.403 Q 513.835 385.284 513.988 385.216 Q 514.140 385.148 514.399 385.016 Q 514.658 384.885 515.027 384.663 Q 515.396 384.441 515.537 384.345 Q 515.678 384.249 515.879 384.088 Q 516.081 383.927 516.198 383.822 Q 516.315 383.716 516.481 383.547 Q 516.647 383.377 516.819 383.172 Q 516.990 382.968 517.099 382.818 Q 517.209 382.667 517.240 382.623 Q 517.270 382.578 517.403 382.356 Q 517.536 382.133 517.615 381.972 Q 517.694 381.812 517.768 381.639 Q 517.841 381.467 517.873 381.384 Q 517.905 381.302 517.909 381.292 Q 517.913 381.283 517.948 381.171 Q 517.983 381.059 518.045 380.771 Q 518.107 380.483 518.126 380.336 Q 518.145 380.188 518.154 380.077 Q 518.163 379.967 518.164 379.794 Q 518.165 379.621 518.144 379.390 Q 518.123 379.158 518.096 379.011 Q 518.068 378.863 518.029 378.730 Q 517.990 378.597 517.905 378.405 Q 517.820 378.212 517.715 378.049 Q 517.609 377.886 517.593 377.864 Q 517.576 377.842 517.505 377.763 Q 517.434 377.684 517.382 377.636 Q 517.331 377.588 517.231 377.507 Q 517.131 377.426 517.014 377.354 Q 516.896 377.283 516.628 377.183 Q 516.361 377.084 516.199 377.058 Q 516.036 377.032 516.026 377.030 Q 516.016 377.029 515.877 377.026 Q 515.737 377.023 515.659 377.028 Q 515.582 377.034 515.519 377.043 Q 515.455 377.052 515.347 377.074 Q 515.239 377.095 515.144 377.122 Q 515.050 377.149 514.881 377.218 Q 514.713 377.287 514.621 377.332 Q 514.530 377.376 514.508 377.387 Q 514.486 377.397 514.421 377.435 Q 514.357 377.472 514.220 377.567 Q 514.084 377.662 513.796 377.894 Q 513.509 378.126 513.379 378.247 Q 513.249 378.367 513.185 378.429 Q 513.121 378.491 512.986 378.609 Q 512.851 378.728 512.538 378.971 Q 512.226 379.214 512.113 379.287 Q 511.999 379.361 511.772 379.481 Q 511.544 379.602 511.448 379.641 Q 511.352 379.680 511.221 379.721 Q 511.090 379.763 511.071 379.768 Q 511.051 379.773 510.841 379.807 Q 510.630 379.842 510.468 379.844 Q 510.306 379.847 510.188 379.838 Q 510.071 379.829 509.940 379.810 Q 509.809 379.791 509.601 379.735 Q 509.392 379.678 509.280 379.636 Q 509.169 379.594 509.033 379.527 Q 508.897 379.461 508.788 379.400 Q 508.679 379.338 508.594 379.278 Q 508.509 379.218 508.465 379.185 Q 508.421 379.152 508.368 379.105 Q 508.315 379.059 508.141 378.897 L 508.027 378.818 L 507.899 378.721 "></path>
    <path id="STROKE_DAEA1DE3-E0C8-462F-8623-27CE8EFE581A" opacity="1.000" fill="none" stroke="#bb3e45" stroke-width="6.000" stroke-opacity="1.000" stroke-linecap="round" stroke-linejoin="round" d="M 506.795 382.399 Q 506.891 382.471 506.942 382.505 Q 506.994 382.539 507.098 382.603 Q 507.202 382.667 507.267 382.705 Q 507.332 382.744 507.856 383.008 Q 508.380 383.272 508.515 383.322 Q 508.649 383.372 509.112 383.487 Q 509.574 383.602 510.110 383.652 Q 510.646 383.702 510.935 383.699 Q 511.224 383.696 511.614 383.654 Q 512.004 383.611 512.505 383.481 Q 513.006 383.350 513.265 383.241 Q 513.524 383.132 513.691 383.036 Q 513.858 382.940 514.029 382.817 Q 514.200 382.695 514.405 382.504 Q 514.611 382.314 514.751 382.146 Q 514.890 381.978 515.059 381.693 Q 515.228 381.409 515.544 380.792 "></path>
    <path id="STROKE_62557247-E29C-4F6B-B346-D3B6F77CEC5C" opacity="0.280" fill="none" stroke="#a2363c" stroke-width="1.250" stroke-opacity="1.000" stroke-linecap="round" stroke-linejoin="round" d="M 511.756 377.259 Q 511.783 377.207 511.803 377.182 Q 511.824 377.158 511.880 377.090 Q 511.936 377.023 511.993 376.962 Q 512.050 376.901 512.064 376.886 Q 512.078 376.871 512.085 376.867 Q 512.091 376.863 512.230 376.671 "></path>
    <path id="STROKE_77984BB4-2E6F-4EEB-9ACA-FDFBD8810033" opacity="0.280" fill="none" stroke="#a2363c" stroke-width="1.250" stroke-opacity="1.000" stroke-linecap="round" stroke-linejoin="round" d="M 511.348 377.363 Q 511.361 377.346 511.410 377.271 Q 511.458 377.195 511.509 377.124 Q 511.560 377.052 511.603 376.995 Q 511.645 376.937 511.797 376.745 Q 511.950 376.553 512.012 376.478 Q 512.074 376.404 512.190 376.278 Q 512.306 376.153 512.380 376.078 Q 512.455 376.003 512.737 375.771 Q 513.019 375.539 513.124 375.467 Q 513.229 375.395 513.386 375.305 Q 513.543 375.214 513.614 375.179 Q 513.684 375.144 513.783 375.101 Q 513.882 375.058 514.022 375.004 Q 514.163 374.949 514.276 374.917 Q 514.390 374.884 514.651 374.839 Q 514.913 374.794 515.027 374.784 Q 515.142 374.773 515.216 374.771 Q 515.290 374.769 515.419 374.769 Q 515.548 374.770 515.568 374.770 Q 515.589 374.771 515.745 374.786 Q 515.902 374.801 515.999 374.817 Q 516.097 374.834 516.305 374.888 Q 516.514 374.943 516.620 374.983 Q 516.726 375.023 516.822 375.061 Q 516.918 375.098 517.043 375.152 Q 517.169 375.207 517.263 375.256 Q 517.358 375.305 517.369 375.310 Q 517.380 375.315 517.524 375.402 Q 517.667 375.488 517.761 375.553 Q 517.856 375.617 517.962 375.691 Q 518.069 375.764 518.152 375.826 Q 518.235 375.889 518.314 375.958 Q 518.393 376.026 518.446 376.076 Q 518.499 376.125 518.549 376.173 Q 518.599 376.221 518.649 376.266 Q 518.699 376.312 518.775 376.391 Q 518.851 376.471 518.892 376.519 Q 518.934 376.567 519.057 376.715 Q 519.181 376.863 519.207 376.899 Q 519.232 376.934 519.347 377.098 Q 519.461 377.262 519.518 377.353 Q 519.575 377.444 519.676 377.653 Q 519.777 377.862 519.849 378.042 Q 519.920 378.221 519.931 378.255 Q 519.943 378.289 520.019 378.593 Q 520.095 378.896 520.136 379.228 Q 520.177 379.560 520.187 379.793 Q 520.197 380.025 520.184 380.310 Q 520.171 380.594 520.132 380.883 Q 520.093 381.172 520.063 381.309 Q 520.034 381.446 519.995 381.594 Q 519.955 381.741 519.913 381.886 Q 519.870 382.031 519.803 382.207 Q 519.737 382.384 519.712 382.449 Q 519.686 382.515 519.585 382.730 Q 519.483 382.946 519.421 383.058 Q 519.359 383.170 519.233 383.375 Q 519.107 383.581 519.003 383.726 Q 518.900 383.871 518.740 384.062 Q 518.580 384.252 518.495 384.342 Q 518.410 384.431 518.253 384.583 Q 518.096 384.735 517.970 384.848 Q 517.845 384.961 517.574 385.185 Q 517.302 385.408 517.114 385.552 Q 516.925 385.695 516.739 385.836 Q 516.552 385.977 516.323 386.140 Q 516.095 386.303 516.022 386.353 Q 515.949 386.403 515.884 386.448 Q 515.819 386.494 515.643 386.610 Q 515.468 386.727 515.302 386.837 Q 515.137 386.948 515.060 386.995 Q 514.984 387.042 514.946 387.066 Q 514.907 387.091 514.670 387.227 Q 514.434 387.362 514.294 387.440 Q 514.155 387.518 514.069 387.565 Q 513.983 387.612 513.909 387.648 Q 513.835 387.683 513.621 387.777 Q 513.407 387.871 513.200 387.950 Q 512.992 388.028 512.785 388.087 Q 512.579 388.147 512.561 388.153 Q 512.544 388.158 512.264 388.210 Q 511.983 388.261 511.579 388.292 Q 511.174 388.323 511.105 388.323 Q 511.037 388.323 510.992 388.324 Q 510.947 388.325 510.618 388.310 Q 510.289 388.296 510.023 388.267 Q 509.758 388.238 509.611 388.215 Q 509.465 388.192 509.365 388.171 Q 509.265 388.151 509.106 388.122 Q 508.947 388.093 508.835 388.073 Q 508.724 388.053 508.653 388.038 Q 508.582 388.022 508.413 387.985 Q 508.244 387.948 508.046 387.901 Q 507.848 387.854 507.752 387.829 Q 507.657 387.804 507.225 387.666 Q 506.792 387.529 506.585 387.451 Q 506.379 387.373 506.268 387.326 Q 506.157 387.280 506.016 387.215 Q 505.875 387.149 505.713 387.069 Q 505.552 386.988 505.526 386.974 Q 505.499 386.959 505.321 386.855 Q 505.143 386.751 504.878 386.569 Q 504.612 386.388 504.469 386.271 Q 504.325 386.154 504.215 386.059 Q 504.105 385.964 504.030 385.887 Q 503.955 385.811 503.909 385.760 Q 503.863 385.709 503.604 385.374 Q 503.345 385.040 503.267 384.918 Q 503.190 384.796 502.994 384.360 Q 502.799 383.924 502.752 383.795 Q 502.704 383.666 502.650 383.479 Q 502.596 383.293 502.547 383.080 Q 502.497 382.867 502.463 382.585 Q 502.428 382.303 502.422 382.149 Q 502.415 381.994 502.416 381.838 Q 502.417 381.681 502.435 381.468 Q 502.454 381.254 502.467 381.155 Q 502.481 381.057 502.512 380.903 Q 502.544 380.750 502.564 380.666 Q 502.583 380.582 502.613 380.447 Q 502.626 380.392 502.694 380.212 Q 502.762 380.032 502.797 379.949 Q 502.832 379.865 502.939 379.648 Q 503.046 379.431 503.146 379.260 Q 503.246 379.089 503.503 378.723 Q 503.759 378.358 503.809 378.297 Q 503.858 378.237 504.190 377.900 Q 504.522 377.563 504.619 377.479 Q 504.717 377.395 504.791 377.339 Q 504.865 377.282 505.035 377.167 Q 505.205 377.053 505.287 377.003 Q 505.368 376.954 505.452 376.907 Q 505.535 376.860 505.586 376.832 Q 505.637 376.805 505.934 376.691 Q 506.231 376.578 506.258 376.569 Q 506.285 376.560 506.433 376.527 Q 506.581 376.493 506.698 376.473 Q 506.815 376.453 506.880 376.444 Q 506.945 376.435 507.204 376.423 Q 507.463 376.410 507.617 376.416 Q 507.772 376.421 507.865 376.430 Q 507.957 376.440 508.020 376.451 Q 508.083 376.462 508.332 376.508 Q 508.581 376.555 508.733 376.599 Q 508.885 376.643 508.990 376.676 Q 509.096 376.709 509.139 376.724 Q 509.183 376.739 509.296 376.784 Q 509.409 376.828 509.496 376.862 Q 509.582 376.895 509.696 376.939 Q 509.811 376.983 510.052 377.089 Q 510.293 377.195 510.386 377.239 Q 510.478 377.283 510.520 377.302 Q 510.562 377.322 510.589 377.334 Q 510.616 377.347 510.976 377.502 "></path>
    <path id="STROKE_74D62353-6EB6-4289-B2DE-8DCA0C7CFA73" opacity="0.280" fill="none" stroke="#a2363c" stroke-width="1.250" stroke-opacity="1.000" stroke-linecap="round" stroke-linejoin="round" d="M 508.517 376.452 Q 508.427 376.443 508.364 376.432 Q 508.301 376.422 508.147 376.412 Q 507.993 376.402 507.922 376.400 Q 507.852 376.397 507.816 376.394 Q 507.781 376.391 507.574 376.393 Q 507.367 376.394 507.261 376.401 Q 507.155 376.409 507.061 376.414 Q 506.966 376.419 506.876 376.432 Q 506.786 376.444 506.636 376.478 Q 506.485 376.511 506.260 376.575 Q 506.034 376.640 505.848 376.714 Q 505.661 376.788 505.524 376.855 Q 505.387 376.922 505.282 376.977 Q 505.177 377.032 504.927 377.191 Q 504.676 377.351 504.499 377.491 Q 504.323 377.631 504.213 377.729 Q 504.104 377.827 503.896 378.031 Q 503.688 378.236 503.590 378.344 Q 503.492 378.452 503.380 378.591 Q 503.267 378.730 503.095 378.985 Q 502.923 379.240 502.885 379.310 Q 502.847 379.380 502.732 379.625 Q 502.616 379.870 502.556 380.038 Q 502.496 380.207 502.461 380.323 Q 502.425 380.440 502.393 380.578 Q 502.362 380.715 502.339 380.861 Q 502.315 381.008 502.303 381.135 Q 502.290 381.263 502.280 381.453 Q 502.270 381.643 502.270 381.865 Q 502.269 382.088 502.281 382.241 Q 502.292 382.395 502.301 382.442 Q 502.309 382.489 502.345 382.689 Q 502.382 382.888 502.421 383.055 Q 502.461 383.221 502.498 383.356 Q 502.535 383.491 502.623 383.786 Q 502.711 384.081 502.772 384.256 Q 502.833 384.431 502.912 384.629 Q 502.991 384.827 503.033 384.925 Q 503.074 385.024 503.246 385.420 "></path>
    <path id="STROKE_287CB5DE-360F-45F7-B665-330AFAF9C98E" opacity="0.280" fill="none" stroke="#a2363c" stroke-width="1.250" stroke-opacity="1.000" stroke-linecap="round" stroke-linejoin="round" d="M 511.124 377.711 Q 511.017 377.678 510.693 377.598 Q 510.370 377.519 510.051 377.459 Q 509.731 377.399 509.454 377.366 Q 509.176 377.333 508.850 377.313 Q 508.523 377.293 508.218 377.305 Q 507.913 377.317 507.662 377.354 Q 507.411 377.391 507.040 377.500 Q 506.668 377.610 506.482 377.689 Q 506.296 377.769 506.117 377.864 Q 505.938 377.960 505.705 378.112 Q 505.472 378.263 505.251 378.448 Q 505.031 378.633 504.820 378.855 Q 504.610 379.077 504.488 379.235 Q 504.367 379.394 504.275 379.533 Q 504.184 379.673 504.117 379.790 Q 504.050 379.907 504.005 380.000 Q 503.960 380.093 503.900 380.243 Q 503.839 380.394 503.794 380.527 Q 503.750 380.661 503.703 380.857 Q 503.656 381.053 503.617 381.306 Q 503.578 381.560 503.569 381.829 Q 503.561 382.099 503.576 382.309 Q 503.592 382.520 503.615 382.663 Q 503.639 382.806 503.656 382.886 Q 503.672 382.967 503.731 383.197 Q 503.790 383.427 503.817 383.510 Q 503.845 383.594 503.878 383.673 Q 503.912 383.753 504.053 384.023 Q 504.194 384.294 504.309 384.463 Q 504.425 384.632 504.650 384.884 Q 504.875 385.135 505.071 385.304 Q 505.267 385.473 505.547 385.669 Q 505.828 385.865 505.982 385.956 Q 506.136 386.048 506.242 386.108 Q 506.348 386.168 506.538 386.272 Q 506.727 386.376 507.013 386.515 Q 507.298 386.654 507.542 386.766 Q 507.786 386.879 507.929 386.942 Q 508.072 387.005 508.279 387.085 Q 508.485 387.165 508.716 387.257 Q 508.948 387.349 509.032 387.384 Q 509.115 387.419 509.209 387.452 Q 509.303 387.484 509.390 387.507 Q 509.477 387.529 509.534 387.541 Q 509.592 387.553 509.628 387.553 Q 509.663 387.553 509.655 387.552 Q 509.646 387.551 509.628 387.542 Q 509.611 387.533 509.582 387.518 Q 509.554 387.503 509.414 387.418 Q 509.274 387.334 509.132 387.254 Q 508.990 387.174 508.770 387.065 Q 508.550 386.955 508.266 386.810 Q 507.981 386.664 507.556 386.452 Q 507.131 386.241 506.881 386.112 Q 506.631 385.984 506.310 385.802 Q 505.988 385.620 505.709 385.436 Q 505.431 385.253 505.280 385.141 Q 505.130 385.028 504.884 384.800 Q 504.637 384.573 504.448 384.334 Q 504.258 384.095 504.167 383.945 Q 504.076 383.795 503.998 383.623 Q 503.920 383.452 503.814 383.012 Q 503.707 382.572 503.695 382.355 Q 503.682 382.137 503.706 381.865 Q 503.729 381.592 503.783 381.304 Q 503.836 381.015 503.895 380.806 Q 503.955 380.597 504.098 380.263 Q 504.242 379.930 504.291 379.837 Q 504.340 379.744 504.536 379.454 Q 504.732 379.165 504.859 379.015 Q 504.986 378.865 505.131 378.724 Q 505.276 378.582 505.541 378.377 Q 505.806 378.173 505.993 378.062 Q 506.181 377.951 506.301 377.890 Q 506.422 377.829 506.640 377.744 Q 506.857 377.658 506.978 377.622 Q 507.098 377.586 507.198 377.563 Q 507.298 377.540 507.585 377.497 Q 507.873 377.454 507.905 377.451 Q 507.938 377.448 508.157 377.440 Q 508.376 377.433 508.485 377.435 Q 508.594 377.437 508.680 377.444 Q 508.765 377.452 508.887 377.467 Q 509.009 377.482 509.112 377.502 Q 509.215 377.521 509.244 377.527 Q 509.272 377.533 509.385 377.573 Q 509.498 377.614 509.571 377.657 Q 509.643 377.699 509.714 377.778 Q 509.715 377.787 509.681 377.835 Q 509.647 377.884 509.595 377.920 Q 509.544 377.957 509.319 378.082 Q 509.094 378.206 508.772 378.375 Q 508.450 378.543 508.213 378.688 Q 507.977 378.832 507.706 379.039 Q 507.436 379.247 507.172 379.517 Q 506.909 379.787 506.747 380.009 Q 506.585 380.231 506.468 380.444 Q 506.352 380.656 506.250 380.945 Q 506.148 381.233 506.108 381.402 Q 506.069 381.570 506.044 381.968 Q 506.020 382.367 506.044 382.616 Q 506.067 382.866 506.124 383.110 Q 506.181 383.354 506.246 383.541 Q 506.310 383.727 506.464 384.044 Q 506.617 384.361 506.756 384.589 Q 506.895 384.816 507.024 384.996 Q 507.153 385.175 507.425 385.478 Q 507.697 385.780 507.923 385.995 Q 508.150 386.209 508.288 386.324 Q 508.426 386.439 508.586 386.570 Q 508.746 386.700 508.869 386.793 Q 508.991 386.886 509.265 387.058 Q 509.539 387.229 509.658 387.281 Q 509.777 387.333 509.760 387.324 Q 509.742 387.314 509.722 387.298 Q 509.703 387.282 509.688 387.270 Q 509.673 387.257 509.578 387.176 Q 509.483 387.095 509.231 386.893 Q 508.979 386.691 508.851 386.585 Q 508.723 386.478 508.471 386.264 Q 508.219 386.049 507.933 385.800 Q 507.647 385.551 507.489 385.409 Q 507.331 385.268 506.994 384.950 Q 506.657 384.632 506.370 384.302 Q 506.083 383.972 505.820 383.560 Q 505.557 383.147 505.501 383.019 Q 505.445 382.891 505.316 382.329 Q 505.187 381.768 505.185 381.573 Q 505.183 381.378 505.190 381.281 Q 505.197 381.183 505.214 381.067 Q 505.231 380.950 505.309 380.654 Q 505.388 380.358 505.535 380.048 Q 505.683 379.739 505.815 379.548 Q 505.947 379.357 506.048 379.237 Q 506.150 379.117 506.256 379.011 Q 506.363 378.904 506.523 378.771 Q 506.683 378.637 506.982 378.445 Q 507.280 378.253 507.548 378.124 Q 507.816 377.994 508.155 377.886 Q 508.494 377.779 508.636 377.749 Q 508.778 377.718 509.063 377.681 Q 509.349 377.644 509.547 377.638 Q 509.744 377.633 509.845 377.641 Q 509.946 377.649 509.980 377.656 Q 510.014 377.662 510.024 377.663 Q 510.035 377.663 510.173 377.752 Q 510.167 377.763 509.959 377.821 Q 509.752 377.879 509.330 377.965 Q 508.909 378.051 508.508 378.152 Q 508.108 378.253 507.595 378.454 Q 507.081 378.655 506.706 378.880 Q 506.331 379.104 506.146 379.252 Q 505.962 379.399 505.744 379.631 Q 505.525 379.863 505.336 380.155 Q 505.148 380.447 505.068 380.626 Q 504.989 380.806 504.925 381.038 Q 504.860 381.271 504.836 381.597 Q 504.813 381.923 504.846 382.209 Q 504.879 382.495 504.930 382.701 Q 504.981 382.908 505.092 383.203 Q 505.203 383.499 505.488 383.983 Q 505.774 384.467 505.947 384.693 Q 506.120 384.918 506.203 385.019 Q 506.286 385.120 506.416 385.270 Q 506.546 385.419 506.691 385.570 Q 506.836 385.721 506.903 385.790 Q 506.969 385.859 507.168 386.049 Q 507.368 386.239 507.516 386.383 Q 507.665 386.527 507.709 386.570 Q 507.753 386.612 507.774 386.656 Q 507.774 386.655 507.388 386.405 Q 507.002 386.155 506.795 385.988 Q 506.587 385.822 506.288 385.553 Q 505.989 385.284 505.687 384.964 Q 505.385 384.643 505.188 384.384 Q 504.990 384.124 504.813 383.818 Q 504.635 383.511 504.537 383.256 Q 504.439 383.000 504.400 382.850 Q 504.361 382.699 504.333 382.435 Q 504.305 382.171 504.307 382.025 Q 504.309 381.880 504.345 381.631 Q 504.380 381.381 504.511 380.984 Q 504.641 380.587 504.773 380.322 Q 504.905 380.058 505.227 379.573 Q 505.549 379.087 505.676 378.931 Q 505.803 378.774 505.912 378.651 Q 506.020 378.529 506.148 378.394 Q 506.276 378.259 506.571 377.992 Q 506.866 377.724 507.108 377.541 Q 507.350 377.357 507.556 377.220 Q 507.763 377.083 508.412 376.696 "></path>
    <path id="STROKE_DBBF5256-1A89-416F-8F54-7450EC88A3AA" opacity="0.280" fill="none" stroke="#a2363c" stroke-width="1.250" stroke-opacity="1.000" stroke-linecap="round" stroke-linejoin="round" d="M 511.716 388.118 Q 511.599 388.039 511.524 387.982 Q 511.449 387.925 511.281 387.791 Q 511.113 387.656 510.999 387.565 Q 510.885 387.473 510.778 387.378 Q 510.671 387.284 510.607 387.224 Q 510.543 387.163 510.384 387.003 Q 510.226 386.842 510.018 386.624 Q 509.811 386.405 509.663 386.230 Q 509.516 386.056 509.335 385.804 Q 509.154 385.552 508.902 385.147 Q 508.650 384.741 508.466 384.353 Q 508.284 383.964 508.162 383.640 Q 508.040 383.317 507.983 383.136 Q 507.926 382.956 507.858 382.621 Q 507.789 382.286 507.763 382.050 Q 507.738 381.815 507.735 381.613 Q 507.733 381.411 507.797 381.012 Q 507.862 380.613 507.931 380.400 Q 507.999 380.187 508.147 379.905 Q 508.295 379.623 508.481 379.386 Q 508.667 379.149 508.825 378.997 Q 508.983 378.844 509.122 378.735 Q 509.260 378.625 509.384 378.543 Q 509.508 378.460 509.615 378.399 Q 509.722 378.338 509.826 378.281 Q 509.931 378.225 510.002 378.194 Q 510.072 378.162 510.121 378.143 Q 510.170 378.125 510.197 378.118 Q 510.225 378.111 510.228 378.119 Q 510.223 378.118 510.079 378.145 Q 509.935 378.172 509.414 378.323 Q 508.893 378.475 508.552 378.614 Q 508.210 378.753 508.045 378.841 Q 507.880 378.929 507.630 379.111 Q 507.380 379.293 507.217 379.465 Q 507.055 379.638 506.951 379.797 Q 506.846 379.957 506.732 380.256 Q 506.618 380.555 506.582 380.823 Q 506.546 381.090 506.550 381.258 Q 506.554 381.426 506.582 381.621 Q 506.611 381.817 506.685 382.103 Q 506.759 382.390 506.822 382.565 Q 506.884 382.740 506.920 382.830 Q 506.956 382.920 507.034 383.103 Q 507.112 383.286 507.184 383.448 Q 507.255 383.611 507.344 383.805 Q 507.432 384.000 507.486 384.121 Q 507.539 384.242 507.641 384.455 Q 507.743 384.667 507.783 384.763 Q 507.778 384.765 507.749 384.736 Q 507.720 384.707 507.695 384.668 Q 507.670 384.628 507.653 384.599 Q 507.635 384.569 507.549 384.341 Q 507.462 384.112 507.408 383.923 Q 507.354 383.734 507.329 383.639 Q 507.303 383.544 507.222 382.978 Q 507.141 382.413 507.148 381.888 Q 507.155 381.364 507.196 381.059 Q 507.238 380.755 507.352 380.370 Q 507.466 379.985 507.647 379.623 Q 507.829 379.260 508.002 379.018 Q 508.175 378.776 508.366 378.571 Q 508.558 378.365 508.699 378.235 Q 508.840 378.105 509.279 377.741 "></path>
    <path id="STROKE_99FD3AB4-5EF5-4006-BB80-8AA5568B93C3" opacity="0.280" fill="none" stroke="#a2363c" stroke-width="1.250" stroke-opacity="1.000" stroke-linecap="round" stroke-linejoin="round" d="M 511.109 377.751 Q 510.933 378.022 510.759 378.376 Q 510.585 378.731 510.401 379.172 Q 510.217 379.613 510.119 379.905 Q 510.020 380.197 509.922 380.565 Q 509.824 380.933 509.737 381.384 Q 509.651 381.836 509.616 382.183 Q 509.582 382.531 509.582 382.902 Q 509.582 383.272 509.691 383.966 Q 509.799 384.660 509.948 385.146 Q 510.097 385.631 510.189 385.869 Q 510.282 386.107 510.452 386.450 Q 510.622 386.794 510.778 387.071 Q 510.934 387.348 511.013 387.480 Q 511.092 387.612 511.163 387.723 Q 511.233 387.835 511.413 388.094 L 511.567 388.297 "></path>
    <path id="STROKE_CB1E3403-830D-4B95-A6A2-FF9B8E1C96F9" opacity="0.280" fill="none" stroke="#a2363c" stroke-width="1.250" stroke-opacity="1.000" stroke-linecap="round" stroke-linejoin="round" d="M 510.537 377.985 L 510.425 378.103 Q 510.359 378.172 510.336 378.199 Q 510.314 378.225 510.142 378.432 Q 509.970 378.639 509.790 378.899 Q 509.609 379.159 509.461 379.442 Q 509.312 379.724 509.247 379.876 Q 509.183 380.029 509.068 380.387 Q 508.953 380.745 508.876 381.184 Q 508.799 381.623 508.787 381.981 Q 508.774 382.338 508.806 382.679 Q 508.838 383.019 508.912 383.374 Q 508.986 383.728 509.102 384.112 Q 509.218 384.496 509.344 384.824 Q 509.469 385.153 509.820 386.040 Q 510.171 386.928 510.249 387.118 "></path>
    <path id="STROKE_DDB543F2-D40A-4EF4-ABE5-0D2407E97059" opacity="0.280" fill="none" stroke="#a2363c" stroke-width="1.250" stroke-opacity="1.000" stroke-linecap="round" stroke-linejoin="round" d="M 511.508 377.726 Q 511.503 377.745 511.463 377.839 Q 511.424 377.933 511.414 377.961 Q 511.405 377.990 511.376 378.084 Q 511.348 378.179 511.318 378.292 Q 511.287 378.405 511.221 378.703 Q 511.156 379.000 511.113 379.282 Q 511.071 379.564 511.040 379.937 Q 511.009 380.310 511.007 380.818 Q 511.005 381.327 511.027 381.699 Q 511.049 382.070 511.090 382.450 Q 511.130 382.829 511.182 383.243 Q 511.234 383.657 511.279 383.994 Q 511.323 384.330 511.374 384.685 Q 511.425 385.040 511.580 385.735 Q 511.735 386.430 511.831 386.736 Q 511.927 387.041 512.036 387.300 Q 512.146 387.560 512.217 387.696 Q 512.288 387.832 512.397 388.008 Q 512.506 388.184 512.529 388.218 Q 512.551 388.253 512.563 388.267 Q 512.575 388.282 512.717 388.466 "></path>
    <path id="STROKE_3A240153-B9AE-43A7-9AB6-6B3E68261646" opacity="0.280" fill="none" stroke="#a2363c" stroke-width="1.250" stroke-opacity="1.000" stroke-linecap="round" stroke-linejoin="round" d="M 510.662 379.105 L 510.638 379.236 Q 510.631 379.306 510.572 380.161 Q 510.513 381.016 510.509 381.518 Q 510.505 382.020 510.518 382.326 Q 510.531 382.632 510.596 383.300 Q 510.662 383.968 510.717 384.318 Q 510.772 384.668 510.862 385.065 Q 510.953 385.462 511.056 385.771 Q 511.158 386.079 511.257 386.298 Q 511.355 386.516 511.444 386.670 Q 511.533 386.823 511.591 386.916 Q 511.649 387.009 511.777 387.173 L 511.926 387.381 "></path>
    <path id="STROKE_4AA949B3-F347-4990-9F42-3507F711F348" opacity="0.280" fill="none" stroke="#a2363c" stroke-width="1.250" stroke-opacity="1.000" stroke-linecap="round" stroke-linejoin="round" d="M 512.155 377.975 Q 512.147 377.997 512.113 378.048 Q 512.079 378.100 512.035 378.174 Q 511.991 378.249 511.955 378.320 Q 511.918 378.391 511.900 378.437 Q 511.881 378.483 511.859 378.578 Q 511.836 378.672 511.826 378.725 Q 511.817 378.779 511.810 378.841 Q 511.803 378.902 511.818 379.328 Q 511.834 379.753 511.903 380.197 Q 511.972 380.641 512.020 380.899 Q 512.068 381.156 512.187 381.839 Q 512.305 382.522 512.406 383.178 Q 512.507 383.834 512.595 384.303 Q 512.683 384.773 512.739 385.015 Q 512.796 385.258 512.907 385.637 Q 513.017 386.016 513.112 386.281 Q 513.206 386.546 513.309 386.792 Q 513.412 387.038 513.478 387.183 Q 513.545 387.329 513.579 387.394 Q 513.613 387.459 513.658 387.561 "></path>
    <path id="STROKE_F4F326D6-E053-4957-A132-2333C8D78658" opacity="0.280" fill="none" stroke="#a2363c" stroke-width="1.250" stroke-opacity="1.000" stroke-linecap="round" stroke-linejoin="round" d="M 511.010 377.801 Q 511.083 377.871 511.131 377.913 Q 511.179 377.956 511.226 378.003 Q 511.274 378.049 511.383 378.175 Q 511.492 378.301 511.677 378.562 Q 511.863 378.822 512.137 379.350 Q 512.411 379.879 512.539 380.206 Q 512.666 380.534 512.752 380.796 Q 512.837 381.059 512.997 381.644 Q 513.156 382.230 513.233 382.560 Q 513.311 382.891 513.401 383.294 Q 513.491 383.696 513.612 384.490 Q 513.734 385.284 513.771 385.711 Q 513.808 386.138 513.819 386.513 L 513.816 386.538 L 513.822 386.844 "></path>
    <path id="STROKE_C8609FF4-735D-424D-AF10-769DAEAB1ADD" opacity="0.280" fill="none" stroke="#a2363c" stroke-width="1.250" stroke-opacity="1.000" stroke-linecap="round" stroke-linejoin="round" d="M 510.990 377.527 Q 511.084 377.601 511.232 377.712 Q 511.379 377.824 511.538 377.963 Q 511.698 378.102 511.939 378.355 Q 512.181 378.607 512.377 378.856 Q 512.573 379.105 512.803 379.456 Q 513.033 379.806 513.274 380.246 Q 513.514 380.686 513.660 381.022 Q 513.806 381.358 513.906 381.653 Q 514.006 381.948 514.076 382.216 Q 514.147 382.483 514.254 383.088 Q 514.361 383.693 514.404 384.019 Q 514.448 384.346 514.464 384.478 Q 514.481 384.610 514.510 384.837 Q 514.540 385.064 514.613 385.720 L 514.658 386.043 "></path>
    <path id="STROKE_8378C7EB-5383-4FA4-8112-8F89319261B7" opacity="0.280" fill="none" stroke="#a2363c" stroke-width="1.250" stroke-opacity="1.000" stroke-linecap="round" stroke-linejoin="round" d="M 511.293 377.173 Q 511.317 377.189 511.491 377.279 Q 511.665 377.369 511.797 377.443 Q 511.929 377.518 512.099 377.629 Q 512.269 377.740 512.489 377.909 Q 512.708 378.078 512.853 378.208 Q 512.998 378.337 513.302 378.664 Q 513.606 378.991 513.938 379.438 Q 514.270 379.885 514.438 380.168 Q 514.606 380.451 514.743 380.736 Q 514.880 381.021 515.042 381.491 Q 515.205 381.960 515.616 384.736 L 515.639 384.943 "></path>
    <path id="STROKE_08731C91-48A6-4E03-8B02-2207AA6A32A8" opacity="0.280" fill="none" stroke="#a2363c" stroke-width="1.250" stroke-opacity="1.000" stroke-linecap="round" stroke-linejoin="round" d="M 511.607 377.363 Q 511.676 377.374 511.828 377.401 Q 511.980 377.429 512.081 377.452 Q 512.183 377.475 512.243 377.490 Q 512.304 377.506 512.513 377.574 Q 512.722 377.643 512.910 377.731 Q 513.097 377.818 513.272 377.926 Q 513.447 378.033 513.802 378.356 Q 514.156 378.678 514.365 378.940 Q 514.575 379.203 514.778 379.531 Q 514.981 379.859 515.094 380.086 Q 515.207 380.313 515.327 380.629 Q 515.446 380.946 515.500 381.131 Q 515.554 381.316 515.644 381.812 Q 515.733 382.308 515.764 382.715 Q 515.796 383.121 515.802 383.361 Q 515.808 383.602 515.825 384.898 L 515.832 385.117 "></path>
    <path id="STROKE_8C26B81A-E2F2-4D31-B476-1B85085275DA" opacity="0.280" fill="none" stroke="#a2363c" stroke-width="1.250" stroke-opacity="1.000" stroke-linecap="round" stroke-linejoin="round" d="M 512.195 376.751 Q 512.222 376.732 512.380 376.612 Q 512.571 376.497 512.706 376.422 Q 512.841 376.346 512.929 376.302 Q 513.017 376.257 513.168 376.187 Q 513.320 376.117 513.583 376.006 Q 513.845 375.896 514.014 375.835 Q 514.182 375.775 514.390 375.725 Q 514.598 375.675 514.971 375.620 Q 515.345 375.565 515.573 375.558 Q 515.801 375.551 516.117 375.594 Q 516.432 375.636 516.671 375.711 Q 516.910 375.785 517.054 375.854 Q 517.198 375.922 517.284 375.973 Q 517.369 376.025 517.476 376.103 Q 517.583 376.181 517.678 376.265 Q 517.773 376.349 517.922 376.519 Q 518.071 376.689 518.203 376.899 Q 518.335 377.109 518.424 377.302 Q 518.512 377.495 518.591 377.734 Q 518.670 377.972 518.723 378.181 Q 518.775 378.390 518.829 379.131 Q 518.884 379.872 518.882 379.912 Q 518.881 379.953 518.848 380.343 Q 518.815 380.732 518.775 380.977 Q 518.736 381.223 518.628 381.612 Q 518.520 382.002 518.422 382.266 Q 518.323 382.530 518.261 382.673 Q 518.199 382.817 518.111 382.993 Q 518.024 383.169 517.902 383.378 Q 517.780 383.586 517.632 383.805 Q 517.484 384.023 517.365 384.179 Q 517.245 384.335 517.097 384.514 Q 516.950 384.693 516.845 384.814 Q 516.739 384.934 516.681 384.996 Q 516.623 385.058 516.300 385.381 "></path>
    <circle id="STROKE_9F503DD1-76D1-49D4-B008-6F7C77EC4361" opacity="0.280" fill="#ffbfa7" stroke="#ffbfa7" stroke-width="0.1" stroke-opacity="1.000" fill-opacity="1.000" cx="485.840" cy="366.424" r="0.250"></circle>
    <path id="STROKE_BA340BEF-953D-4EBF-B08F-95BA98EB9317" opacity="0.120" fill="none" stroke="#ffbfa7" stroke-width="0.500" stroke-opacity="1.000" stroke-linecap="round" stroke-linejoin="round" d="M 531.371 380.976 Q 531.432 380.977 531.614 380.968 Q 531.648 380.971 532.159 381.051 "></path>
    <path id="STROKE_AF6A2A40-70DC-4C39-8313-179003721ECE" opacity="0.120" fill="none" stroke="#ffbfa7" stroke-width="1.750" stroke-opacity="1.000" stroke-linecap="round" stroke-linejoin="round" d="M 514.022 377.244 Q 514.308 377.345 514.467 377.410 Q 514.626 377.475 514.756 377.537 Q 514.885 377.598 515.076 377.690 Q 515.266 377.782 515.355 377.829 Q 515.443 377.875 515.506 377.913 Q 515.570 377.950 515.713 378.046 Q 515.857 378.142 516.030 378.288 Q 516.203 378.433 516.334 378.571 Q 516.466 378.708 516.593 378.881 Q 516.720 379.053 516.842 379.272 Q 516.965 379.490 517.058 379.713 Q 517.151 379.936 517.204 380.108 Q 517.257 380.279 517.311 380.526 Q 517.365 380.773 517.398 381.033 Q 517.432 381.293 517.442 381.657 Q 517.453 382.020 517.442 382.241 Q 517.430 382.462 517.402 382.708 Q 517.375 382.955 517.344 383.147 Q 517.312 383.339 517.296 383.430 Q 517.279 383.521 517.221 383.764 Q 517.163 384.007 517.119 384.177 Q 517.076 384.348 516.953 384.794 "></path>
    <path id="STROKE_A1425132-852B-4EFC-BB24-7303BD157F64" opacity="1.000" fill="none" stroke="#000000" stroke-width="0.500" stroke-opacity="1.000" stroke-linecap="round" stroke-linejoin="round" d="M 511.001 376.191 Q 511.052 376.134 511.067 376.122 Q 511.082 376.109 511.154 376.037 Q 511.227 375.965 511.355 375.839 Q 511.484 375.714 511.604 375.604 Q 511.724 375.494 511.915 375.336 Q 512.105 375.178 512.314 375.024 Q 512.524 374.871 512.631 374.800 Q 512.738 374.729 512.849 374.664 Q 512.960 374.599 513.028 374.564 Q 513.096 374.529 513.261 374.455 Q 513.426 374.381 513.545 374.334 Q 513.664 374.286 513.866 374.225 Q 514.068 374.163 514.156 374.141 Q 514.245 374.118 514.310 374.105 Q 514.375 374.091 514.570 374.056 Q 514.766 374.020 514.880 374.005 Q 514.995 373.989 515.110 373.979 Q 515.225 373.969 515.329 373.964 Q 515.433 373.960 515.604 373.959 Q 515.775 373.958 515.975 373.971 Q 516.174 373.983 516.368 374.011 Q 516.562 374.039 516.746 374.076 Q 516.930 374.112 517.000 374.129 Q 517.070 374.147 517.211 374.189 Q 517.352 374.230 517.442 374.260 Q 517.532 374.290 517.708 374.364 Q 517.885 374.439 517.970 374.480 Q 518.055 374.522 518.150 374.567 Q 518.245 374.612 518.366 374.682 Q 518.488 374.752 518.603 374.820 Q 518.719 374.889 518.848 374.979 Q 518.978 375.069 519.009 375.093 Q 519.041 375.118 519.103 375.165 Q 519.164 375.213 519.258 375.293 Q 519.352 375.374 519.535 375.557 Q 519.718 375.739 519.855 375.895 Q 519.992 376.052 520.062 376.140 Q 520.131 376.228 520.182 376.295 Q 520.233 376.361 520.315 376.476 Q 520.398 376.590 520.472 376.704 Q 520.545 376.818 520.637 376.985 Q 520.730 377.151 520.792 377.270 Q 520.854 377.388 520.893 377.475 Q 520.932 377.562 520.994 377.725 Q 521.056 377.889 521.077 377.952 Q 521.097 378.015 521.169 378.317 Q 521.241 378.619 521.270 378.824 Q 521.299 379.030 521.312 379.191 Q 521.325 379.353 521.331 379.489 Q 521.336 379.626 521.332 379.810 Q 521.328 379.995 521.306 380.219 Q 521.284 380.444 521.248 380.669 Q 521.213 380.894 521.189 381.003 Q 521.165 381.113 521.128 381.269 Q 521.091 381.425 521.078 381.477 Q 521.064 381.529 520.974 381.811 Q 520.884 382.092 520.756 382.412 Q 520.628 382.731 520.573 382.852 Q 520.519 382.972 520.440 383.130 Q 520.360 383.289 520.208 383.561 Q 520.056 383.834 520.005 383.917 Q 519.955 383.999 519.811 384.210 Q 519.668 384.421 519.506 384.638 Q 519.345 384.856 519.217 385.015 Q 519.089 385.175 518.997 385.283 Q 518.906 385.391 518.775 385.533 Q 518.644 385.675 518.527 385.796 Q 518.411 385.918 518.242 386.076 Q 518.073 386.234 518.018 386.285 Q 517.962 386.336 517.864 386.420 Q 517.766 386.504 517.685 386.571 Q 517.603 386.637 517.431 386.774 Q 517.260 386.911 517.118 387.013 Q 516.977 387.114 516.913 387.159 Q 516.849 387.203 516.625 387.348 Q 516.400 387.493 516.331 387.535 Q 516.263 387.578 516.032 387.704 Q 515.802 387.831 515.687 387.888 Q 515.573 387.945 515.454 388.002 Q 515.336 388.059 515.219 388.109 Q 515.101 388.159 514.987 388.207 Q 514.872 388.255 514.804 388.282 Q 514.736 388.310 514.577 388.365 Q 514.419 388.420 514.299 388.459 Q 514.179 388.498 513.986 388.551 Q 513.793 388.604 513.616 388.649 Q 513.440 388.694 513.243 388.740 Q 513.046 388.786 512.827 388.826 Q 512.607 388.865 512.506 388.879 Q 512.404 388.892 512.316 388.902 Q 512.228 388.912 512.113 388.926 Q 511.998 388.941 511.796 388.964 Q 511.594 388.987 511.254 389.026 "></path>
    <path id="STROKE_2E6C31F8-6A56-4C47-9AFC-5F4A0A6FBEDF" opacity="1.000" fill="none" stroke="#000000" stroke-width="0.500" stroke-opacity="1.000" stroke-linecap="round" stroke-linejoin="round" d="M 510.943 376.316 L 510.793 376.258 L 510.677 376.216 Q 510.483 376.140 510.363 376.096 Q 510.243 376.052 510.178 376.026 Q 510.113 376.000 510.056 375.980 Q 510.000 375.960 509.831 375.905 Q 509.663 375.849 509.635 375.840 Q 509.607 375.831 509.466 375.788 Q 509.325 375.745 509.253 375.728 Q 509.181 375.710 509.041 375.677 Q 508.901 375.643 508.758 375.612 Q 508.615 375.580 508.558 375.570 Q 508.500 375.560 508.376 375.543 Q 508.251 375.527 508.060 375.507 Q 507.869 375.487 507.613 375.481 Q 507.358 375.475 507.210 375.481 Q 507.062 375.488 507.022 375.491 Q 506.982 375.495 506.861 375.509 Q 506.741 375.523 506.609 375.541 Q 506.477 375.559 506.241 375.613 Q 506.004 375.667 505.795 375.734 Q 505.586 375.801 505.256 375.951 Q 504.926 376.100 504.864 376.133 Q 504.802 376.166 504.738 376.202 Q 504.675 376.238 504.391 376.430 Q 504.107 376.623 504.009 376.699 Q 503.912 376.775 503.874 376.808 Q 503.837 376.840 503.689 376.971 Q 503.541 377.103 503.421 377.218 Q 503.302 377.333 503.190 377.451 Q 503.077 377.570 502.846 377.852 Q 502.614 378.135 502.480 378.327 Q 502.347 378.520 502.239 378.701 Q 502.130 378.882 502.094 378.949 Q 502.058 379.016 501.986 379.152 Q 501.914 379.289 501.758 379.658 Q 501.602 380.027 501.570 380.122 Q 501.538 380.217 501.477 380.446 Q 501.415 380.675 501.371 380.887 Q 501.326 381.099 501.304 381.248 Q 501.281 381.398 501.268 381.578 Q 501.256 381.757 501.254 381.911 Q 501.252 382.065 501.254 382.173 Q 501.257 382.280 501.279 382.511 Q 501.301 382.742 501.327 382.903 Q 501.353 383.063 501.357 383.083 Q 501.362 383.103 501.400 383.273 Q 501.438 383.443 501.487 383.608 Q 501.536 383.772 501.582 383.897 Q 501.629 384.023 501.660 384.100 Q 501.692 384.178 501.757 384.318 Q 501.821 384.458 501.914 384.636 Q 502.008 384.814 502.125 385.008 Q 502.242 385.202 502.275 385.253 Q 502.308 385.304 502.419 385.451 Q 502.529 385.597 502.580 385.661 Q 502.631 385.724 502.733 385.836 Q 502.834 385.949 502.904 386.019 Q 502.974 386.089 503.170 386.270 Q 503.365 386.452 503.457 386.529 Q 503.550 386.606 503.628 386.667 Q 503.707 386.728 503.844 386.825 Q 503.980 386.922 504.032 386.958 Q 504.083 386.993 504.212 387.077 Q 504.341 387.160 504.435 387.216 Q 504.529 387.273 504.640 387.339 Q 504.751 387.405 504.928 387.497 Q 505.104 387.590 505.120 387.598 Q 505.135 387.606 505.299 387.682 Q 505.463 387.758 505.562 387.805 Q 505.662 387.852 505.732 387.882 Q 505.803 387.912 505.943 387.968 Q 506.083 388.025 506.199 388.069 Q 506.315 388.114 506.433 388.161 Q 506.551 388.208 506.704 388.263 Q 506.857 388.318 506.952 388.350 Q 507.048 388.381 507.324 388.470 Q 507.600 388.559 507.719 388.590 Q 507.837 388.620 507.916 388.640 Q 507.996 388.661 508.078 388.681 Q 508.161 388.701 508.329 388.736 Q 508.497 388.771 508.519 388.776 Q 508.542 388.781 508.714 388.811 Q 508.885 388.841 509.003 388.856 Q 509.121 388.872 509.307 388.897 Q 509.493 388.922 509.652 388.937 Q 509.811 388.951 509.944 388.959 Q 510.077 388.967 510.172 388.972 Q 510.268 388.978 510.375 388.983 Q 510.482 388.988 510.537 388.988 Q 510.591 388.988 510.739 388.989 Q 510.887 388.990 510.973 388.990 Q 511.060 388.990 511.204 388.986 L 511.330 388.989 Q 511.441 388.990 511.484 388.989 Q 511.527 388.988 511.652 388.984 "></path>
    <path id="STROKE_B55C3EEF-E4B3-4E75-81F6-23708A58271D" opacity="1.000" fill="none" stroke="#9e5246" stroke-width="0.500" stroke-opacity="1.000" stroke-linecap="round" stroke-linejoin="round" d="M 510.947 375.864 Q 510.946 375.773 510.944 375.534 Q 510.943 375.295 510.953 374.916 Q 510.963 374.538 510.989 374.215 Q 511.016 373.893 511.029 373.793 Q 511.043 373.693 511.047 373.659 Q 511.051 373.625 511.078 373.460 Q 511.104 373.294 511.135 373.137 Q 511.167 372.981 511.211 372.794 Q 511.255 372.608 511.282 372.502 Q 511.310 372.397 511.332 372.317 Q 511.354 372.237 511.391 372.081 "></path>
    <path id="STROKE_38CE8C3C-7F4C-4045-B94B-F5500445EA82" opacity="1.000" fill="none" stroke="#9e5246" stroke-width="0.500" stroke-opacity="1.000" stroke-linecap="round" stroke-linejoin="round" d="M 510.582 375.780 Q 510.585 375.562 510.626 374.923 Q 510.667 374.283 510.679 374.180 Q 510.691 374.076 510.708 373.956 Q 510.725 373.835 510.757 373.659 Q 510.789 373.483 510.844 373.255 Q 510.899 373.027 510.925 372.942 Q 510.952 372.858 510.981 372.767 Q 511.011 372.675 511.041 372.595 Q 511.070 372.515 511.087 372.480 L 511.187 372.210 "></path>
    <path id="STROKE_B6D55E7B-D193-46BC-B8EB-201504F3AB91" opacity="1.000" fill="none" stroke="#9e5246" stroke-width="0.500" stroke-opacity="1.000" stroke-linecap="round" stroke-linejoin="round" d="M 510.408 375.814 Q 510.383 375.377 510.381 375.250 Q 510.378 375.124 510.380 374.904 Q 510.382 374.685 510.402 374.440 Q 510.422 374.196 510.448 374.030 Q 510.474 373.865 510.495 373.768 Q 510.516 373.671 510.559 373.526 Q 510.601 373.381 510.634 373.288 Q 510.667 373.194 510.758 372.987 Q 510.849 372.779 510.891 372.694 Q 510.933 372.609 510.997 372.494 Q 511.061 372.379 511.171 372.202 "></path>
    <path id="STROKE_6F353536-3AED-4901-AC34-1AB914BE6415" opacity="1.000" fill="none" stroke="#9e5246" stroke-width="0.500" stroke-opacity="1.000" stroke-linecap="round" stroke-linejoin="round" d="M 511.146 375.498 Q 511.228 374.832 511.256 374.619 Q 511.284 374.407 511.348 373.987 Q 511.412 373.568 511.439 373.419 Q 511.465 373.270 511.493 373.121 Q 511.521 372.973 511.531 372.922 Q 511.540 372.871 511.593 372.620 Q 511.645 372.368 511.646 372.362 Q 511.647 372.355 511.700 372.123 L 511.739 371.961 "></path>
    <path id="STROKE_50800923-0F00-4A4B-9275-FA91AA919BA5" opacity="1.000" fill="none" stroke="#9e5246" stroke-width="0.500" stroke-opacity="1.000" stroke-linecap="round" stroke-linejoin="round" d="M 510.595 375.598 Q 510.593 375.422 510.598 375.247 Q 510.603 375.071 510.625 374.754 Q 510.647 374.436 510.670 374.250 Q 510.694 374.063 510.733 373.826 Q 510.772 373.588 510.808 373.430 Q 510.844 373.272 510.881 373.142 Q 510.918 373.011 511.021 372.724 Q 511.124 372.436 511.161 372.345 Q 511.199 372.255 511.225 372.196 Q 511.251 372.137 511.291 372.051 Q 511.330 371.966 511.360 371.912 L 511.416 371.795 "></path>
    <path id="STROKE_4D388470-9DE5-4ACA-A180-54D17D92E2BC" opacity="1.000" fill="none" stroke="#9e5246" stroke-width="0.500" stroke-opacity="1.000" stroke-linecap="round" stroke-linejoin="round" d="M 511.378 371.924 L 511.396 371.919 Q 511.391 371.913 511.386 371.910 Q 511.382 371.907 511.371 371.905 Q 511.361 371.904 511.384 371.900 Q 511.383 371.897 511.364 371.893 Q 511.362 371.900 511.362 371.903 Q 511.363 371.906 511.364 371.908 Q 511.364 371.910 511.368 371.911 Q 511.373 371.911 511.372 371.907 Q 511.370 371.903 511.363 371.903 Q 511.355 371.902 511.350 371.903 Q 511.345 371.903 511.336 371.908 Q 511.327 371.913 511.323 371.917 Q 511.319 371.921 511.320 371.921 Q 511.322 371.922 511.320 371.924 "></path>
    <path id="STROKE_A9777185-E96B-4B74-BFA3-E5EEDF7ABC75" opacity="1.000" fill="none" stroke="#9e5246" stroke-width="0.500" stroke-opacity="1.000" stroke-linecap="round" stroke-linejoin="round" d="M 511.229 372.098 Q 511.203 372.157 511.117 372.413 "></path>
    <path id="STROKE_DAE670BE-7654-4C4E-8A5A-1239AAEF7C40" opacity="1.000" fill="none" stroke="#9e5246" stroke-width="0.500" stroke-opacity="1.000" stroke-linecap="round" stroke-linejoin="round" d="M 511.080 372.268 Q 511.043 372.359 510.918 372.865 "></path>
    <circle id="STROKE_CED3644B-E482-490D-AD03-9D5D1059D3AC" opacity="1.000" fill="#00944c" stroke="#00944c" stroke-width="0.1" stroke-opacity="1.000" fill-opacity="1.000" cx="512.071" cy="372.853" r="0.250"></circle>
    <path id="STROKE_4A13D23B-C20B-4293-B2E1-94541C22BB2D" opacity="1.000" fill="none" stroke="#00944c" stroke-width="0.500" stroke-opacity="1.000" stroke-linecap="round" stroke-linejoin="round" d="M 511.972 372.861 Q 511.998 372.833 512.077 372.760 L 512.118 372.718 Q 512.184 372.654 512.453 372.418 Q 512.722 372.182 513.001 371.968 Q 513.280 371.755 513.415 371.663 Q 513.551 371.571 513.610 371.532 Q 513.669 371.494 513.861 371.382 Q 514.053 371.271 514.160 371.217 Q 514.267 371.163 514.401 371.103 Q 514.535 371.044 514.651 371.000 Q 514.766 370.957 514.895 370.919 Q 515.024 370.881 515.123 370.856 Q 515.223 370.831 515.313 370.815 Q 515.347 370.815 515.415 370.820 Q 515.483 370.825 515.565 370.842 Q 515.647 370.858 515.685 370.872 Q 515.724 370.886 515.765 370.905 Q 515.769 370.906 515.811 370.907 Q 515.852 370.908 515.871 370.911 Q 515.889 370.914 515.893 370.915 Q 515.898 370.916 515.915 370.922 Q 515.932 370.928 515.970 370.952 Q 516.008 370.977 516.027 371.013 Q 516.047 371.050 516.050 371.060 Q 516.054 371.069 516.058 371.140 Q 516.063 371.210 516.035 371.431 Q 516.006 371.652 515.987 371.729 Q 515.967 371.806 515.948 371.870 Q 515.929 371.933 515.881 372.069 Q 515.833 372.205 515.804 372.280 Q 515.774 372.356 515.729 372.461 Q 515.684 372.565 515.606 372.732 Q 515.528 372.899 515.479 372.999 Q 515.430 373.099 515.339 373.276 Q 515.248 373.452 515.219 373.512 "></path>
    <path id="STROKE_6FA5846F-0659-4782-BE7F-C4F5B47B382E" opacity="1.000" fill="none" stroke="#00944c" stroke-width="0.500" stroke-opacity="1.000" stroke-linecap="round" stroke-linejoin="round" d="M 511.926 373.072 Q 511.914 373.160 511.892 373.285 Q 511.870 373.411 511.835 373.601 Q 511.800 373.791 511.774 373.920 Q 511.747 374.049 511.715 374.193 Q 511.684 374.338 511.655 374.473 Q 511.626 374.609 511.604 374.718 Q 511.581 374.827 511.573 374.861 Q 511.565 374.895 511.547 374.973 Q 511.530 375.050 511.490 375.246 "></path>
    <path id="STROKE_D55FAFFE-0821-46EE-AF65-496AC6591DE5" opacity="1.000" fill="none" stroke="#00944c" stroke-width="0.500" stroke-opacity="1.000" stroke-linecap="round" stroke-linejoin="round" d="M 511.432 375.183 Q 511.460 375.164 511.520 375.119 Q 511.580 375.074 511.681 375.000 Q 511.783 374.926 511.990 374.785 Q 512.197 374.644 512.333 374.557 Q 512.469 374.469 512.653 374.363 Q 512.836 374.257 512.903 374.222 Q 512.970 374.188 513.019 374.163 Q 513.067 374.138 513.185 374.079 Q 513.304 374.020 513.394 373.980 Q 513.484 373.940 513.601 373.894 Q 513.719 373.848 513.807 373.818 Q 513.895 373.787 513.977 373.761 Q 514.060 373.734 514.248 373.681 Q 514.436 373.627 514.547 373.602 Q 514.659 373.578 514.726 373.568 Q 514.794 373.559 515.023 373.499 "></path>
    <path id="STROKE_D21F8CCC-16CD-4CBB-BA3B-31F993AF6C72" opacity="1.000" fill="none" stroke="#00944c" stroke-width="0.500" stroke-opacity="1.000" stroke-linecap="round" stroke-linejoin="round" d="M 511.975 374.677 Q 512.041 374.592 512.143 374.473 Q 512.244 374.353 512.311 374.275 Q 512.377 374.197 512.639 373.910 Q 512.900 373.623 513.127 373.390 Q 513.355 373.157 513.754 372.788 Q 514.153 372.418 514.261 372.326 Q 514.370 372.233 514.426 372.187 Q 514.483 372.140 514.625 372.029 Q 514.768 371.917 514.890 371.828 Q 515.013 371.738 515.121 371.663 Q 515.229 371.587 515.293 371.544 Q 515.357 371.501 515.429 371.457 L 515.638 371.318 "></path>
    <path id="STROKE_B2BFBE25-E3F5-4032-8B6E-09E005A18D80" opacity="1.000" fill="none" stroke="#00944c" stroke-width="0.500" stroke-opacity="1.000" stroke-linecap="round" stroke-linejoin="round" d="M 512.880 373.848 Q 512.982 373.763 513.060 373.701 Q 513.138 373.639 513.148 373.630 Q 513.157 373.622 513.342 373.472 Q 513.527 373.322 513.637 373.236 Q 513.747 373.150 513.941 372.998 Q 514.134 372.846 514.293 372.725 Q 514.451 372.604 514.666 372.445 Q 514.880 372.285 515.106 372.124 Q 515.331 371.963 515.417 371.899 Q 515.503 371.835 515.645 371.737 "></path>
    <path id="STROKE_21E21111-EDDF-42AC-A546-81D355062614" opacity="1.000" fill="none" stroke="#00944c" stroke-width="0.500" stroke-opacity="1.000" stroke-linecap="round" stroke-linejoin="round" d="M 513.522 373.686 Q 513.598 373.623 513.743 373.507 Q 513.889 373.391 514.116 373.208 Q 514.344 373.025 514.543 372.870 Q 514.743 372.715 514.885 372.605 Q 515.028 372.494 515.150 372.396 Q 515.272 372.299 515.305 372.272 Q 515.339 372.246 515.612 372.036 "></path>
    <path id="STROKE_A7BA63EE-4461-49AC-8720-4E87B0A4C369" opacity="1.000" fill="none" stroke="#00944c" stroke-width="0.500" stroke-opacity="1.000" stroke-linecap="round" stroke-linejoin="round" d="M 514.401 373.359 Q 514.671 373.091 514.851 372.915 Q 515.031 372.739 515.061 372.708 Q 515.092 372.677 515.160 372.607 Q 515.228 372.537 515.246 372.521 Q 515.264 372.505 515.509 372.251 "></path>
    <path id="STROKE_596AF506-972A-4AC0-8329-022F2E5DE767" opacity="1.000" fill="none" stroke="#00944c" stroke-width="0.500" stroke-opacity="1.000" stroke-linecap="round" stroke-linejoin="round" d="M 514.903 373.242 Q 514.958 373.162 515.052 373.050 Q 515.146 372.938 515.372 372.650 "></path>
    <path id="STROKE_0AD2178C-2352-4655-9B9B-201F3D312393" opacity="1.000" fill="none" stroke="#00944c" stroke-width="0.500" stroke-opacity="1.000" stroke-linecap="round" stroke-linejoin="round" d="M 511.892 374.433 Q 511.964 374.344 512.084 374.203 Q 512.204 374.061 512.286 373.965 Q 512.368 373.869 512.438 373.790 Q 512.509 373.711 512.630 373.575 Q 512.751 373.439 512.860 373.322 Q 512.970 373.204 513.102 373.073 Q 513.234 372.941 513.415 372.766 Q 513.596 372.591 513.693 372.504 Q 513.788 372.417 513.974 372.259 Q 514.160 372.101 514.287 371.996 Q 514.414 371.890 514.565 371.770 Q 514.715 371.649 514.834 371.558 Q 514.953 371.466 515.070 371.378 Q 515.187 371.290 515.256 371.242 Q 515.325 371.194 515.372 371.161 "></path>
    <path id="STROKE_1D077177-D630-4DAF-ADA2-96A764B2FD35" opacity="1.000" fill="none" stroke="#00944c" stroke-width="0.500" stroke-opacity="1.000" stroke-linecap="round" stroke-linejoin="round" d="M 512.088 373.641 L 512.166 373.559 Q 512.221 373.502 512.478 373.258 Q 512.736 373.015 512.872 372.893 Q 513.008 372.772 513.196 372.617 Q 513.385 372.463 513.523 372.355 Q 513.661 372.247 513.752 372.180 Q 513.843 372.113 514.209 371.872 Q 514.574 371.632 514.661 371.576 Q 514.748 371.521 515.032 371.348 "></path>
    <path id="STROKE_02FA0384-EDF9-4768-8E68-AE8E7DDB8704" opacity="1.000" fill="none" stroke="#00944c" stroke-width="0.500" stroke-opacity="1.000" stroke-linecap="round" stroke-linejoin="round" d="M 512.166 373.305 Q 512.323 373.159 512.381 373.111 Q 512.439 373.062 512.559 372.960 Q 512.679 372.857 512.834 372.729 Q 512.989 372.601 513.178 372.456 Q 513.366 372.310 513.423 372.267 Q 513.481 372.224 513.747 372.037 Q 514.013 371.851 514.158 371.757 Q 514.303 371.663 514.466 371.557 Q 514.630 371.450 514.760 371.372 Q 514.891 371.293 515.119 371.165 "></path>
    <path id="STROKE_AA53F077-EF27-4ACF-9754-F76C96588E87" opacity="1.000" fill="none" stroke="#000000" stroke-width="0.500" stroke-opacity="1.000" stroke-linecap="round" stroke-linejoin="round" d="M 510.026 375.743 Q 510.042 375.682 510.068 375.548 Q 510.095 375.415 510.175 375.043 Q 510.256 374.671 510.311 374.444 Q 510.365 374.216 510.388 374.129 Q 510.411 374.041 510.460 373.874 Q 510.509 373.707 510.599 373.435 Q 510.689 373.164 510.723 373.074 Q 510.756 372.984 510.847 372.760 Q 510.938 372.535 510.999 372.395 Q 511.060 372.254 511.115 372.135 Q 511.169 372.015 511.237 371.884 Q 511.305 371.753 511.394 371.571 "></path>
    <path id="STROKE_64E7D0E6-C514-4172-81C1-E030BD21CF04" opacity="1.000" fill="none" stroke="#000000" stroke-width="0.500" stroke-opacity="1.000" stroke-linecap="round" stroke-linejoin="round" d="M 511.548 371.571 Q 511.895 371.694 512.005 371.737 "></path>
    <path id="STROKE_6FFE0D66-28DF-4D91-BAB0-4DADBEA00DF8" opacity="1.000" fill="none" stroke="#000000" stroke-width="0.500" stroke-opacity="1.000" stroke-linecap="round" stroke-linejoin="round" d="M 512.092 371.808 Q 512.066 371.931 512.050 372.018 Q 512.033 372.104 512.022 372.128 L 512.009 372.214 "></path>
    <path id="STROKE_EFD50703-20A3-4999-A057-92136EBA9BB6" opacity="1.000" fill="none" stroke="#000000" stroke-width="0.500" stroke-opacity="1.000" stroke-linecap="round" stroke-linejoin="round" d="M 511.889 372.521 Q 511.914 372.501 512.004 372.434 Q 512.093 372.368 512.206 372.287 Q 512.318 372.207 512.548 372.050 Q 512.777 371.893 512.875 371.831 Q 512.973 371.768 513.188 371.644 Q 513.402 371.520 513.551 371.443 Q 513.699 371.366 514.021 371.234 Q 514.342 371.102 514.613 371.024 Q 514.884 370.946 515.068 370.909 Q 515.252 370.872 515.402 370.851 Q 515.552 370.830 515.615 370.824 Q 515.677 370.818 516.058 370.798 Q 516.175 370.796 516.271 370.792 "></path>
    <path id="STROKE_D8B0DF8F-BFEE-4091-8540-FD70299E89BB" opacity="1.000" fill="none" stroke="#000000" stroke-width="0.500" stroke-opacity="1.000" stroke-linecap="round" stroke-linejoin="round" d="M 515.422 373.728 Q 515.550 373.412 515.560 373.390 Q 515.570 373.368 515.681 373.098 Q 515.791 372.827 515.814 372.767 Q 515.838 372.706 515.927 372.480 Q 516.015 372.253 516.077 372.087 Q 516.139 371.920 516.187 371.784 Q 516.235 371.647 516.294 371.472 Q 516.353 371.296 516.385 371.199 Q 516.417 371.102 516.454 370.991 "></path>
    <path id="STROKE_3E6A5EB5-3142-4F68-AD9D-E0B135FDB5F2" opacity="1.000" fill="none" stroke="#000000" stroke-width="0.500" stroke-opacity="1.000" stroke-linecap="round" stroke-linejoin="round" d="M 511.146 375.764 L 511.244 375.394 Q 511.251 375.370 511.288 375.231 Q 511.324 375.092 511.364 374.930 Q 511.405 374.767 511.440 374.634 Q 511.475 374.500 511.515 374.341 Q 511.556 374.183 511.571 374.121 Q 511.586 374.060 511.619 373.930 Q 511.653 373.800 511.670 373.729 Q 511.687 373.658 511.748 373.419 Q 511.809 373.181 511.834 373.084 Q 511.858 372.987 511.884 372.892 Q 511.910 372.796 512.009 372.426 "></path>
    <path id="STROKE_F7FDA6F5-6DBD-4B62-857A-745B8C80429A" opacity="1.000" fill="none" stroke="#000000" stroke-width="0.500" stroke-opacity="1.000" stroke-linecap="round" stroke-linejoin="round" d="M 512.009 374.727 Q 512.071 374.655 512.145 374.576 Q 512.219 374.496 512.328 374.380 Q 512.438 374.264 512.526 374.170 Q 512.614 374.077 512.744 373.946 Q 512.873 373.816 512.932 373.756 Q 512.991 373.697 513.142 373.551 Q 513.293 373.405 513.601 373.123 Q 513.909 372.840 514.196 372.601 Q 514.483 372.362 514.625 372.248 Q 514.768 372.134 514.965 371.984 Q 515.162 371.833 515.316 371.718 Q 515.471 371.603 515.570 371.531 Q 515.670 371.460 515.838 371.341 Q 516.007 371.223 516.210 371.078 "></path>
    <circle id="STROKE_5050E083-BE97-4404-9E71-B7A4960F3AC6" opacity="1.000" fill="#000000" stroke="#000000" stroke-width="0.1" stroke-opacity="1.000" fill-opacity="1.000" cx="512.688" cy="374.819" r="0.250"></circle>
    <path id="STROKE_CA449B31-593D-497C-92EB-F7574AB7AD87" opacity="1.000" fill="none" stroke="#000000" stroke-width="0.500" stroke-opacity="1.000" stroke-linecap="round" stroke-linejoin="round" d="M 511.353 375.610 L 511.412 375.531 Q 511.567 375.323 511.590 375.288 Q 511.614 375.254 511.771 375.049 Q 511.929 374.844 512.015 374.731 Q 512.100 374.618 512.122 374.592 Q 512.144 374.567 512.357 374.288 "></path>
    <path id="STROKE_0A768EBA-1CBC-4750-9E9D-5F051E45979E" opacity="1.000" fill="none" stroke="#ffffff" stroke-width="0.500" stroke-opacity="1.000" stroke-linecap="round" stroke-linejoin="round" d="M 491.236 366.840 Q 491.203 366.750 491.086 366.506 L 491.046 366.404 "></path>
    <path id="STROKE_F528CCF0-E0FB-4AC9-8518-59633DC08742" opacity="0.170" fill="none" stroke="#ffffff" stroke-width="0.500" stroke-opacity="1.000" stroke-linecap="round" stroke-linejoin="round" d="M 512.548 373.359 Q 512.796 373.163 513.103 372.919 "></path>
    <path id="STROKE_8FD3B91F-3113-4FC6-96AA-6FD44E8832D4" opacity="0.170" fill="none" stroke="#ffffff" stroke-width="0.500" stroke-opacity="1.000" stroke-linecap="round" stroke-linejoin="round" d="M 512.477 373.499 Q 512.535 373.452 512.657 373.343 Q 512.780 373.235 513.099 372.965 Q 513.419 372.694 513.539 372.593 Q 513.659 372.492 513.974 372.218 "></path>
    <path id="STROKE_46CF99E4-C2EE-4E1F-8BF0-D07491B97FBC" opacity="0.170" fill="none" stroke="#ffffff" stroke-width="0.500" stroke-opacity="1.000" stroke-linecap="round" stroke-linejoin="round" d="M 513.124 372.923 Q 513.220 372.841 513.958 372.355 Q 514.697 371.868 514.807 371.795 "></path>
    <path id="STROKE_88BEEB19-7696-4CBE-9305-8FFAE10B7835" opacity="0.170" fill="none" stroke="#ffffff" stroke-width="0.500" stroke-opacity="1.000" stroke-linecap="round" stroke-linejoin="round" d="M 512.311 373.458 Q 512.271 373.534 512.211 373.647 Q 512.151 373.760 512.137 373.787 Q 512.123 373.815 512.071 373.913 Q 512.019 374.011 511.826 374.375 "></path>
    <path id="STROKE_D270656E-F6CB-4E0B-8C41-7DAF3D174864" opacity="0.170" fill="none" stroke="#ffffff" stroke-width="0.500" stroke-opacity="1.000" stroke-linecap="round" stroke-linejoin="round" d="M 514.065 372.007 Q 514.161 371.949 514.282 371.884 Q 514.404 371.819 514.617 371.697 Q 514.829 371.575 515.189 371.368 "></path>
    <path id="STROKE_11F7C29C-6612-4900-AE0F-6385FD7B9859" opacity="0.170" fill="none" stroke="#ffffff" stroke-width="0.500" stroke-opacity="1.000" stroke-linecap="round" stroke-linejoin="round" d="M 514.940 371.687 Q 515.019 371.617 515.313 371.401 "></path>
    <path id="STROKE_66C0C417-C2C3-4628-8D05-1BEE17152349" opacity="0.170" fill="none" stroke="#ffffff" stroke-width="0.500" stroke-opacity="1.000" stroke-linecap="round" stroke-linejoin="round" d="M 510.768 374.375 Q 510.812 374.275 510.890 374.105 Q 510.968 373.935 511.074 373.708 Q 511.179 373.480 511.252 373.330 Q 511.324 373.181 511.484 372.818 Q 511.644 372.455 511.710 372.306 "></path>
  </g>
</svg>