<?xml version="1.0" encoding="UTF-8" standalone="yes"?>
<svg xmlns="http://www.w3.org/2000/svg" xmlns:xlink="http://www.w3.org/1999/xlink" width="1.893939in" height="1.984848in" version="1.1" viewBox="192.000000 378.000000 250.000000 262.000000">
  <!--
	Exported with Concepts: Smarter Sketching
	Version: 669
	iOS Version: 12.2
	https://concepts.app/
	-->
  <title>Untitled 11</title>
  <desc>Drawing exported from Concepts: Smarter Sketching</desc>
  <g id="Pen" opacity="1.000">
    <path id="STROKE_E7E2CACF-32CC-4461-999C-C7A732A9FE22" opacity="1.000" fill="none" stroke="#c48455" stroke-width="16.500" stroke-opacity="1.000" stroke-linecap="round" stroke-linejoin="round" d="M 264.477 472.018 Q 264.792 472.036 266.280 472.170 Q 267.768 472.303 270.519 472.528 Q 273.271 472.753 275.728 472.946 Q 278.186 473.140 282.843 473.481 Q 287.500 473.822 290.121 473.986 Q 292.741 474.151 294.129 474.227 Q 295.516 474.303 296.554 474.358 Q 297.592 474.413 302.819 474.606 Q 308.046 474.798 314.016 474.873 Q 319.985 474.947 324.272 474.897 Q 328.558 474.847 330.592 474.791 Q 332.626 474.736 333.562 474.701 Q 334.498 474.666 337.546 474.531 Q 340.594 474.396 342.299 474.307 Q 344.003 474.217 348.483 473.913 Q 352.962 473.610 355.289 473.423 Q 357.616 473.236 359.779 473.043 Q 361.942 472.851 363.509 472.702 Q 365.076 472.553 368.280 472.231 Q 371.484 471.909 374.465 471.602 Q 377.446 471.296 380.197 471.017 "></path>
    <path id="STROKE_6ECB2CFF-12A7-4B2E-AF4C-E2A1AEF7B321" opacity="1.000" fill="none" stroke="#c48455" stroke-width="16.500" stroke-opacity="1.000" stroke-linecap="round" stroke-linejoin="round" d="M 261.662 466.685 Q 262.654 466.427 262.959 466.348 Q 263.264 466.269 263.623 466.181 Q 263.983 466.093 264.789 465.905 Q 265.596 465.718 266.863 465.427 Q 268.130 465.137 268.778 464.987 Q 269.426 464.836 269.849 464.744 Q 270.271 464.652 270.852 464.525 Q 271.434 464.397 273.352 463.986 Q 275.269 463.575 277.362 463.172 Q 279.454 462.769 280.491 462.583 Q 281.527 462.397 282.419 462.242 Q 283.310 462.087 283.852 461.995 Q 284.393 461.902 289.209 461.220 Q 294.026 460.538 296.750 460.229 Q 299.474 459.921 301.915 459.682 Q 304.355 459.442 305.612 459.329 Q 306.868 459.215 312.795 458.781 Q 318.722 458.347 323.226 458.124 Q 327.730 457.901 330.239 457.837 Q 332.748 457.772 334.443 457.753 Q 336.138 457.734 337.734 457.734 Q 339.331 457.733 340.412 457.749 Q 341.493 457.765 343.612 457.843 Q 345.731 457.922 346.749 457.977 Q 347.767 458.031 349.717 458.184 Q 351.667 458.336 352.707 458.443 Q 353.747 458.549 355.946 458.819 Q 358.145 459.090 359.226 459.249 Q 360.306 459.409 362.443 459.805 Q 364.581 460.201 365.818 460.469 Q 367.055 460.737 367.886 460.931 Q 368.717 461.124 369.451 461.309 Q 370.184 461.493 371.634 461.880 Q 373.083 462.267 375.338 462.935 Q 377.593 463.603 378.240 463.815 Q 378.886 464.027 380.044 464.423 Q 381.201 464.819 382.115 465.146 Q 383.030 465.473 383.776 465.747 Q 384.522 466.022 384.800 466.123 Q 385.078 466.223 385.614 466.435 Q 386.149 466.646 387.795 467.253 "></path>
    <path id="STROKE_6CEAF839-30ED-4F88-B6F7-2D39C9F16E97" opacity="1.000" fill="none" stroke="#c48455" stroke-width="16.500" stroke-opacity="1.000" stroke-linecap="round" stroke-linejoin="round" d="M 257.877 467.182 Q 257.926 467.553 258.182 469.324 Q 258.437 471.096 258.732 473.042 Q 259.027 474.988 259.219 476.223 Q 259.411 477.458 259.930 480.613 Q 260.448 483.767 260.947 486.584 Q 261.446 489.400 261.756 491.020 Q 262.065 492.640 262.247 493.529 Q 262.429 494.417 262.876 496.502 Q 263.324 498.587 263.799 500.645 Q 264.274 502.703 265.388 506.863 Q 266.503 511.024 266.808 512.058 Q 267.114 513.093 267.868 515.453 Q 268.622 517.813 269.395 520.004 Q 270.167 522.194 270.965 524.232 Q 271.763 526.270 272.937 528.895 Q 274.111 531.520 275.033 533.299 Q 275.954 535.078 276.752 536.450 Q 277.550 537.822 278.434 539.187 Q 279.318 540.553 279.662 541.045 Q 280.006 541.537 280.266 541.908 Q 280.526 542.279 280.651 542.450 Q 280.775 542.621 281.189 543.175 Q 281.604 543.730 282.029 544.262 Q 282.455 544.793 283.077 545.500 Q 283.698 546.207 284.259 546.784 Q 284.819 547.362 285.374 547.886 Q 285.930 548.410 286.555 548.936 Q 287.179 549.463 287.733 549.887 Q 288.288 550.312 288.593 550.530 Q 288.899 550.747 289.489 551.149 Q 290.078 551.551 290.921 552.074 Q 291.763 552.597 293.713 553.580 Q 295.663 554.563 296.730 555.000 Q 297.796 555.437 299.484 556.003 Q 301.171 556.569 302.324 556.885 Q 303.477 557.201 304.201 557.373 Q 304.924 557.546 307.214 557.978 Q 309.505 558.410 310.311 558.525 Q 311.117 558.640 312.782 558.822 Q 314.447 559.003 315.647 559.096 Q 316.847 559.189 317.995 559.241 Q 319.142 559.293 320.199 559.315 Q 321.256 559.338 321.517 559.341 Q 321.778 559.344 323.214 559.327 Q 324.650 559.310 326.221 559.241 Q 327.791 559.172 329.853 559.007 Q 331.914 558.843 335.812 558.282 Q 339.710 557.722 341.641 557.305 Q 343.572 556.887 344.504 556.649 Q 345.435 556.411 346.882 555.980 Q 348.329 555.548 349.407 555.173 Q 350.485 554.799 352.428 553.998 Q 354.371 553.197 355.642 552.587 Q 356.912 551.978 357.954 551.416 Q 358.995 550.854 359.834 550.351 Q 360.674 549.847 361.784 549.101 Q 362.894 548.355 363.331 548.032 Q 363.768 547.709 364.579 547.089 Q 365.390 546.469 365.911 546.040 Q 366.432 545.611 366.851 545.244 Q 367.269 544.876 368.296 543.892 Q 369.323 542.908 370.159 542.020 Q 370.994 541.131 371.706 540.313 Q 372.418 539.495 372.834 538.979 Q 373.249 538.464 373.591 538.023 Q 373.933 537.582 374.823 536.390 Q 375.712 535.198 376.606 533.875 Q 377.501 532.552 377.562 532.457 Q 377.623 532.363 378.066 531.644 Q 378.510 530.925 378.757 530.503 Q 379.005 530.080 379.571 529.067 Q 380.137 528.054 380.878 526.581 Q 381.620 525.107 382.064 524.162 Q 382.508 523.218 382.962 522.182 Q 383.415 521.146 383.755 520.300 Q 384.096 519.454 384.343 518.820 Q 384.591 518.185 385.292 516.246 Q 385.994 514.307 386.403 513.041 Q 386.813 511.776 387.101 510.795 Q 387.389 509.815 388.042 507.274 Q 388.694 504.734 389.044 503.063 Q 389.395 501.392 389.838 498.568 Q 390.281 495.744 390.440 494.313 Q 390.598 492.882 390.682 491.975 Q 390.765 491.067 390.806 490.519 Q 390.847 489.970 390.923 488.582 Q 390.999 487.194 391.027 486.394 Q 391.054 485.594 391.093 483.561 Q 391.131 481.529 391.114 480.111 Q 391.097 478.693 391.081 478.213 Q 391.065 477.732 391.038 477.137 Q 391.010 476.542 390.984 476.069 Q 390.957 475.596 390.927 475.183 Q 390.896 474.770 390.855 474.260 Q 390.815 473.749 390.811 473.676 Q 390.806 473.603 390.748 472.917 Q 390.690 472.231 390.627 471.481 Q 390.564 470.730 390.536 470.458 Q 390.508 470.185 390.487 469.971 Q 390.465 469.757 390.369 468.182 "></path>
    <path id="STROKE_51BFA73A-2597-48F1-AEBD-742650489063" opacity="1.000" fill="none" stroke="#c48455" stroke-width="16.500" stroke-opacity="1.000" stroke-linecap="round" stroke-linejoin="round" d="M 300.168 549.833 Q 300.132 549.594 299.960 548.391 Q 299.788 547.189 299.543 545.482 Q 299.299 543.774 299.166 542.843 Q 299.033 541.913 298.465 537.982 Q 297.897 534.051 297.773 533.127 Q 297.649 532.204 297.374 530.264 Q 297.100 528.325 296.898 526.847 Q 296.696 525.370 296.391 522.969 Q 296.086 520.568 296.027 520.098 Q 295.968 519.627 295.887 518.916 Q 295.807 518.205 295.700 517.228 Q 295.594 516.250 295.499 515.380 Q 295.404 514.510 295.237 512.583 Q 295.069 510.656 294.922 508.472 Q 294.774 506.289 294.672 503.959 Q 294.570 501.628 294.541 500.551 Q 294.512 499.474 294.498 498.393 Q 294.484 497.313 294.482 496.338 Q 294.479 495.363 294.481 494.887 Q 294.483 494.412 294.495 493.386 Q 294.508 492.361 294.521 491.270 Q 294.534 490.178 294.561 489.107 Q 294.588 488.037 294.619 486.958 Q 294.650 485.880 294.667 485.170 Q 294.685 484.459 294.701 483.869 Q 294.717 483.279 294.726 483.097 Q 294.734 482.916 294.813 480.803 "></path>
    <path id="STROKE_75F02EDB-5526-4DD9-BD34-DB42E8CD4661" opacity="1.000" fill="none" stroke="#c48455" stroke-width="16.500" stroke-opacity="1.000" stroke-linecap="round" stroke-linejoin="round" d="M 318.241 551.978 Q 318.575 552.432 318.953 552.832 "></path>
    <path id="STROKE_4A50B581-BC2D-4135-835E-B4C26D27B5AF" opacity="1.000" fill="none" stroke="#c48455" stroke-width="16.500" stroke-opacity="1.000" stroke-linecap="round" stroke-linejoin="round" d="M 320.125 554.619 Q 320.208 554.248 320.524 552.797 Q 320.841 551.346 321.098 550.124 Q 321.355 548.903 321.739 547.044 Q 322.123 545.185 322.479 543.366 Q 322.836 541.547 323.170 539.833 Q 323.504 538.120 323.702 537.053 Q 323.900 535.986 324.134 534.633 Q 324.369 533.279 324.740 530.987 Q 325.110 528.694 325.462 526.251 Q 325.813 523.809 325.984 522.475 Q 326.154 521.142 326.279 520.062 Q 326.405 518.982 326.627 516.860 Q 326.849 514.739 326.912 514.096 Q 326.974 513.452 327.335 508.568 Q 327.697 503.684 327.806 501.615 Q 327.916 499.546 328.001 497.646 Q 328.086 495.746 328.152 493.861 Q 328.218 491.977 328.279 490.032 Q 328.340 488.087 328.355 487.423 Q 328.370 486.758 328.382 486.214 Q 328.394 485.670 328.408 485.169 Q 328.422 484.667 328.439 484.022 Q 328.456 483.376 328.460 483.243 Q 328.465 483.109 328.503 481.232 "></path>
    <path id="STROKE_CAA82A3C-EE0E-42FC-86FA-8A8CD707678C" opacity="1.000" fill="none" stroke="#c48455" stroke-width="16.500" stroke-opacity="1.000" stroke-linecap="round" stroke-linejoin="round" d="M 345.745 551.978 Q 345.843 551.760 345.992 551.453 Q 346.142 551.145 346.671 549.977 Q 347.200 548.808 347.476 548.205 Q 347.751 547.603 348.494 545.896 Q 349.236 544.189 349.354 543.920 Q 349.472 543.651 350.439 541.330 Q 351.407 539.010 351.914 537.696 Q 352.422 536.383 352.940 534.969 Q 353.458 533.555 353.798 532.568 Q 354.137 531.581 354.303 531.093 Q 354.469 530.606 355.022 528.856 Q 355.576 527.106 355.826 526.263 Q 356.076 525.420 356.505 523.809 Q 356.935 522.198 357.223 520.994 Q 357.511 519.790 357.674 519.068 Q 357.837 518.345 357.874 518.179 Q 357.911 518.014 358.224 516.480 Q 358.538 514.946 359.008 512.148 Q 359.478 509.350 359.748 507.383 Q 360.017 505.417 360.124 504.516 Q 360.230 503.614 360.466 501.411 Q 360.702 499.208 360.806 498.061 Q 360.909 496.913 360.978 496.072 Q 361.047 495.230 361.139 493.997 Q 361.230 492.763 361.319 491.399 Q 361.407 490.034 361.489 488.758 Q 361.570 487.482 361.615 486.632 Q 361.659 485.781 361.708 484.879 Q 361.756 483.976 361.870 481.902 L 361.934 480.921 "></path>
    <path id="STROKE_7773DEBE-E164-4D94-B80C-C5A7694CDE27" opacity="1.000" fill="none" stroke="#c48455" stroke-width="16.500" stroke-opacity="1.000" stroke-linecap="round" stroke-linejoin="round" d="M 265.358 498.925 Q 265.858 499.034 267.658 499.452 Q 269.458 499.869 270.429 500.095 Q 271.400 500.320 272.297 500.520 Q 273.195 500.720 273.652 500.818 Q 274.110 500.917 276.311 501.382 Q 278.513 501.846 280.847 502.303 Q 283.181 502.759 284.399 502.979 Q 285.618 503.200 287.286 503.483 Q 288.955 503.766 290.145 503.953 Q 291.335 504.140 292.402 504.295 Q 293.468 504.450 296.175 504.796 Q 298.882 505.143 301.982 505.460 Q 305.081 505.777 308.176 506.008 Q 311.271 506.239 312.821 506.324 Q 314.371 506.409 315.774 506.464 Q 317.176 506.519 319.903 506.567 Q 322.631 506.615 326.159 506.577 Q 329.688 506.540 331.457 506.481 Q 333.225 506.422 339.322 505.986 Q 345.420 505.549 348.691 505.188 Q 351.963 504.827 353.979 504.567 Q 355.995 504.307 358.119 503.996 Q 360.243 503.685 361.769 503.438 Q 363.295 503.191 364.486 502.991 Q 365.677 502.791 366.576 502.635 Q 367.475 502.479 370.443 501.916 Q 373.411 501.353 374.849 501.063 Q 376.287 500.773 378.271 500.365 Q 380.254 499.957 381.789 499.629 Q 383.325 499.301 383.719 499.216 Q 384.114 499.131 385.827 498.761 L 388.031 498.307 "></path>
    <path id="STROKE_14B4CB5B-9F78-454F-8179-8989AC523B65" opacity="1.000" fill="none" stroke="#c48455" stroke-width="16.500" stroke-opacity="1.000" stroke-linecap="round" stroke-linejoin="round" d="M 272.619 527.594 L 273.461 527.644 Q 273.695 527.661 274.889 527.758 Q 276.083 527.854 277.198 527.958 Q 278.314 528.061 279.869 528.206 Q 281.425 528.352 283.528 528.536 Q 285.632 528.721 286.724 528.818 Q 287.815 528.916 288.352 528.965 Q 288.889 529.015 290.919 529.209 Q 292.948 529.404 296.321 529.714 Q 299.694 530.023 301.503 530.190 Q 303.312 530.357 305.935 530.585 Q 308.558 530.814 309.892 530.925 Q 311.226 531.036 312.925 531.169 Q 314.624 531.302 315.786 531.384 Q 316.948 531.467 319.974 531.647 Q 323.001 531.826 325.544 531.922 Q 328.088 532.018 329.470 532.041 Q 330.852 532.065 331.670 532.072 Q 332.488 532.080 341.734 531.503 Q 350.980 530.926 352.271 530.737 Q 353.563 530.548 354.430 530.400 Q 355.297 530.252 356.782 529.959 Q 358.267 529.667 359.594 529.373 Q 360.921 529.078 362.349 528.721 Q 363.777 528.363 365.600 527.848 Q 367.423 527.334 369.289 526.757 Q 371.155 526.181 372.693 525.666 Q 374.231 525.152 374.903 524.917 Q 375.574 524.683 376.661 524.308 Q 377.749 523.933 378.143 523.780 Q 378.537 523.628 379.195 523.372 Q 379.854 523.115 380.291 522.947 Q 380.729 522.779 381.142 522.607 Q 381.555 522.436 381.852 522.321 Q 382.149 522.206 383.579 521.664 "></path>
    <path id="STROKE_2EADA1FD-7555-49ED-9AF4-85C651283067" opacity="1.000" fill="none" stroke="#000000" stroke-width="3.750" stroke-opacity="1.000" stroke-linecap="round" stroke-linejoin="round" d="M 302.800 483.632 Q 303.082 483.626 303.414 483.621 Q 303.746 483.616 304.473 483.609 Q 305.201 483.602 305.298 483.601 Q 305.396 483.600 306.005 483.597 Q 306.615 483.593 307.000 483.589 Q 307.386 483.585 307.972 483.584 Q 308.558 483.582 309.051 483.582 Q 309.543 483.583 310.310 483.585 Q 311.077 483.588 311.643 483.593 Q 312.208 483.599 312.653 483.606 Q 313.097 483.613 313.422 483.617 Q 313.747 483.622 314.316 483.631 Q 314.885 483.640 315.328 483.651 Q 315.771 483.662 316.175 483.672 Q 316.580 483.681 317.137 483.695 Q 317.694 483.709 317.765 483.710 Q 317.835 483.712 318.488 483.732 Q 319.140 483.752 319.457 483.761 Q 319.774 483.771 320.157 483.783 "></path>
    <path id="STROKE_D05BD5BD-2FF7-4319-B533-37F9D3F60ED4" opacity="1.000" fill="none" stroke="#000000" stroke-width="3.750" stroke-opacity="1.000" stroke-linecap="round" stroke-linejoin="round" d="M 320.251 484.210 Q 320.243 484.455 320.208 485.825 Q 320.172 487.195 320.157 487.812 Q 320.142 488.430 320.139 488.489 Q 320.137 488.549 320.120 489.210 Q 320.102 489.871 320.076 490.926 Q 320.049 491.981 320.007 493.618 Q 319.965 495.256 319.933 496.434 L 319.920 496.780 "></path>
    <path id="STROKE_7D28BA53-0BDD-4EED-8C33-39907B08FAE4" opacity="1.000" fill="none" stroke="#000000" stroke-width="3.750" stroke-opacity="1.000" stroke-linecap="round" stroke-linejoin="round" d="M 303.256 484.286 Q 303.243 484.560 303.239 484.604 Q 303.236 484.647 303.225 485.259 Q 303.213 485.871 303.205 486.497 Q 303.196 487.124 303.192 487.536 Q 303.189 487.949 303.184 488.601 Q 303.179 489.254 303.174 489.779 Q 303.170 490.305 303.167 490.656 Q 303.165 491.008 303.165 491.362 Q 303.166 491.716 303.169 492.045 Q 303.172 492.374 303.174 492.626 Q 303.176 492.878 303.184 493.505 Q 303.193 494.132 303.196 494.190 Q 303.199 494.248 303.203 494.603 Q 303.208 494.959 303.209 495.774 "></path>
    <path id="STROKE_2F88FB97-C0DD-4989-B221-C6B5B1E6391C" opacity="1.000" fill="none" stroke="#000000" stroke-width="3.750" stroke-opacity="1.000" stroke-linecap="round" stroke-linejoin="round" d="M 303.932 497.151 Q 304.087 497.150 304.259 497.159 Q 304.432 497.167 304.798 497.175 Q 305.164 497.183 305.436 497.188 Q 305.707 497.193 306.083 497.199 Q 306.458 497.205 306.741 497.210 Q 307.025 497.214 307.441 497.221 Q 307.857 497.227 308.194 497.230 Q 308.530 497.232 308.904 497.237 Q 309.277 497.242 310.172 497.246 Q 311.068 497.249 311.443 497.247 Q 311.819 497.246 312.428 497.244 Q 313.037 497.242 313.687 497.235 Q 314.337 497.228 314.702 497.222 Q 315.067 497.217 315.502 497.208 Q 315.937 497.199 316.586 497.185 Q 317.236 497.172 317.597 497.162 Q 317.958 497.153 318.867 497.132 "></path>
    <path id="STROKE_53AF7BDE-E6FD-4F04-B292-C5E9100CB499" opacity="1.000" fill="none" stroke="#000000" stroke-width="3.750" stroke-opacity="1.000" stroke-linecap="round" stroke-linejoin="round" d="M 303.598 513.947 Q 303.644 514.222 303.702 514.561 Q 303.759 514.901 303.873 515.536 Q 303.987 516.172 304.159 517.146 Q 304.331 518.119 304.389 518.435 Q 304.447 518.751 304.449 518.756 Q 304.450 518.762 304.509 519.076 Q 304.567 519.391 304.630 519.735 Q 304.693 520.079 304.742 520.366 Q 304.791 520.652 304.853 520.991 "></path>
    <path id="STROKE_B67B3CE8-FAD5-4118-B4A9-0525EB73350C" opacity="1.000" fill="none" stroke="#000000" stroke-width="3.750" stroke-opacity="1.000" stroke-linecap="round" stroke-linejoin="round" d="M 303.569 513.993 Q 303.860 514.017 304.196 514.052 Q 304.532 514.087 304.859 514.118 Q 305.187 514.149 305.847 514.210 Q 306.506 514.270 306.846 514.301 Q 307.185 514.331 307.294 514.342 Q 307.403 514.353 307.764 514.392 Q 308.125 514.431 308.667 514.481 Q 309.209 514.531 309.978 514.600 Q 310.748 514.669 310.992 514.690 Q 311.235 514.711 311.550 514.737 Q 311.864 514.764 312.284 514.799 Q 312.704 514.833 312.963 514.855 Q 313.223 514.878 313.578 514.909 Q 313.934 514.940 314.411 514.979 Q 314.888 515.018 315.384 515.057 Q 315.881 515.096 315.973 515.102 Q 316.065 515.108 316.349 515.131 Q 316.633 515.155 317.253 515.205 Q 317.873 515.255 318.362 515.295 "></path>
    <path id="STROKE_05B2DCE3-B05C-4458-A9C6-9C90612492F3" opacity="1.000" fill="none" stroke="#000000" stroke-width="3.750" stroke-opacity="1.000" stroke-linecap="round" stroke-linejoin="round" d="M 318.259 515.228 Q 318.217 515.530 318.172 515.862 Q 318.128 516.194 318.078 516.520 Q 318.028 516.845 317.974 517.229 Q 317.920 517.613 317.874 517.942 Q 317.828 518.270 317.779 518.604 Q 317.730 518.938 317.596 519.891 Q 317.462 520.845 317.454 520.891 Q 317.446 520.938 317.445 520.941 Q 317.443 520.945 317.318 521.875 "></path>
    <path id="STROKE_F9A9E5E9-14E8-447C-B1CD-0CB6552CB31D" opacity="1.000" fill="none" stroke="#000000" stroke-width="3.750" stroke-opacity="1.000" stroke-linecap="round" stroke-linejoin="round" d="M 305.309 521.219 Q 305.508 521.238 305.865 521.280 Q 306.222 521.323 306.603 521.364 Q 306.984 521.404 307.310 521.435 Q 307.635 521.465 307.643 521.467 Q 307.650 521.468 308.270 521.526 Q 308.891 521.583 309.571 521.640 Q 310.251 521.696 310.856 521.747 Q 311.461 521.798 311.868 521.826 Q 312.276 521.855 312.610 521.878 Q 312.945 521.902 313.190 521.921 Q 313.435 521.941 314.062 521.984 Q 314.689 522.027 315.025 522.051 Q 315.362 522.076 316.387 522.150 "></path>
    <path id="STROKE_5A98F013-20D3-416B-87F3-08018B68C060" opacity="1.000" fill="none" stroke="#000000" stroke-width="3.750" stroke-opacity="1.000" stroke-linecap="round" stroke-linejoin="round" d="M 306.532 539.249 Q 306.586 539.460 306.687 539.799 Q 306.787 540.139 306.844 540.350 Q 306.901 540.561 306.978 540.833 Q 307.054 541.105 307.179 541.512 Q 307.303 541.918 307.385 542.186 Q 307.468 542.455 307.608 542.970 Q 307.748 543.485 307.827 543.778 Q 307.905 544.071 307.959 544.271 Q 308.013 544.470 308.084 544.737 Q 308.156 545.005 308.297 545.551 Q 308.438 546.098 308.496 546.329 Q 308.554 546.561 308.558 546.576 Q 308.563 546.591 308.684 547.097 Q 308.777 547.424 308.851 547.673 Q 308.925 547.922 308.935 547.958 Q 308.945 547.993 309.090 548.495 L 309.165 548.792 Q 309.171 548.836 309.215 549.060 Q 309.260 549.284 309.267 549.339 Q 309.273 549.393 309.313 549.570 Q 309.353 549.747 309.357 549.775 Q 309.360 549.803 309.409 550.006 "></path>
    <path id="STROKE_03634FE1-94D2-406B-BD20-843B549A366E" opacity="1.000" fill="none" stroke="#000000" stroke-width="3.750" stroke-opacity="1.000" stroke-linecap="round" stroke-linejoin="round" d="M 310.740 550.167 Q 310.835 549.940 310.857 549.891 Q 310.879 549.844 311.124 549.304 Q 311.369 548.764 311.541 548.397 Q 311.714 548.030 311.725 548.003 Q 311.737 547.976 311.987 547.424 Q 312.236 546.873 312.513 546.253 Q 312.789 545.633 312.911 545.364 Q 313.033 545.094 313.203 544.711 Q 313.372 544.328 313.501 544.034 Q 313.631 543.740 313.752 543.462 Q 313.874 543.183 313.996 542.906 Q 314.119 542.630 314.160 542.535 Q 314.202 542.441 314.330 542.149 Q 314.457 541.857 314.587 541.561 Q 314.717 541.266 315.068 540.436 "></path>
    <path id="STROKE_67E7845B-A5C2-4B04-B4B2-0CA3E3DCEF2B" opacity="1.000" fill="none" stroke="#000000" stroke-width="3.750" stroke-opacity="1.000" stroke-linecap="round" stroke-linejoin="round" d="M 307.672 539.534 L 307.945 539.554 Q 307.989 539.551 308.333 539.594 Q 308.676 539.637 309.271 539.700 Q 309.866 539.763 310.226 539.799 Q 310.586 539.836 310.920 539.868 Q 311.253 539.899 311.868 539.960 Q 312.483 540.021 312.802 540.054 Q 313.121 540.086 313.182 540.091 Q 313.243 540.096 313.835 540.163 Q 314.427 540.230 314.784 540.255 "></path>
    <path id="STROKE_190115CC-83D9-4388-AAB5-7DC3D06674A7" opacity="1.000" fill="none" stroke="#000000" stroke-width="3.750" stroke-opacity="1.000" stroke-linecap="round" stroke-linejoin="round" d="M 336.611 483.013 Q 336.612 483.202 336.613 483.358 Q 336.614 483.515 336.615 484.158 Q 336.616 484.800 336.617 485.865 Q 336.618 486.930 336.618 487.862 Q 336.618 488.794 336.619 488.908 Q 336.619 489.021 336.619 489.343 Q 336.619 489.666 336.618 490.339 Q 336.617 491.013 336.617 491.359 Q 336.617 491.706 336.616 492.274 Q 336.615 492.842 336.612 494.633 Q 336.609 496.424 336.611 496.752 "></path>
    <path id="STROKE_3CF86691-9561-42BB-9F03-42E410488C29" opacity="1.000" fill="none" stroke="#000000" stroke-width="3.750" stroke-opacity="1.000" stroke-linecap="round" stroke-linejoin="round" d="M 337.523 482.862 L 337.903 482.843 Q 338.051 482.833 338.574 482.807 Q 339.097 482.781 339.439 482.765 Q 339.781 482.750 340.138 482.732 Q 340.496 482.713 340.649 482.704 Q 340.802 482.695 341.138 482.678 Q 341.475 482.660 342.096 482.628 Q 342.717 482.596 343.061 482.576 Q 343.406 482.557 344.068 482.523 Q 344.730 482.489 345.213 482.464 Q 345.696 482.439 346.185 482.413 Q 346.674 482.388 347.214 482.360 Q 347.754 482.333 348.285 482.306 Q 348.815 482.280 349.460 482.246 Q 350.105 482.212 350.238 482.206 Q 350.372 482.200 350.684 482.185 Q 350.995 482.170 351.604 482.140 Q 352.212 482.111 352.276 482.108 Q 352.339 482.106 352.675 482.092 "></path>
    <path id="STROKE_4B1DCE93-6422-4758-8F29-3AD4F3209985" opacity="1.000" fill="none" stroke="#000000" stroke-width="3.750" stroke-opacity="1.000" stroke-linecap="round" stroke-linejoin="round" d="M 352.657 482.035 Q 352.632 483.072 352.601 484.172 Q 352.570 485.272 352.536 486.201 Q 352.503 487.131 352.492 487.428 Q 352.482 487.726 352.468 488.070 Q 352.455 488.414 352.452 488.469 Q 352.450 488.524 352.427 489.073 Q 352.403 489.623 352.398 489.740 Q 352.392 489.856 352.353 490.729 Q 352.313 491.601 352.295 491.940 Q 352.277 492.279 352.249 492.758 Q 352.221 493.238 352.187 493.883 Q 352.153 494.528 352.144 494.710 Q 352.135 494.892 352.105 495.338 "></path>
    <path id="STROKE_1F7AE34E-9A4B-4E6C-8AA2-AF778463ADB6" opacity="1.000" fill="none" stroke="#000000" stroke-width="3.750" stroke-opacity="1.000" stroke-linecap="round" stroke-linejoin="round" d="M 336.669 497.759 Q 337.046 497.726 337.723 497.671 Q 338.399 497.617 338.785 497.584 Q 339.171 497.552 339.519 497.524 Q 339.868 497.496 340.164 497.470 Q 340.460 497.443 341.158 497.378 Q 341.855 497.312 342.146 497.285 Q 342.437 497.258 342.808 497.226 Q 343.179 497.194 343.887 497.129 Q 344.594 497.063 345.028 497.022 Q 345.462 496.981 346.018 496.924 Q 346.575 496.868 347.044 496.815 Q 347.513 496.762 347.908 496.716 Q 348.303 496.670 348.631 496.634 Q 348.959 496.598 349.150 496.579 Q 349.341 496.561 350.072 496.477 Q 350.804 496.393 351.074 496.367 Q 351.344 496.340 351.859 496.277 "></path>
    <path id="STROKE_CBF48056-4B78-4F6D-8691-94C113C83E67" opacity="1.000" fill="none" stroke="#000000" stroke-width="3.750" stroke-opacity="1.000" stroke-linecap="round" stroke-linejoin="round" d="M 334.713 515.370 Q 335.680 515.315 336.064 515.294 Q 336.449 515.274 337.217 515.231 Q 337.985 515.189 338.540 515.159 Q 339.094 515.129 339.918 515.084 Q 340.742 515.040 341.358 515.007 Q 341.973 514.975 342.743 514.934 Q 343.514 514.893 343.845 514.874 Q 344.176 514.855 344.235 514.851 Q 344.294 514.847 344.856 514.814 Q 345.417 514.782 346.176 514.739 Q 346.936 514.697 347.022 514.691 Q 347.108 514.686 348.111 514.632 Q 349.113 514.579 349.497 514.559 Q 349.882 514.538 350.113 514.527 "></path>
    <path id="STROKE_ED818218-5A5A-44DE-99FF-1923EF7D50EA" opacity="1.000" fill="none" stroke="#000000" stroke-width="3.750" stroke-opacity="1.000" stroke-linecap="round" stroke-linejoin="round" d="M 350.113 514.611 Q 350.066 514.862 349.949 515.496 Q 349.833 516.130 349.825 516.201 Q 349.817 516.272 349.700 516.919 Q 349.582 517.566 349.467 518.139 Q 349.352 518.712 349.345 518.763 Q 349.338 518.814 349.226 519.418 Q 349.114 520.022 349.103 520.082 Q 349.092 520.141 348.812 521.647 "></path>
    <path id="STROKE_25B54CB1-A983-448B-A9F5-B8FD4F667D8C" opacity="1.000" fill="none" stroke="#000000" stroke-width="3.750" stroke-opacity="1.000" stroke-linecap="round" stroke-linejoin="round" d="M 336.014 523.555 Q 336.301 523.546 336.339 523.544 Q 336.377 523.541 336.730 523.528 Q 336.802 523.530 337.476 523.514 Q 338.151 523.498 338.674 523.486 Q 339.197 523.473 339.596 523.460 Q 339.995 523.448 340.271 523.441 Q 340.546 523.435 341.060 523.423 Q 341.574 523.411 341.887 523.403 Q 342.200 523.395 342.579 523.387 Q 342.958 523.380 343.518 523.366 Q 344.077 523.351 344.398 523.344 Q 344.719 523.337 345.596 523.317 Q 346.473 523.296 346.778 523.290 Q 347.083 523.285 347.510 523.270 "></path>
    <path id="STROKE_81C9C010-3498-4E9F-B751-32AB0B5562F8" opacity="1.000" fill="none" stroke="#000000" stroke-width="3.750" stroke-opacity="1.000" stroke-linecap="round" stroke-linejoin="round" d="M 334.751 516.254 Q 334.764 516.513 334.810 517.168 Q 334.856 517.823 334.901 518.443 Q 334.946 519.063 334.948 519.114 Q 334.949 519.164 334.974 519.478 Q 334.999 519.791 335.022 520.121 Q 335.045 520.451 335.173 522.317 L 335.195 522.634 "></path>
    <path id="STROKE_E5733993-9BC0-4C2A-BAAD-4EDD062D6032" opacity="1.000" fill="none" stroke="#000000" stroke-width="3.750" stroke-opacity="1.000" stroke-linecap="round" stroke-linejoin="round" d="M 331.180 540.047 Q 331.116 540.327 331.111 540.357 Q 331.106 540.387 330.904 541.343 Q 330.702 542.298 330.682 542.380 Q 330.661 542.462 330.606 542.730 Q 330.550 542.998 330.484 543.335 Q 330.417 543.673 330.349 544.014 Q 330.281 544.356 330.265 544.442 Q 330.248 544.529 330.195 544.787 Q 330.143 545.046 330.084 545.343 Q 330.024 545.641 330.004 545.750 Q 329.983 545.859 329.854 546.520 Q 329.725 547.180 329.668 547.462 Q 329.611 547.745 329.525 548.143 Q 329.439 548.541 329.387 548.801 Q 329.335 549.060 329.261 549.412 Q 329.188 549.763 329.121 550.102 "></path>
    <path id="STROKE_C820E0F1-4C6A-4FEC-9F9B-083DA762C246" opacity="1.000" fill="none" stroke="#000000" stroke-width="3.750" stroke-opacity="1.000" stroke-linecap="round" stroke-linejoin="round" d="M 331.171 540.265 Q 332.208 540.218 332.573 540.199 Q 332.938 540.180 333.563 540.151 Q 334.188 540.122 334.524 540.104 Q 334.860 540.086 334.971 540.077 Q 335.082 540.067 335.691 540.037 Q 336.301 540.008 336.628 539.995 Q 336.954 539.982 337.274 539.964 Q 337.594 539.947 337.985 539.926 Q 338.376 539.904 338.691 539.889 Q 339.006 539.873 339.445 539.850 Q 339.885 539.826 340.518 539.794 Q 341.151 539.762 341.464 539.747 Q 341.776 539.732 342.165 539.715 "></path>
    <path id="STROKE_7EA13D6C-D309-41C9-8761-0270D7D68DC4" opacity="1.000" fill="none" stroke="#000000" stroke-width="3.750" stroke-opacity="1.000" stroke-linecap="round" stroke-linejoin="round" d="M 341.834 539.744 Q 341.741 539.956 341.606 540.260 Q 341.470 540.563 341.311 540.925 Q 341.151 541.288 341.010 541.612 Q 340.869 541.937 340.765 542.176 Q 340.661 542.415 340.505 542.773 Q 340.348 543.130 340.091 543.710 Q 339.834 544.291 339.442 545.189 Q 339.051 546.088 338.910 546.417 Q 338.769 546.747 338.653 547.018 Q 338.537 547.290 338.395 547.629 Q 338.253 547.967 337.865 548.876 "></path>
    <path id="STROKE_D9BF2B0C-63B5-423B-9649-D0F935982B2E" opacity="1.000" fill="none" stroke="#000000" stroke-width="3.750" stroke-opacity="1.000" stroke-linecap="round" stroke-linejoin="round" d="M 330.165 550.348 Q 330.424 550.313 330.762 550.262 Q 331.100 550.211 331.409 550.165 Q 331.719 550.118 332.044 550.062 Q 332.369 550.006 332.700 549.955 Q 333.031 549.905 333.327 549.861 Q 333.623 549.817 333.946 549.763 Q 334.268 549.709 334.587 549.658 Q 334.907 549.607 335.204 549.562 Q 335.501 549.518 335.817 549.464 Q 336.133 549.410 336.173 549.403 Q 336.212 549.396 336.515 549.351 Q 336.818 549.306 336.843 549.301 Q 336.868 549.296 337.722 549.171 "></path>
    <path id="STROKE_0F8845B7-9DBE-47F4-92DC-C40099A93E84" opacity="1.000" fill="none" stroke="#000000" stroke-width="3.750" stroke-opacity="1.000" stroke-linecap="round" stroke-linejoin="round" d="M 366.829 511.885 Q 366.835 512.098 366.832 512.413 Q 366.828 512.727 366.820 513.055 Q 366.812 513.383 366.797 513.947 Q 366.783 514.511 366.773 514.817 Q 366.764 515.123 366.748 515.688 Q 366.732 516.253 366.723 516.810 Q 366.725 516.818 366.714 517.148 Q 366.703 517.479 366.708 518.248 "></path>
    <path id="STROKE_2938EB63-3352-4D02-A468-4911558C9216" opacity="1.000" fill="none" stroke="#000000" stroke-width="3.750" stroke-opacity="1.000" stroke-linecap="round" stroke-linejoin="round" d="M 366.310 511.517 L 366.551 511.494 Q 366.651 511.486 367.491 511.438 Q 368.332 511.390 369.118 511.341 Q 369.903 511.293 370.303 511.267 Q 370.702 511.240 371.026 511.220 Q 371.351 511.199 372.580 511.107 Q 373.809 511.014 374.138 510.980 Q 374.466 510.946 374.671 510.920 Q 374.876 510.895 375.081 510.880 Q 375.285 510.865 375.557 510.837 Q 375.828 510.808 376.013 510.786 Q 376.197 510.764 376.463 510.722 Q 376.728 510.680 376.868 510.653 Q 377.008 510.625 377.139 510.593 Q 377.220 510.559 377.288 510.535 Q 377.355 510.511 377.434 510.474 Q 377.513 510.438 377.591 510.406 Q 377.669 510.373 377.711 510.352 Q 377.752 510.331 377.803 510.309 Q 377.853 510.288 377.953 510.242 Q 378.053 510.195 378.197 510.118 Q 378.341 510.041 378.382 510.016 Q 378.422 509.992 378.516 509.937 Q 378.610 509.882 378.661 509.854 Q 378.713 509.826 378.850 509.745 Q 378.987 509.664 379.033 509.640 Q 379.079 509.615 379.169 509.570 Q 379.196 509.557 379.421 509.437 "></path>
    <path id="STROKE_BD95A978-64A0-45A5-A47A-12F181BA5E9B" opacity="1.000" fill="none" stroke="#000000" stroke-width="3.750" stroke-opacity="1.000" stroke-linecap="round" stroke-linejoin="round" d="M 376.308 515.256 L 376.445 514.960 Q 376.462 514.929 376.579 514.695 Q 376.696 514.461 376.856 514.158 Q 377.016 513.856 377.036 513.824 Q 377.057 513.791 377.175 513.542 Q 377.294 513.293 377.456 512.959 Q 377.618 512.626 377.766 512.333 Q 377.914 512.040 378.042 511.781 Q 378.170 511.523 378.185 511.484 Q 378.201 511.446 378.340 511.166 Q 378.480 510.887 378.492 510.861 Q 378.505 510.836 378.657 510.554 Q 378.809 510.272 378.945 510.000 Q 379.080 509.729 379.204 509.456 "></path>
    <path id="STROKE_09C6708D-9C5F-4577-B041-FC4339E326A1" opacity="1.000" fill="none" stroke="#000000" stroke-width="3.750" stroke-opacity="1.000" stroke-linecap="round" stroke-linejoin="round" d="M 367.640 518.950 L 367.891 518.853 Q 367.929 518.839 368.190 518.751 Q 368.451 518.664 369.038 518.464 Q 369.626 518.265 369.960 518.153 Q 370.295 518.041 370.854 517.848 Q 371.413 517.656 371.689 517.564 Q 371.965 517.472 372.030 517.448 Q 372.095 517.425 372.339 517.341 Q 372.583 517.256 372.916 517.146 Q 373.250 517.035 373.547 516.940 Q 373.844 516.845 374.109 516.755 Q 374.373 516.666 375.000 516.460 L 375.767 516.197 "></path>
    <path id="STROKE_373768B6-4A48-46FF-8394-B8B82E896F01" opacity="1.000" fill="none" stroke="#000000" stroke-width="3.750" stroke-opacity="1.000" stroke-linecap="round" stroke-linejoin="round" d="M 360.870 535.842 Q 360.789 536.062 360.685 536.356 Q 360.582 536.651 360.391 537.197 Q 360.201 537.743 360.190 537.769 Q 360.180 537.795 360.084 538.081 Q 359.989 538.366 359.803 538.905 Q 359.618 539.444 359.515 539.733 Q 359.411 540.021 359.408 540.025 Q 359.405 540.029 359.141 540.778 "></path>
    <path id="STROKE_8455F95A-9451-49DE-AEBC-203B659DFB59" opacity="1.000" fill="none" stroke="#000000" stroke-width="3.750" stroke-opacity="1.000" stroke-linecap="round" stroke-linejoin="round" d="M 361.183 536.534 Q 361.453 536.431 361.785 536.340 Q 362.118 536.249 362.438 536.163 Q 362.758 536.076 363.091 535.964 Q 363.425 535.852 363.735 535.752 Q 364.045 535.653 364.360 535.573 Q 364.674 535.493 365.311 535.297 L 365.578 535.214 "></path>
    <path id="STROKE_AA4F3C46-B089-4033-9BEC-1FB401125213" opacity="1.000" fill="none" stroke="#000000" stroke-width="3.750" stroke-opacity="1.000" stroke-linecap="round" stroke-linejoin="round" d="M 360.291 540.787 Q 360.495 540.600 360.779 540.353 Q 361.064 540.105 361.810 539.438 Q 362.557 538.772 362.829 538.533 Q 363.102 538.295 363.572 537.877 Q 364.042 537.458 365.341 536.296 "></path>
    <path id="STROKE_7DD522DA-DC7D-4A15-9FD8-90A572DB1C3C" opacity="1.000" fill="none" stroke="#000000" stroke-width="3.750" stroke-opacity="1.000" stroke-linecap="round" stroke-linejoin="round" d="M 369.945 481.514 Q 369.930 481.930 369.921 482.232 Q 369.913 482.535 369.908 482.602 Q 369.904 482.669 369.892 482.959 Q 369.879 483.249 369.869 483.559 Q 369.858 483.870 369.854 483.961 Q 369.849 484.053 369.834 484.644 Q 369.819 485.235 369.808 485.576 Q 369.797 485.918 369.788 486.240 Q 369.779 486.563 369.765 487.016 Q 369.752 487.469 369.730 488.511 Q 369.708 489.554 369.687 490.483 Q 369.667 491.412 369.667 491.495 Q 369.667 491.577 369.659 491.857 Q 369.650 492.137 369.652 492.507 "></path>
    <path id="STROKE_464871A0-D59F-46C4-AD7F-06F9D7066E07" opacity="1.000" fill="none" stroke="#000000" stroke-width="3.750" stroke-opacity="1.000" stroke-linecap="round" stroke-linejoin="round" d="M 369.661 481.361 Q 369.887 481.325 370.162 481.284 Q 370.436 481.243 370.853 481.183 Q 371.269 481.123 371.799 481.052 Q 372.329 480.981 372.723 480.925 Q 373.116 480.869 373.677 480.793 Q 374.237 480.717 374.550 480.677 Q 374.862 480.637 375.257 480.587 Q 375.651 480.537 376.141 480.478 Q 376.631 480.418 377.035 480.375 Q 377.439 480.331 378.312 480.234 Q 379.184 480.137 379.696 480.082 Q 380.207 480.028 380.508 479.999 Q 380.809 479.970 380.855 479.967 Q 380.900 479.963 381.396 479.915 Q 381.501 479.915 382.336 479.834 "></path>
    <path id="STROKE_7B32333F-1416-4C73-8318-A05169A44D7C" opacity="1.000" fill="none" stroke="#000000" stroke-width="3.750" stroke-opacity="1.000" stroke-linecap="round" stroke-linejoin="round" d="M 381.824 480.194 Q 381.811 480.418 381.802 480.776 Q 381.793 481.133 381.781 481.425 Q 381.769 481.717 381.755 482.023 Q 381.742 482.329 381.724 482.747 Q 381.706 483.166 381.688 483.504 Q 381.671 483.843 381.650 484.162 Q 381.630 484.480 381.610 484.798 Q 381.590 485.116 381.571 485.435 Q 381.552 485.753 381.530 486.067 Q 381.507 486.381 381.470 486.939 Q 381.433 487.497 381.414 487.809 Q 381.394 488.120 381.387 488.215 Q 381.381 488.311 381.344 488.886 Q 381.307 489.461 381.301 489.499 Q 381.295 489.537 381.236 490.457 "></path>
    <path id="STROKE_ECB0CFFD-9D4C-4A31-A522-C8F6D833325F" opacity="1.000" fill="none" stroke="#000000" stroke-width="3.750" stroke-opacity="1.000" stroke-linecap="round" stroke-linejoin="round" d="M 368.816 494.104 Q 369.300 494.005 369.478 493.976 Q 369.655 493.946 370.053 493.872 Q 370.451 493.798 370.724 493.750 Q 370.997 493.702 371.379 493.633 Q 371.761 493.565 372.110 493.505 Q 372.460 493.445 373.010 493.349 Q 373.561 493.252 374.235 493.136 Q 374.909 493.020 375.572 492.909 Q 376.236 492.798 376.314 492.785 Q 376.392 492.772 376.982 492.677 Q 377.572 492.581 378.132 492.496 Q 378.692 492.410 379.055 492.354 Q 379.418 492.298 379.736 492.250 Q 380.054 492.202 380.175 492.189 L 381.017 492.061 "></path>
    <path id="STROKE_9998F651-F1F2-470E-A0D2-BAE84BEF8554" opacity="1.000" fill="none" stroke="#000000" stroke-width="3.750" stroke-opacity="1.000" stroke-linecap="round" stroke-linejoin="round" d="M 268.851 481.479 Q 268.900 481.757 268.972 482.135 Q 269.044 482.512 269.179 483.217 Q 269.315 483.922 269.381 484.251 Q 269.447 484.580 269.580 485.262 Q 269.712 485.945 269.844 486.628 Q 269.976 487.312 270.050 487.684 Q 270.124 488.056 270.248 488.705 Q 270.371 489.353 270.506 490.079 L 270.571 490.452 "></path>
    <path id="STROKE_314CF3C2-4154-4635-A0DA-5E0A440B72ED" opacity="1.000" fill="none" stroke="#000000" stroke-width="3.750" stroke-opacity="1.000" stroke-linecap="round" stroke-linejoin="round" d="M 269.046 480.818 Q 269.133 480.825 269.787 480.879 Q 270.441 480.933 270.817 480.964 Q 271.193 480.994 271.478 481.017 Q 271.762 481.039 271.994 481.059 Q 272.226 481.079 272.720 481.124 Q 273.214 481.170 273.519 481.197 Q 273.823 481.224 274.230 481.259 Q 274.637 481.294 275.020 481.329 Q 275.402 481.365 275.780 481.403 Q 276.158 481.441 276.622 481.487 Q 277.085 481.532 277.394 481.564 Q 277.702 481.596 278.174 481.641 Q 278.645 481.686 279.057 481.729 Q 279.468 481.772 279.751 481.803 Q 280.033 481.834 280.218 481.854 Q 280.403 481.875 280.704 481.912 Q 281.005 481.948 281.428 481.994 Q 281.850 482.039 282.137 482.068 Q 282.424 482.097 282.480 482.102 Q 282.536 482.108 282.575 482.114 Q 282.615 482.121 282.863 482.159 Q 283.111 482.196 283.390 482.237 Q 283.669 482.278 283.858 482.305 Q 284.047 482.332 284.160 482.348 Q 284.274 482.364 284.364 482.376 Q 284.455 482.388 284.802 482.431 Q 285.148 482.475 285.198 482.474 Q 285.248 482.473 285.452 482.470 Q 285.656 482.468 285.775 482.463 Q 285.893 482.459 286.120 482.451 Q 286.347 482.444 286.392 482.441 Q 286.437 482.438 286.573 482.432 Q 286.709 482.425 286.856 482.418 Q 287.002 482.411 287.066 482.410 Q 287.129 482.408 287.376 482.415 "></path>
    <path id="STROKE_1C21CA09-8C00-4C23-A7D3-8C68F79CD186" opacity="1.000" fill="none" stroke="#000000" stroke-width="3.750" stroke-opacity="1.000" stroke-linecap="round" stroke-linejoin="round" d="M 285.718 494.439 Q 285.742 494.167 285.775 493.998 Q 285.878 492.589 285.959 491.529 Q 286.040 490.470 286.114 489.410 Q 286.187 488.349 286.252 487.362 Q 286.316 486.376 286.355 485.741 Q 286.393 485.107 286.395 485.010 Q 286.397 484.914 286.502 483.260 "></path>
    <path id="STROKE_FEA18878-0054-4221-ABA2-51A865C4584B" opacity="1.000" fill="none" stroke="#000000" stroke-width="3.750" stroke-opacity="1.000" stroke-linecap="round" stroke-linejoin="round" d="M 270.387 490.727 L 270.703 490.800 Q 270.790 490.817 271.456 490.975 Q 272.121 491.133 272.658 491.257 Q 273.196 491.381 273.562 491.465 Q 273.927 491.549 274.280 491.631 Q 274.633 491.713 275.311 491.866 Q 275.990 492.019 276.344 492.100 Q 276.699 492.181 276.981 492.245 Q 277.264 492.310 278.050 492.483 Q 278.836 492.657 280.075 492.921 Q 281.314 493.186 282.078 493.348 Q 282.842 493.511 283.247 493.601 Q 283.651 493.692 284.547 493.880 "></path>
    <path id="STROKE_AAC115FE-EF52-4DC5-A15A-BACB2C196887" opacity="1.000" fill="none" stroke="#000000" stroke-width="3.750" stroke-opacity="1.000" stroke-linecap="round" stroke-linejoin="round" d="M 274.852 509.372 L 274.926 509.621 Q 274.939 509.684 275.141 510.325 Q 275.344 510.965 275.841 512.486 Q 276.337 514.007 276.443 514.326 Q 276.549 514.646 276.660 514.987 Q 276.771 515.328 276.874 515.635 Q 276.976 515.942 277.183 516.569 Q 277.390 517.195 277.488 517.500 Q 277.586 517.804 277.616 517.890 Q 277.647 517.976 277.655 517.995 Q 277.663 518.015 277.731 518.247 Q 277.800 518.479 277.904 518.812 "></path>
    <path id="STROKE_F36139E7-521B-43C2-9C30-08B89EAA39A6" opacity="1.000" fill="none" stroke="#000000" stroke-width="3.750" stroke-opacity="1.000" stroke-linecap="round" stroke-linejoin="round" d="M 275.322 509.261 L 275.674 509.320 Q 275.778 509.338 276.060 509.399 Q 276.342 509.460 276.972 509.584 Q 277.602 509.707 278.047 509.790 Q 278.492 509.873 279.099 509.995 Q 279.705 510.118 280.063 510.195 Q 280.421 510.273 280.840 510.371 Q 281.260 510.468 281.845 510.603 Q 282.430 510.738 282.812 510.821 Q 283.194 510.904 283.477 510.963 Q 283.759 511.021 283.811 511.034 Q 283.864 511.047 284.546 511.197 Q 285.229 511.346 285.342 511.373 Q 285.455 511.399 286.007 511.523 Q 286.559 511.647 287.029 511.762 "></path>
    <path id="STROKE_2CD70A4D-50F3-4245-87E9-1D84A06DA4F1" opacity="1.000" fill="none" stroke="#000000" stroke-width="3.750" stroke-opacity="1.000" stroke-linecap="round" stroke-linejoin="round" d="M 287.335 519.942 Q 287.337 519.664 287.340 519.331 Q 287.344 518.998 287.342 518.643 Q 287.341 518.287 287.351 517.580 Q 287.361 516.874 287.372 516.172 Q 287.383 515.471 287.390 515.099 Q 287.397 514.727 287.397 514.061 Q 287.398 513.395 287.397 513.047 Q 287.396 512.699 287.405 512.423 "></path>
    <path id="STROKE_E3A9BBAF-6135-4C2D-BBB1-FF0D430AC030" opacity="1.000" fill="none" stroke="#000000" stroke-width="3.750" stroke-opacity="1.000" stroke-linecap="round" stroke-linejoin="round" d="M 278.455 518.568 Q 278.749 518.628 279.054 518.682 Q 279.359 518.735 280.040 518.846 Q 280.720 518.957 281.498 519.072 Q 282.275 519.187 283.200 519.310 Q 284.126 519.433 285.169 519.560 Q 286.213 519.687 286.869 519.776 Q 287.525 519.865 287.905 519.920 "></path>
    <path id="STROKE_31B083C2-6271-4CA5-B36F-5992F4516398" opacity="1.000" fill="none" stroke="#000000" stroke-width="3.750" stroke-opacity="1.000" stroke-linecap="round" stroke-linejoin="round" d="M 285.534 536.034 Q 285.686 536.281 285.881 536.586 Q 286.076 536.890 286.276 537.197 Q 286.477 537.504 286.820 538.041 Q 287.163 538.578 287.382 538.927 Q 287.602 539.276 287.943 539.807 Q 288.285 540.339 288.473 540.627 Q 288.661 540.915 288.676 540.937 Q 288.690 540.958 288.872 541.240 Q 289.054 541.523 289.237 541.812 "></path>
    <path id="STROKE_A978EADB-C117-4E18-82E1-AA624BF57D35" opacity="1.000" fill="none" stroke="#000000" stroke-width="3.750" stroke-opacity="1.000" stroke-linecap="round" stroke-linejoin="round" d="M 285.829 536.288 L 286.079 536.334 Q 286.111 536.325 286.415 536.379 Q 286.719 536.433 287.024 536.485 Q 287.328 536.536 287.640 536.572 Q 287.951 536.608 288.256 536.648 Q 288.560 536.689 289.451 536.829 "></path>
    <path id="STROKE_72DD5D39-8EF5-431A-8664-1F2AE51563DF" opacity="1.000" fill="none" stroke="#000000" stroke-width="3.750" stroke-opacity="1.000" stroke-linecap="round" stroke-linejoin="round" d="M 290.093 540.591 Q 290.070 540.277 289.894 538.838 Q 289.719 537.400 289.695 537.093 "></path>
    <path id="STROKE_FEB088D1-DED4-4268-BF9B-3AEBA889C49A" opacity="1.000" fill="none" stroke="#000000" stroke-width="3.750" stroke-opacity="1.000" stroke-linecap="round" stroke-linejoin="round" d="M 342.955 465.384 Q 342.715 465.368 342.613 465.366 Q 342.510 465.364 341.802 465.331 Q 341.093 465.299 340.464 465.268 Q 339.835 465.237 339.397 465.218 Q 338.959 465.198 338.616 465.183 Q 338.273 465.168 337.840 465.148 Q 337.406 465.128 336.700 465.097 Q 335.995 465.066 335.334 465.041 Q 334.674 465.015 334.138 464.993 Q 333.602 464.972 333.332 464.960 Q 333.063 464.949 332.099 464.914 Q 331.135 464.879 330.329 464.854 Q 329.523 464.830 328.564 464.807 Q 327.606 464.784 326.785 464.767 Q 325.964 464.751 325.227 464.738 Q 324.490 464.724 323.835 464.716 Q 323.181 464.708 322.762 464.704 Q 322.343 464.701 321.783 464.699 Q 321.223 464.696 320.454 464.694 Q 319.685 464.692 318.614 464.691 Q 317.543 464.691 317.035 464.692 Q 316.528 464.693 315.878 464.693 Q 315.227 464.693 314.129 464.700 Q 313.030 464.707 312.789 464.708 Q 312.547 464.710 312.328 464.712 Q 312.109 464.713 311.760 464.714 Q 311.410 464.715 310.941 464.716 Q 310.472 464.717 310.250 464.720 Q 310.028 464.722 309.514 464.723 Q 309.000 464.725 308.786 464.728 "></path>
    <path id="STROKE_7BB2FCA2-BF50-4554-8E55-08C8152ADA78" opacity="1.000" fill="none" stroke="#000000" stroke-width="3.750" stroke-opacity="1.000" stroke-linecap="round" stroke-linejoin="round" d="M 394.298 461.562 Q 394.154 461.506 392.968 461.045 Q 391.783 460.585 390.419 460.073 Q 389.056 459.562 388.550 459.374 Q 388.044 459.185 387.416 458.951 Q 386.788 458.717 386.340 458.554 Q 385.892 458.392 385.823 458.368 Q 385.755 458.343 385.009 458.073 Q 384.264 457.803 383.716 457.608 Q 383.167 457.412 382.600 457.214 Q 382.033 457.015 381.592 456.865 Q 381.150 456.716 380.857 456.619 Q 380.563 456.522 379.777 456.259 Q 378.991 455.995 378.573 455.857 Q 378.155 455.719 375.814 455.015 Q 373.473 454.311 372.295 453.986 Q 371.117 453.662 369.974 453.366 Q 368.832 453.071 368.737 453.046 Q 368.643 453.022 368.037 452.878 Q 367.432 452.735 367.192 452.681 Q 366.952 452.627 366.472 452.521 Q 365.992 452.414 365.428 452.290 Q 364.865 452.167 364.332 452.056 Q 363.799 451.945 363.105 451.806 Q 362.412 451.667 362.235 451.631 Q 362.058 451.595 361.537 451.499 Q 361.016 451.403 360.007 451.234 Q 358.998 451.064 358.473 450.980 Q 357.949 450.896 357.509 450.831 Q 357.068 450.765 356.097 450.628 Q 355.127 450.491 354.047 450.354 Q 352.966 450.218 352.133 450.125 Q 351.300 450.032 351.050 450.005 Q 350.800 449.978 349.796 449.882 Q 348.793 449.787 348.470 449.759 Q 348.148 449.731 347.595 449.686 Q 347.042 449.641 346.525 449.598 Q 346.007 449.555 345.032 449.490 Q 344.056 449.424 342.578 449.341 Q 341.099 449.259 340.455 449.232 Q 339.812 449.204 339.286 449.185 Q 338.759 449.165 337.807 449.137 Q 336.854 449.109 336.394 449.100 Q 335.933 449.092 335.371 449.082 Q 334.808 449.072 333.808 449.060 Q 332.809 449.048 332.283 449.043 Q 331.757 449.039 331.390 449.039 Q 331.023 449.039 330.609 449.042 Q 330.195 449.046 330.149 449.046 Q 330.103 449.047 329.450 449.050 Q 328.797 449.054 328.002 449.063 Q 327.208 449.073 326.763 449.081 Q 326.317 449.089 325.478 449.103 Q 324.638 449.118 324.244 449.126 Q 323.850 449.133 323.014 449.151 Q 322.178 449.169 320.466 449.224 Q 318.753 449.279 317.372 449.337 Q 315.991 449.395 315.263 449.429 Q 314.534 449.462 313.827 449.497 Q 313.119 449.531 312.730 449.552 Q 312.342 449.573 310.520 449.688 Q 308.699 449.803 307.444 449.902 Q 306.188 450.001 304.358 450.160 Q 302.527 450.319 301.629 450.405 Q 300.730 450.491 299.501 450.625 Q 298.272 450.759 297.650 450.834 Q 297.029 450.908 296.435 450.980 Q 295.840 451.052 295.124 451.145 Q 294.407 451.238 293.611 451.349 Q 292.816 451.460 291.632 451.632 Q 290.447 451.804 289.552 451.948 Q 288.658 452.091 288.617 452.098 Q 288.577 452.105 286.993 452.381 Q 285.409 452.657 284.440 452.840 Q 283.470 453.023 282.185 453.288 Q 280.900 453.552 279.686 453.820 Q 278.472 454.087 277.709 454.267 Q 276.945 454.447 276.332 454.599 Q 275.719 454.752 275.654 454.769 Q 275.588 454.786 274.475 455.077 Q 273.362 455.367 272.637 455.564 Q 271.913 455.761 271.625 455.842 Q 271.338 455.923 270.371 456.201 Q 269.405 456.480 268.187 456.852 Q 266.968 457.223 265.643 457.653 Q 264.318 458.082 262.839 458.597 Q 261.359 459.112 260.820 459.307 Q 260.281 459.502 259.924 459.636 Q 259.568 459.769 258.946 459.997 Q 258.325 460.226 257.904 460.382 Q 257.484 460.537 256.900 460.758 Q 256.316 460.978 256.037 461.085 Q 255.757 461.192 254.521 461.687 Q 253.284 462.182 252.791 462.383 Q 252.298 462.584 252.098 462.667 Q 251.898 462.749 251.271 463.023 L 249.966 463.554 "></path>
    <path id="STROKE_DD6E1BDF-9B5A-47DB-BC8D-7908B3E27047" opacity="1.000" fill="none" stroke="#000000" stroke-width="3.750" stroke-opacity="1.000" stroke-linecap="round" stroke-linejoin="round" d="M 249.802 464.981 L 249.854 465.459 Q 250.000 466.716 250.188 468.326 Q 250.375 469.937 250.641 472.059 Q 250.908 474.180 251.184 476.196 Q 251.461 478.212 251.606 479.199 Q 251.751 480.187 251.884 481.039 Q 252.018 481.890 252.239 483.215 Q 252.461 484.540 252.543 485.017 Q 252.626 485.494 252.750 486.183 Q 252.875 486.872 253.241 488.833 Q 253.606 490.795 253.817 491.873 Q 254.027 492.951 254.205 493.803 Q 254.383 494.655 254.600 495.638 Q 254.817 496.621 254.961 497.260 Q 255.105 497.898 255.481 499.478 Q 255.857 501.059 256.019 501.714 Q 256.181 502.369 256.412 503.272 Q 256.644 504.176 256.932 505.255 Q 257.221 506.335 257.546 507.514 Q 257.872 508.693 258.298 510.151 Q 258.724 511.609 259.066 512.721 Q 259.408 513.832 259.569 514.347 Q 259.730 514.861 260.182 516.225 Q 260.635 517.589 261.091 518.901 Q 261.546 520.212 261.777 520.848 Q 262.008 521.484 262.277 522.206 Q 262.546 522.927 262.884 523.798 Q 263.221 524.670 263.688 525.829 Q 264.155 526.988 264.433 527.648 Q 264.711 528.307 264.871 528.665 Q 265.030 529.023 265.615 530.315 Q 266.200 531.608 266.556 532.357 Q 266.913 533.107 267.454 534.166 Q 267.994 535.224 268.305 535.808 Q 268.615 536.392 269.023 537.128 Q 269.431 537.864 270.032 538.893 Q 270.632 539.923 271.099 540.673 Q 271.567 541.423 272.102 542.248 Q 272.638 543.073 273.090 543.728 Q 273.542 544.382 273.978 544.977 Q 274.414 545.571 275.048 546.398 Q 275.682 547.224 276.067 547.700 Q 276.451 548.176 276.737 548.512 Q 277.023 548.849 277.438 549.312 Q 277.853 549.776 278.163 550.114 Q 278.473 550.453 278.712 550.709 Q 278.952 550.966 279.236 551.258 Q 279.519 551.550 279.807 551.839 Q 280.095 552.129 280.747 552.757 Q 281.399 553.386 281.615 553.583 Q 281.831 553.779 282.290 554.186 Q 282.749 554.594 283.268 555.026 Q 283.787 555.459 284.208 555.792 Q 284.628 556.126 285.073 556.460 Q 285.518 556.795 285.800 557.003 Q 286.081 557.211 286.600 557.576 Q 287.120 557.940 287.473 558.180 Q 287.827 558.421 288.084 558.586 Q 288.342 558.752 288.639 558.935 Q 288.937 559.118 289.600 559.508 Q 290.263 559.898 291.178 560.400 Q 292.093 560.901 292.817 561.269 Q 293.542 561.637 294.044 561.873 Q 294.546 562.109 295.147 562.368 Q 295.748 562.627 296.437 562.901 Q 297.125 563.175 297.465 563.300 Q 297.804 563.426 298.189 563.567 Q 298.574 563.708 298.711 563.755 Q 298.848 563.802 300.463 564.313 Q 302.079 564.824 302.305 564.887 Q 302.532 564.949 304.811 565.468 Q 307.091 565.986 307.524 566.065 Q 307.958 566.144 309.460 566.379 Q 310.962 566.613 311.553 566.686 Q 312.143 566.758 312.890 566.840 Q 313.637 566.921 314.266 566.973 Q 314.895 567.024 315.611 567.076 Q 316.327 567.128 316.886 567.158 Q 317.446 567.187 317.934 567.205 Q 318.422 567.223 318.773 567.234 Q 319.124 567.245 320.588 567.249 Q 322.052 567.254 322.543 567.242 Q 323.033 567.230 323.828 567.197 Q 324.624 567.164 325.325 567.121 Q 326.026 567.077 326.729 567.023 Q 327.431 566.969 327.976 566.919 Q 328.522 566.869 328.967 566.826 Q 329.413 566.784 330.770 566.620 Q 332.127 566.456 333.601 566.237 Q 335.075 566.019 335.409 565.961 Q 335.742 565.903 336.469 565.770 Q 337.196 565.638 337.750 565.528 Q 338.305 565.419 339.169 565.232 Q 340.034 565.045 340.825 564.856 Q 341.616 564.668 342.180 564.525 Q 342.743 564.382 343.408 564.202 Q 344.073 564.022 344.340 563.947 Q 344.606 563.872 344.851 563.798 Q 345.096 563.723 345.959 563.469 Q 346.821 563.214 347.551 562.984 Q 348.281 562.754 348.441 562.700 Q 348.601 562.646 349.248 562.435 Q 349.894 562.223 350.483 562.025 Q 351.072 561.827 351.386 561.720 Q 351.699 561.613 351.831 561.565 Q 351.962 561.517 352.979 561.150 Q 353.995 560.783 355.242 560.294 Q 356.489 559.804 357.189 559.511 Q 357.888 559.219 358.701 558.875 Q 359.514 558.531 360.091 558.281 Q 360.668 558.030 361.137 557.825 Q 361.606 557.619 362.054 557.418 Q 362.502 557.217 362.922 557.024 Q 363.342 556.831 363.615 556.705 Q 363.888 556.579 364.736 556.181 Q 365.585 555.784 366.265 555.456 Q 366.945 555.128 367.489 554.862 Q 368.033 554.597 368.862 554.196 Q 369.692 553.796 370.746 553.275 Q 371.801 552.753 372.169 552.571 Q 372.536 552.389 374.443 551.451 "></path>
    <circle id="STROKE_03827FBD-A047-45DA-8007-00F1FAF12867" opacity="1.000" fill="#000000" stroke="#000000" stroke-width="0.1" stroke-opacity="1.000" fill-opacity="1.000" cx="373.064" cy="553.176" r="1.875"></circle>
    <path id="STROKE_14D57DF4-9879-4F4F-86B6-D7A66C9DA93D" opacity="1.000" fill="none" stroke="#000000" stroke-width="3.750" stroke-opacity="1.000" stroke-linecap="round" stroke-linejoin="round" d="M 372.384 552.529 Q 372.996 551.726 373.371 551.241 Q 373.747 550.756 374.305 550.004 Q 374.863 549.252 374.965 549.116 Q 375.068 548.981 375.321 548.654 Q 375.575 548.328 376.001 547.764 Q 376.427 547.199 376.636 546.917 Q 376.846 546.634 377.084 546.317 Q 377.322 546.000 377.443 545.833 Q 377.565 545.666 378.243 544.716 Q 378.921 543.767 379.333 543.183 Q 379.745 542.598 380.450 541.570 Q 381.155 540.542 381.708 539.717 Q 382.261 538.892 382.594 538.376 Q 382.928 537.861 383.473 536.994 Q 384.018 536.127 384.499 535.344 Q 384.979 534.561 385.209 534.174 Q 385.439 533.788 385.873 533.038 Q 386.306 532.287 386.674 531.625 Q 387.043 530.963 387.768 529.597 Q 388.493 528.232 389.000 527.219 Q 389.507 526.205 389.692 525.822 Q 389.878 525.439 390.295 524.544 Q 390.713 523.648 391.047 522.892 Q 391.381 522.136 391.588 521.655 Q 391.795 521.174 392.016 520.656 Q 392.236 520.138 392.290 520.011 Q 392.344 519.883 392.585 519.295 Q 392.825 518.707 393.149 517.868 Q 393.474 517.030 393.709 516.390 Q 393.944 515.751 394.103 515.301 Q 394.262 514.850 394.354 514.592 Q 394.445 514.333 394.609 513.848 Q 394.773 513.363 395.016 512.603 Q 395.258 511.843 395.548 510.901 Q 395.838 509.959 395.981 509.461 Q 396.125 508.963 396.227 508.602 Q 396.330 508.241 396.450 507.796 Q 396.571 507.351 396.747 506.684 Q 396.924 506.017 397.030 505.585 Q 397.137 505.152 397.190 504.934 Q 397.243 504.716 397.525 503.442 Q 397.807 502.169 397.853 501.952 Q 397.899 501.736 398.029 501.066 Q 398.160 500.396 398.313 499.572 Q 398.465 498.748 398.538 498.316 Q 398.610 497.884 398.693 497.363 Q 398.776 496.843 398.850 496.332 Q 398.923 495.821 398.990 495.301 Q 399.057 494.781 399.136 494.073 Q 399.215 493.364 399.248 493.064 Q 399.282 492.763 399.312 492.467 Q 399.342 492.172 399.384 491.661 Q 399.426 491.150 399.462 490.660 Q 399.497 490.170 399.542 489.432 Q 399.586 488.694 399.606 488.297 Q 399.626 487.901 399.654 487.294 Q 399.683 486.686 399.689 486.485 Q 399.696 486.284 399.708 485.435 Q 399.721 484.586 399.718 484.107 Q 399.715 483.628 399.708 483.434 Q 399.702 483.241 399.685 482.628 Q 399.667 482.015 399.640 481.390 Q 399.612 480.766 399.585 480.327 Q 399.558 479.888 399.523 479.369 Q 399.489 478.850 399.423 478.060 Q 399.358 477.270 399.255 476.318 Q 399.153 475.365 399.085 474.795 Q 399.017 474.225 399.011 474.172 Q 399.004 474.118 398.900 473.360 Q 398.796 472.603 398.660 471.813 Q 398.524 471.023 398.461 470.696 Q 398.397 470.368 398.339 470.081 Q 398.281 469.794 398.148 469.122 Q 398.016 468.449 397.955 468.164 Q 397.893 467.878 397.854 467.685 Q 397.815 467.491 397.746 467.180 Q 397.677 466.869 397.626 466.650 Q 397.575 466.431 397.323 465.400 Q 397.166 464.764 396.869 463.320 "></path>
    <path id="ERASER_20C0DCE4-4662-44FF-B53D-C6CCFB305C98" opacity="0.960" fill="none" stroke="#ffffff" stroke-width="0.644" stroke-opacity="1.000" stroke-linecap="round" stroke-linejoin="round" d="M 382.455 553.991 Q 382.374 554.036 381.943 554.297 Q 381.891 554.326 381.493 554.619 Q 381.095 554.911 380.624 555.249 Q 380.154 555.587 379.718 555.883 Q 379.283 556.178 379.024 556.351 Q 378.764 556.523 378.608 556.626 Q 378.451 556.728 378.053 556.856 Q 377.654 556.983 377.258 557.007 Q 377.197 557.016 376.988 557.086 Q 376.780 557.157 376.505 557.226 Q 376.230 557.295 376.038 557.309 Q 375.846 557.324 375.729 557.299 Q 375.611 557.274 375.525 557.218 Q 375.515 557.197 375.579 556.892 Q 375.643 556.588 375.762 556.296 Q 375.881 556.003 376.042 555.653 Q 376.203 555.303 376.231 555.239 Q 376.258 555.175 376.304 555.036 Q 376.301 555.011 376.106 554.951 Q 375.911 554.892 375.571 555.008 Q 375.568 555.006 375.552 554.991 Q 375.536 554.977 375.511 554.953 Q 375.486 554.929 375.460 554.903 Q 375.434 554.877 375.422 554.854 Q 375.409 554.831 375.407 554.814 Q 375.408 554.818 375.298 554.859 Q 375.188 554.900 375.059 554.937 Q 374.931 554.975 374.769 554.983 Q 374.784 554.883 374.796 554.818 Q 374.808 554.753 374.818 554.714 Q 374.828 554.674 374.852 554.599 Q 374.876 554.523 374.900 554.468 Q 374.924 554.413 374.940 554.374 Q 374.957 554.335 374.948 554.319 Q 374.939 554.302 374.902 554.271 Q 374.864 554.239 374.787 554.209 Q 374.792 554.210 374.844 554.125 Q 374.895 554.040 374.917 553.996 Q 374.939 553.952 374.957 553.925 Q 374.975 553.898 374.995 553.872 Q 374.974 553.873 374.904 553.908 Q 374.834 553.943 374.767 553.981 Q 374.699 554.019 374.608 554.074 Q 374.517 554.128 374.428 554.183 Q 374.339 554.238 374.263 554.203 Q 374.188 554.169 374.109 554.115 Q 374.094 554.106 373.965 554.143 Q 373.836 554.181 373.759 554.191 Q 373.682 554.201 373.643 554.202 Q 373.604 554.203 373.586 554.206 Q 373.588 554.207 373.651 554.093 Q 373.715 553.978 373.776 553.889 Q 373.837 553.800 373.924 553.701 Q 374.010 553.601 374.072 553.509 Q 374.133 553.416 374.122 553.412 Q 374.111 553.407 374.066 553.410 Q 374.021 553.412 373.989 553.422 Q 373.957 553.432 373.940 553.442 Q 373.924 553.451 373.910 553.463 Q 373.896 553.474 373.883 553.486 Q 373.871 553.499 373.830 553.496 Q 373.823 553.481 373.848 553.444 Q 373.872 553.408 373.896 553.386 Q 373.921 553.364 373.934 553.354 Q 373.948 553.344 373.985 553.315 Q 374.023 553.286 374.097 553.227 Q 374.074 553.240 374.046 553.270 Q 374.018 553.299 374.002 553.321 Q 373.987 553.344 373.983 553.355 Q 373.979 553.366 373.980 553.377 Q 373.980 553.387 374.015 553.379 Q 374.049 553.371 374.131 553.310 Q 374.212 553.249 374.272 553.196 Q 374.332 553.144 374.662 552.872 Q 374.992 552.601 375.830 551.939 Q 376.669 551.277 377.183 550.875 Q 377.698 550.473 377.980 550.253 Q 378.262 550.033 378.520 549.827 Q 378.778 549.622 379.083 549.395 Q 379.345 549.209 379.447 549.141 Q 379.549 549.073 379.966 548.797 "></path>
    <path id="ERASER_37088075-8CF7-490C-BE69-612053F831A7" opacity="0.960" fill="none" stroke="#ffffff" stroke-width="0.605" stroke-opacity="1.000" stroke-linecap="round" stroke-linejoin="round" d="M 369.666 558.005 Q 370.175 557.448 370.500 557.108 Q 370.825 556.768 370.935 556.653 Q 371.044 556.538 371.831 555.709 Q 372.619 554.879 373.285 554.229 Q 373.951 553.578 374.453 553.091 Q 374.954 552.605 375.042 552.526 Q 375.130 552.447 375.492 552.078 Q 375.854 551.709 376.186 551.373 Q 376.518 551.037 376.569 550.992 Q 376.620 550.946 376.701 550.863 Q 376.781 550.779 377.161 550.408 Q 377.541 550.036 378.084 549.458 Q 378.229 549.336 378.673 548.896 "></path>
    <path id="ERASER_F67C5128-9769-475E-8679-70BBDCA8AB23" opacity="0.960" fill="none" stroke="#ffffff" stroke-width="0.600" stroke-opacity="1.000" stroke-linecap="round" stroke-linejoin="round" d="M 372.384 557.838 Q 372.545 557.616 372.666 557.451 Q 372.787 557.286 373.055 556.924 Q 373.323 556.562 373.572 556.238 Q 373.821 555.915 374.136 555.498 Q 374.451 555.082 374.965 554.413 Q 375.480 553.743 375.582 553.618 Q 375.684 553.493 375.928 553.178 Q 376.173 552.864 377.780 550.837 L 378.490 549.924 "></path>
    <path id="ERASER_78ACBA04-DAF2-4178-92A0-89BA9E7D03E6" opacity="0.960" fill="none" stroke="#ffffff" stroke-width="0.602" stroke-opacity="1.000" stroke-linecap="round" stroke-linejoin="round" d="M 373.197 556.642 Q 373.418 556.307 373.436 556.274 Q 373.454 556.241 373.476 556.192 Q 373.497 556.142 374.038 555.414 Q 374.578 554.686 375.187 553.876 Q 375.797 553.066 376.128 552.640 Q 376.459 552.214 376.855 551.704 Q 377.250 551.193 377.574 550.781 Q 377.897 550.369 378.167 550.013 Q 378.436 549.658 378.755 549.195 "></path>
    <path id="ERASER_8B899E5D-2F0B-47FB-B8BF-019DDCFFCD6E" opacity="0.960" fill="none" stroke="#ffffff" stroke-width="0.601" stroke-opacity="1.000" stroke-linecap="round" stroke-linejoin="round" d="M 372.103 556.461 L 372.422 556.135 Q 372.482 556.038 373.246 555.301 Q 374.009 554.565 375.171 553.511 Q 376.334 552.457 376.800 552.050 Q 377.266 551.643 377.946 551.004 Q 378.626 550.365 378.736 550.292 Q 378.846 550.219 379.103 549.960 "></path>
    <path id="ERASER_55D4EAF5-1E17-4CF8-8DC1-70C057B67183" opacity="0.960" fill="none" stroke="#ffffff" stroke-width="0.615" stroke-opacity="1.000" stroke-linecap="round" stroke-linejoin="round" d="M 372.119 557.058 Q 372.335 556.792 372.357 556.726 Q 372.379 556.660 372.647 556.360 Q 372.915 556.059 373.482 555.457 Q 374.049 554.854 374.346 554.518 Q 374.643 554.181 374.728 554.116 Q 374.814 554.052 375.086 553.746 Q 375.358 553.440 375.628 553.146 Q 375.898 552.852 376.150 552.547 "></path>
    <circle id="STROKE_B5AC529D-CE32-4761-9F1A-A2C6ED26BD34" opacity="1.000" fill="#000000" stroke="#000000" stroke-width="0.1" stroke-opacity="1.000" fill-opacity="1.000" cx="395.978" cy="567.430" r="0.250"></circle>
    <path id="STROKE_4D5E7212-C8C4-4FA9-91A0-125BA298C625" opacity="1.000" fill="none" stroke="#000000" stroke-width="0.500" stroke-opacity="1.000" stroke-linecap="round" stroke-linejoin="round" d="M 277.685 491.753 Q 277.976 491.804 278.086 491.822 Q 278.196 491.840 278.351 491.866 Q 278.506 491.892 278.970 491.980 Q 279.434 492.068 279.579 492.095 Q 279.725 492.121 280.249 492.208 Q 280.773 492.294 281.766 492.470 Q 282.759 492.646 283.436 492.770 Q 284.113 492.893 284.726 493.001 Q 285.338 493.108 285.766 493.179 Q 286.195 493.250 286.661 493.327 Q 287.127 493.404 287.476 493.471 Q 287.824 493.538 288.335 493.626 Q 288.846 493.714 289.402 493.811 Q 289.957 493.908 290.497 493.995 Q 291.036 494.081 291.974 494.236 Q 292.912 494.391 293.238 494.443 Q 293.564 494.495 294.009 494.571 Q 294.454 494.647 294.864 494.716 Q 295.274 494.785 295.542 494.822 Q 295.810 494.858 296.379 494.946 Q 296.948 495.034 297.351 495.099 Q 297.753 495.165 298.314 495.252 Q 298.874 495.339 299.124 495.374 Q 299.374 495.409 299.897 495.493 Q 300.420 495.576 301.097 495.677 Q 301.773 495.778 302.242 495.852 Q 302.710 495.925 303.311 496.016 Q 303.912 496.107 304.229 496.155 Q 304.546 496.203 305.505 496.364 "></path>
    <path id="STROKE_B7FDFD6C-5671-432B-824F-25037F33869B" opacity="1.000" fill="none" stroke="#000000" stroke-width="0.500" stroke-opacity="1.000" stroke-linecap="round" stroke-linejoin="round" d="M 286.013 511.756 Q 286.482 511.815 287.128 511.907 Q 287.774 511.998 288.304 512.071 Q 288.834 512.143 288.945 512.164 Q 289.056 512.184 289.134 512.196 Q 289.211 512.208 290.189 512.344 Q 291.166 512.480 291.286 512.495 Q 291.406 512.510 291.946 512.589 Q 292.485 512.669 292.628 512.694 Q 292.772 512.718 293.730 512.849 Q 294.687 512.979 294.743 512.984 Q 294.799 512.990 295.523 513.092 Q 296.246 513.195 296.815 513.274 Q 297.385 513.354 298.446 513.497 Q 299.508 513.640 300.158 513.725 Q 300.807 513.810 301.391 513.886 Q 301.974 513.962 302.078 513.979 Q 302.182 513.995 302.735 514.070 Q 303.288 514.146 303.839 514.216 Q 304.391 514.286 304.948 514.355 Q 305.504 514.424 305.692 514.450 Q 305.879 514.476 306.267 514.528 "></path>
    <path id="STROKE_BD822C9A-BF32-4C8A-A5F3-F6F789AAA6F3" opacity="1.000" fill="none" stroke="#000000" stroke-width="0.500" stroke-opacity="1.000" stroke-linecap="round" stroke-linejoin="round" d="M 318.642 497.175 L 319.136 497.172 Q 319.214 497.169 320.276 497.190 Q 321.338 497.212 321.961 497.223 Q 322.585 497.234 323.082 497.247 Q 323.579 497.260 324.671 497.300 Q 325.762 497.339 326.471 497.350 Q 327.179 497.361 327.742 497.367 Q 328.304 497.374 328.822 497.389 Q 329.339 497.404 329.807 497.417 Q 330.274 497.430 330.869 497.439 Q 331.463 497.449 332.054 497.451 Q 332.646 497.454 333.167 497.467 Q 333.688 497.479 333.797 497.483 Q 333.907 497.488 334.992 497.514 Q 336.077 497.540 336.633 497.542 Q 337.189 497.544 339.939 497.574 "></path>
    <path id="STROKE_A85B29BF-6CED-4966-B4E2-78211F6FEEF2" opacity="1.000" fill="none" stroke="#000000" stroke-width="0.500" stroke-opacity="1.000" stroke-linecap="round" stroke-linejoin="round" d="M 317.431 514.959 Q 318.081 514.960 318.162 514.969 Q 318.243 514.978 318.646 514.980 Q 319.049 514.983 319.224 514.991 Q 319.400 514.999 321.070 515.013 Q 322.741 515.027 323.356 515.039 Q 323.971 515.050 324.638 515.053 Q 325.304 515.056 325.851 515.056 Q 326.398 515.055 326.823 515.055 Q 327.248 515.056 327.507 515.061 Q 327.767 515.067 328.727 515.062 Q 329.688 515.058 330.201 515.051 Q 330.714 515.045 330.915 515.043 Q 331.117 515.042 331.522 515.038 Q 331.927 515.035 332.680 515.014 Q 333.434 514.992 334.632 514.954 Q 335.831 514.916 336.334 514.904 Q 336.838 514.892 338.015 514.849 Q 339.192 514.805 339.844 514.774 Q 340.496 514.744 342.115 514.677 "></path>
    <path id="STROKE_F06DDE5E-6AFB-470C-BA7C-162DAD76F2A9" opacity="1.000" fill="none" stroke="#000000" stroke-width="0.500" stroke-opacity="1.000" stroke-linecap="round" stroke-linejoin="round" d="M 348.763 498.104 Q 349.446 497.994 350.178 497.869 Q 350.909 497.744 351.422 497.656 Q 351.935 497.569 352.348 497.494 Q 352.760 497.420 353.602 497.279 Q 354.444 497.137 355.085 497.030 Q 355.726 496.923 356.787 496.739 Q 357.848 496.555 359.095 496.334 Q 360.343 496.113 360.985 495.997 Q 361.628 495.882 363.296 495.571 Q 364.964 495.260 365.819 495.094 Q 366.675 494.928 367.713 494.733 Q 368.750 494.538 369.499 494.391 Q 370.248 494.244 370.679 494.159 Q 371.111 494.074 371.317 494.028 Q 371.522 493.983 375.373 493.197 "></path>
    <path id="STROKE_D296AC96-8BE8-4AAF-A6A1-D1B0D351969B" opacity="1.000" fill="none" stroke="#000000" stroke-width="0.500" stroke-opacity="1.000" stroke-linecap="round" stroke-linejoin="round" d="M 347.388 514.959 Q 347.855 514.881 348.319 514.813 Q 348.783 514.745 348.916 514.729 Q 349.049 514.713 349.912 514.594 Q 350.775 514.476 351.903 514.313 Q 353.031 514.150 353.526 514.075 Q 354.021 514.000 354.472 513.932 Q 354.923 513.864 355.740 513.744 Q 356.556 513.625 357.097 513.541 Q 357.638 513.456 358.168 513.372 Q 358.697 513.288 359.962 513.085 Q 361.228 512.881 362.176 512.726 Q 363.125 512.570 363.982 512.420 Q 364.839 512.269 365.160 512.214 Q 365.482 512.159 365.734 512.114 Q 365.987 512.070 366.996 511.889 Q 368.004 511.709 368.537 511.611 Q 369.070 511.513 370.221 511.291 Q 371.372 511.069 373.389 510.678 Q 375.405 510.286 376.732 510.031 "></path>
    <path id="STROKE_5A7CA8E3-484E-4F80-9215-73C91812690D" opacity="1.000" fill="none" stroke="#000000" stroke-width="0.500" stroke-opacity="1.000" stroke-linecap="round" stroke-linejoin="round" d="M 287.638 483.210 Q 288.073 483.193 289.280 483.142 Q 290.486 483.091 292.384 483.035 Q 294.282 482.979 294.841 482.967 Q 295.400 482.955 296.112 482.938 Q 296.823 482.921 297.396 482.906 Q 297.970 482.891 299.220 482.853 Q 300.471 482.816 301.109 482.796 Q 301.747 482.776 302.380 482.749 Q 303.012 482.722 304.658 482.647 "></path>
    <path id="STROKE_3D98C903-13BC-4139-8313-6F1FD0B2D1EA" opacity="1.000" fill="none" stroke="#000000" stroke-width="0.500" stroke-opacity="1.000" stroke-linecap="round" stroke-linejoin="round" d="M 318.908 484.138 Q 319.475 484.048 321.768 483.751 Q 324.060 483.454 324.673 483.375 Q 325.285 483.297 325.374 483.288 Q 325.462 483.278 326.104 483.197 Q 326.745 483.116 327.375 483.027 Q 328.004 482.938 329.634 482.727 Q 331.263 482.517 331.948 482.426 Q 332.632 482.335 333.197 482.258 Q 333.762 482.181 334.406 482.099 Q 335.051 482.017 336.673 481.783 "></path>
    <path id="STROKE_F931C697-5F64-4E88-B470-A483D2F2C240" opacity="1.000" fill="none" stroke="#000000" stroke-width="0.500" stroke-opacity="1.000" stroke-linecap="round" stroke-linejoin="round" d="M 353.076 482.712 Q 353.501 482.662 354.124 482.591 Q 354.747 482.521 355.248 482.465 Q 355.748 482.409 356.410 482.333 Q 357.071 482.257 357.587 482.197 Q 358.103 482.136 358.726 482.061 Q 359.349 481.986 359.953 481.917 Q 360.557 481.847 361.078 481.784 Q 361.600 481.720 362.207 481.650 Q 362.814 481.581 363.425 481.510 Q 364.037 481.439 364.582 481.373 Q 365.127 481.306 365.626 481.249 Q 366.125 481.193 366.702 481.130 Q 367.278 481.067 367.466 481.046 Q 367.654 481.025 368.678 480.915 Q 369.702 480.804 370.314 480.737 "></path>
    <path id="STROKE_8B6B3716-6A4F-45DE-A162-0423CD485EBC" opacity="1.000" fill="none" stroke="#000000" stroke-width="0.500" stroke-opacity="1.000" stroke-linecap="round" stroke-linejoin="round" d="M 381.576 479.726 Q 382.083 479.642 383.794 479.421 Q 385.505 479.201 386.595 479.064 Q 387.686 478.928 387.825 478.913 Q 387.963 478.898 389.623 478.671 Q 391.283 478.444 391.924 478.356 Q 392.564 478.268 393.547 478.144 Q 394.529 478.020 394.641 478.008 Q 394.753 477.996 395.794 477.860 Q 396.835 477.725 397.396 477.640 Q 397.957 477.556 398.560 477.470 "></path>
    <path id="STROKE_A7CF7A08-2F97-4C79-B0C1-ABD7502D0B08" opacity="1.000" fill="none" stroke="#000000" stroke-width="0.500" stroke-opacity="1.000" stroke-linecap="round" stroke-linejoin="round" d="M 378.638 493.229 Q 379.150 493.136 379.892 493.009 Q 380.634 492.882 381.763 492.699 Q 382.891 492.516 383.515 492.412 Q 384.139 492.309 385.307 492.108 Q 386.475 491.908 387.061 491.810 Q 387.648 491.713 388.180 491.629 Q 388.713 491.545 389.876 491.355 Q 391.040 491.165 391.641 491.063 Q 392.242 490.960 392.661 490.888 Q 393.080 490.817 393.684 490.717 Q 394.287 490.616 394.960 490.510 Q 395.633 490.403 396.096 490.325 Q 396.559 490.247 398.412 489.927 "></path>
    <path id="STROKE_EEE1EE8D-25C8-4752-800D-20C7FCA01BC2" opacity="1.000" fill="none" stroke="#000000" stroke-width="0.500" stroke-opacity="1.000" stroke-linecap="round" stroke-linejoin="round" d="M 378.041 509.685 L 378.557 509.554 Q 379.586 509.289 380.201 509.143 Q 380.816 508.996 381.499 508.838 Q 382.182 508.680 382.779 508.531 Q 383.376 508.382 384.023 508.217 Q 384.671 508.051 385.122 507.942 Q 385.573 507.833 386.095 507.701 Q 386.618 507.570 387.282 507.401 Q 387.945 507.231 388.627 507.063 Q 389.308 506.894 389.789 506.764 Q 390.269 506.634 390.883 506.475 Q 391.497 506.316 392.651 506.027 Q 393.805 505.738 394.300 505.609 Q 394.795 505.480 394.872 505.453 Q 394.949 505.426 395.541 505.270 "></path>
    <path id="STROKE_4B0AD9B9-F1DD-4A0A-87E6-D4379E746ED3" opacity="1.000" fill="none" stroke="#000000" stroke-width="0.500" stroke-opacity="1.000" stroke-linecap="round" stroke-linejoin="round" d="M 283.709 535.130 Q 284.043 535.177 284.654 535.260 Q 285.265 535.344 285.990 535.448 Q 286.715 535.552 287.280 535.632 Q 287.845 535.713 288.403 535.790 Q 288.961 535.866 290.143 536.037 Q 291.325 536.207 291.834 536.287 Q 292.343 536.367 293.014 536.473 Q 293.684 536.580 294.392 536.686 Q 295.100 536.792 295.744 536.889 Q 296.388 536.987 297.366 537.145 Q 298.344 537.302 299.013 537.417 Q 299.682 537.531 300.274 537.633 Q 300.865 537.736 301.305 537.808 Q 301.745 537.880 302.481 538.003 Q 303.218 538.126 304.447 538.344 Q 305.677 538.563 307.162 538.812 "></path>
    <path id="STROKE_38B71662-2C84-4421-9E67-A0F49727E137" opacity="1.000" fill="none" stroke="#000000" stroke-width="0.500" stroke-opacity="1.000" stroke-linecap="round" stroke-linejoin="round" d="M 316.486 538.929 Q 316.931 538.943 318.116 538.974 Q 319.302 539.006 319.954 539.028 Q 320.606 539.049 320.673 539.053 Q 320.740 539.058 321.997 539.099 Q 323.255 539.141 324.902 539.173 Q 326.549 539.205 327.176 539.219 Q 327.802 539.232 329.074 539.270 Q 330.346 539.308 331.034 539.328 Q 331.723 539.349 332.238 539.361 Q 332.753 539.374 334.533 539.410 "></path>
    <path id="STROKE_16AC2533-4F48-4CB4-A19A-9FB4983F5CE7" opacity="1.000" fill="none" stroke="#000000" stroke-width="0.500" stroke-opacity="1.000" stroke-linecap="round" stroke-linejoin="round" d="M 342.576 539.858 L 342.989 539.764 Q 343.139 539.733 344.863 539.378 Q 346.587 539.024 348.253 538.672 Q 349.919 538.321 350.586 538.179 Q 351.253 538.038 351.817 537.917 Q 352.381 537.796 352.436 537.782 Q 352.491 537.768 353.045 537.648 Q 353.599 537.528 354.712 537.293 Q 355.826 537.058 355.951 537.033 Q 356.076 537.009 356.634 536.891 Q 357.193 536.774 357.809 536.642 Q 358.425 536.510 361.072 535.959 "></path>
    <path id="STROKE_52FEAA0E-37D6-480D-AFE8-AC5A996E07E9" opacity="1.000" fill="none" stroke="#000000" stroke-width="0.500" stroke-opacity="1.000" stroke-linecap="round" stroke-linejoin="round" d="M 366.283 534.318 L 366.677 534.216 Q 366.947 534.159 367.526 534.019 Q 368.104 533.879 368.615 533.747 Q 369.125 533.615 369.705 533.465 Q 370.286 533.315 371.207 533.076 Q 372.129 532.838 372.857 532.657 Q 373.585 532.476 374.640 532.216 Q 375.695 531.956 376.103 531.854 Q 376.510 531.751 377.020 531.615 Q 377.530 531.479 377.694 531.437 Q 377.859 531.395 378.415 531.246 Q 378.972 531.097 379.389 530.982 Q 379.807 530.866 380.991 530.556 Q 381.810 530.332 381.954 530.290 Q 382.098 530.249 382.821 530.062 L 383.482 529.888 "></path>
    <path id="STROKE_C0C4F01D-7CDB-458A-80B0-5F2E74E38076" opacity="1.000" fill="none" stroke="#000000" stroke-width="0.500" stroke-opacity="1.000" stroke-linecap="round" stroke-linejoin="round" d="M 383.017 529.921 Q 383.528 529.761 383.553 529.741 Q 383.577 529.721 384.129 529.524 Q 384.681 529.327 385.222 529.114 Q 385.763 528.902 385.803 528.899 Q 385.844 528.896 386.369 528.693 "></path>
    <path id="STROKE_4278F945-563D-4BE9-A46E-1CA1E953A66E" opacity="1.000" fill="none" stroke="#000000" stroke-width="0.500" stroke-opacity="1.000" stroke-linecap="round" stroke-linejoin="round" d="M 252.873 477.801 Q 253.281 477.895 253.342 477.921 Q 253.403 477.946 254.016 478.094 Q 254.629 478.242 255.619 478.483 Q 256.609 478.724 257.126 478.856 Q 257.644 478.988 259.348 479.388 Q 261.051 479.788 261.211 479.828 Q 261.370 479.868 261.916 479.997 Q 262.461 480.127 263.969 480.456 Q 265.477 480.786 266.062 480.914 Q 266.646 481.042 266.791 481.065 Q 266.936 481.088 267.465 481.206 Q 267.994 481.324 269.023 481.532 Q 270.052 481.740 270.171 481.758 Q 270.290 481.776 270.736 481.882 "></path>
    <path id="STROKE_AB490038-0707-45CD-9F18-E800EE73FFB9" opacity="1.000" fill="none" stroke="#000000" stroke-width="0.500" stroke-opacity="1.000" stroke-linecap="round" stroke-linejoin="round" d="M 254.630 490.294 L 255.060 490.339 Q 256.561 490.495 257.577 490.612 Q 258.593 490.729 259.184 490.799 Q 259.775 490.870 260.477 490.954 Q 261.179 491.038 262.823 491.248 Q 264.467 491.457 265.107 491.545 Q 265.746 491.633 266.799 491.785 Q 267.851 491.937 268.980 492.105 Q 270.109 492.272 271.039 492.411 Q 271.970 492.550 272.641 492.659 Q 273.312 492.769 273.747 492.831 Q 274.182 492.894 274.863 493.005 Q 275.544 493.117 275.621 493.133 Q 275.697 493.149 276.069 493.209 Q 276.441 493.270 277.072 493.379 "></path>
    <path id="STROKE_6C35AF87-898B-4749-9910-5FD00F2B0D69" opacity="1.000" fill="none" stroke="#000000" stroke-width="0.500" stroke-opacity="1.000" stroke-linecap="round" stroke-linejoin="round" d="M 258.095 509.369 Q 258.635 509.372 259.176 509.390 Q 259.716 509.407 260.190 509.419 Q 260.663 509.431 261.328 509.456 Q 261.992 509.480 262.515 509.496 Q 263.037 509.512 264.745 509.559 Q 266.452 509.606 267.068 509.617 Q 267.683 509.629 268.164 509.640 Q 268.646 509.652 268.734 509.656 Q 268.821 509.661 269.770 509.682 Q 270.719 509.703 271.397 509.721 Q 272.075 509.739 272.676 509.753 Q 273.277 509.767 273.304 509.768 Q 273.331 509.769 277.088 509.849 "></path>
    <path id="STROKE_6C53DA3D-71E1-4500-9D05-E6DF74EF9EE7" opacity="1.000" fill="none" stroke="#000000" stroke-width="0.500" stroke-opacity="1.000" stroke-linecap="round" stroke-linejoin="round" d="M 263.287 522.207 Q 263.749 522.166 264.940 522.055 Q 266.131 521.944 266.805 521.876 Q 267.478 521.807 268.592 521.703 Q 269.707 521.599 270.359 521.533 Q 271.011 521.468 271.595 521.414 Q 272.179 521.361 272.847 521.296 Q 273.516 521.232 274.138 521.170 Q 274.760 521.109 275.281 521.061 Q 275.802 521.013 277.682 520.830 Q 279.561 520.647 280.072 520.601 Q 280.582 520.555 281.287 520.499 "></path>
    <path id="STROKE_BC13FC74-FE54-4620-8A41-116CA88C9BBC" opacity="1.000" fill="none" stroke="#000000" stroke-width="0.500" stroke-opacity="1.000" stroke-linecap="round" stroke-linejoin="round" d="M 268.728 535.909 Q 269.302 535.936 269.892 535.973 Q 270.483 536.010 271.059 536.041 Q 271.636 536.073 272.239 536.099 Q 272.843 536.125 272.941 536.131 Q 273.039 536.138 274.152 536.183 Q 275.265 536.228 275.413 536.237 Q 275.560 536.246 276.190 536.278 Q 276.819 536.310 277.934 536.364 Q 279.049 536.418 279.614 536.444 Q 280.178 536.469 280.866 536.492 Q 281.553 536.515 282.245 536.544 Q 282.938 536.573 283.991 536.627 Q 285.044 536.680 285.830 536.720 "></path>
    <path id="STROKE_03BD9D7B-899E-4074-8A41-0221E13FC3C4" opacity="1.000" fill="none" stroke="#000000" stroke-width="0.500" stroke-opacity="1.000" stroke-linecap="round" stroke-linejoin="round" d="M 336.474 550.853 L 336.790 550.772 Q 337.194 550.674 337.665 550.557 Q 338.136 550.439 339.127 550.184 Q 340.119 549.929 340.860 549.741 Q 341.602 549.552 342.147 549.416 Q 342.693 549.280 343.463 549.083 Q 344.234 548.887 344.951 548.705 Q 345.668 548.524 346.533 548.299 Q 347.398 548.075 348.324 547.832 Q 349.249 547.590 349.795 547.448 Q 350.341 547.305 351.225 547.077 Q 352.110 546.849 352.957 546.629 Q 353.804 546.409 354.001 546.359 Q 354.197 546.309 354.687 546.181 Q 355.177 546.053 355.892 545.870 Q 356.607 545.686 357.170 545.539 Q 357.734 545.392 358.067 545.307 Q 358.400 545.222 358.738 545.133 Q 359.076 545.044 359.399 544.961 Q 359.722 544.879 360.329 544.728 Q 360.936 544.577 361.857 544.354 Q 362.777 544.131 363.171 544.037 Q 363.564 543.943 364.044 543.824 Q 364.525 543.706 364.780 543.648 Q 365.035 543.590 365.458 543.490 Q 365.880 543.390 367.379 543.046 Q 368.878 542.703 369.439 542.572 Q 370.001 542.441 370.260 542.380 Q 370.520 542.320 370.663 542.287 Q 370.805 542.255 371.409 542.121 Q 372.012 541.988 372.345 541.914 Q 372.678 541.839 373.027 541.759 Q 373.375 541.679 374.166 541.503 Q 374.956 541.326 375.767 541.147 Q 376.577 540.968 376.865 540.907 Q 377.152 540.845 377.995 540.656 Q 378.167 540.612 379.685 540.289 "></path>
    <path id="STROKE_B9CC0ED1-726C-4726-8DF7-DC017AB9E8FB" opacity="1.000" fill="none" stroke="#000000" stroke-width="0.500" stroke-opacity="1.000" stroke-linecap="round" stroke-linejoin="round" d="M 328.994 551.386 L 328.602 551.352 Q 326.807 551.241 326.470 551.220 Q 326.134 551.200 325.884 551.187 Q 325.634 551.175 325.307 551.155 Q 324.979 551.135 324.337 551.095 Q 323.694 551.054 322.646 550.983 Q 321.597 550.911 320.531 550.840 Q 319.466 550.768 318.679 550.712 Q 317.892 550.655 317.759 550.645 Q 317.625 550.635 316.420 550.550 Q 315.215 550.465 314.315 550.395 Q 313.415 550.324 312.570 550.254 Q 311.724 550.183 311.098 550.125 Q 310.471 550.066 309.868 550.010 Q 309.264 549.954 308.746 549.909 Q 308.228 549.864 307.501 549.793 Q 306.774 549.723 306.373 549.679 Q 305.972 549.635 305.574 549.590 Q 305.176 549.545 304.820 549.506 Q 304.465 549.468 303.785 549.396 Q 303.106 549.325 302.512 549.255 Q 301.917 549.185 301.466 549.128 Q 301.014 549.071 300.100 548.963 Q 299.185 548.856 298.534 548.776 Q 297.883 548.695 297.643 548.664 Q 297.403 548.632 296.505 548.515 Q 295.606 548.399 294.710 548.283 Q 293.814 548.168 293.098 548.070 Q 292.383 547.973 291.567 547.863 Q 290.751 547.752 290.100 547.664 Q 289.449 547.576 288.733 547.479 Q 288.016 547.383 286.181 547.124 Q 284.346 546.865 283.272 546.711 Q 282.199 546.556 281.513 546.455 Q 280.826 546.354 279.727 546.195 Q 278.629 546.036 277.409 545.853 Q 276.189 545.669 274.998 545.498 "></path>
    <path id="STROKE_1C7A40D2-BC08-4B02-9690-5A2FB5CC1F94" opacity="1.000" fill="none" stroke="#000000" stroke-width="0.500" stroke-opacity="1.000" stroke-linecap="round" stroke-linejoin="round" d="M 382.572 493.179 L 382.508 493.637 Q 382.485 493.721 382.347 494.740 Q 382.210 495.760 382.195 495.880 Q 382.180 496.001 382.037 497.007 Q 381.893 498.014 381.811 498.571 Q 381.728 499.128 381.574 500.231 Q 381.419 501.333 381.338 501.908 Q 381.257 502.483 381.179 503.013 Q 381.102 503.543 381.076 503.699 Q 381.050 503.855 380.974 504.382 Q 380.897 504.909 380.755 505.907 Q 380.612 506.904 380.598 507.015 Q 380.583 507.125 380.512 507.614 Q 380.441 508.104 380.349 508.672 "></path>
    <path id="STROKE_C769DA37-7A10-48C3-9966-43235939A49F" opacity="1.000" fill="none" stroke="#000000" stroke-width="0.500" stroke-opacity="1.000" stroke-linecap="round" stroke-linejoin="round" d="M 367.759 534.880 L 367.596 535.309 Q 367.591 535.354 367.435 535.789 Q 367.279 536.223 367.258 536.277 Q 367.237 536.331 367.064 536.806 Q 366.890 537.282 366.713 537.785 Q 366.536 538.288 366.179 539.262 Q 365.821 540.236 365.635 540.751 Q 365.449 541.267 365.284 541.735 Q 365.119 542.204 364.905 542.780 Q 364.691 543.356 364.522 543.823 Q 364.354 544.290 364.193 544.733 "></path>
    <path id="STROKE_EBC3F9B4-DDA2-4BDC-BE94-BA5758C2206A" opacity="1.000" fill="none" stroke="#000000" stroke-width="0.500" stroke-opacity="1.000" stroke-linecap="round" stroke-linejoin="round" d="M 367.560 495.303 L 367.508 495.763 Q 367.384 497.032 367.320 497.705 Q 367.256 498.378 367.158 499.446 Q 367.061 500.513 367.051 500.589 Q 367.041 500.664 366.936 501.709 Q 366.830 502.755 366.777 503.381 Q 366.724 504.007 366.670 504.575 Q 366.616 505.144 366.601 505.272 Q 366.587 505.399 366.535 505.965 Q 366.483 506.531 366.433 507.107 Q 366.383 507.683 366.335 508.235 Q 366.286 508.788 366.190 509.884 Q 366.094 510.980 366.033 511.674 "></path>
    <path id="STROKE_A609B5EB-22FD-449A-8851-72E12009A13C" opacity="1.000" fill="none" stroke="#000000" stroke-width="0.500" stroke-opacity="1.000" stroke-linecap="round" stroke-linejoin="round" d="M 359.150 537.236 Q 359.007 537.531 358.988 537.559 Q 358.970 537.587 358.967 537.623 Q 358.684 538.248 358.652 538.341 Q 358.619 538.434 358.282 539.198 Q 357.944 539.961 357.916 540.035 Q 357.888 540.109 357.701 540.538 Q 357.514 540.966 357.354 541.335 Q 357.194 541.704 357.021 542.123 Q 356.848 542.542 356.666 542.955 Q 356.484 543.367 356.464 543.403 Q 356.445 543.440 356.429 543.478 Q 356.412 543.516 356.047 544.350 Q 355.683 545.184 355.523 545.540 Q 355.364 545.897 355.170 546.292 "></path>
    <path id="STROKE_086A7B16-8BF9-45D8-8D7E-C56534FB5B56" opacity="1.000" fill="none" stroke="#000000" stroke-width="0.500" stroke-opacity="1.000" stroke-linecap="round" stroke-linejoin="round" d="M 352.580 499.381 L 352.431 498.886 "></path>
    <path id="STROKE_FC9AB861-2AFD-44B8-9D18-3DBC1A8CA1EB" opacity="1.000" fill="none" stroke="#000000" stroke-width="0.500" stroke-opacity="1.000" stroke-linecap="round" stroke-linejoin="round" d="M 352.529 498.371 Q 352.471 498.790 352.397 499.420 Q 352.323 500.051 352.255 500.616 Q 352.186 501.181 352.100 501.809 Q 352.015 502.438 351.942 503.010 Q 351.869 503.583 351.804 504.146 Q 351.738 504.708 351.607 505.726 Q 351.476 506.743 351.412 507.287 Q 351.348 507.831 351.283 508.344 Q 351.219 508.857 351.143 509.445 Q 351.068 510.033 351.009 510.563 Q 350.950 511.094 350.880 511.632 Q 350.810 512.170 350.802 512.252 Q 350.794 512.334 350.723 512.883 Q 350.651 513.433 350.591 513.926 Q 350.530 514.420 350.521 514.509 Q 350.511 514.599 350.341 516.154 "></path>
    <path id="STROKE_80947025-0A19-42F7-9F40-20EA9B480B0C" opacity="1.000" fill="none" stroke="#000000" stroke-width="0.500" stroke-opacity="1.000" stroke-linecap="round" stroke-linejoin="round" d="M 286.361 520.666 Q 286.717 520.717 286.778 520.721 Q 286.838 520.724 286.938 520.737 Q 287.037 520.749 287.451 520.808 Q 287.865 520.868 287.975 520.889 Q 288.084 520.909 288.680 520.988 Q 289.276 521.068 289.754 521.131 Q 290.232 521.194 290.257 521.198 Q 290.281 521.203 291.868 521.390 Q 293.455 521.577 294.489 521.710 Q 295.523 521.844 296.011 521.913 Q 296.500 521.983 296.716 522.008 Q 296.932 522.033 297.960 522.159 Q 298.988 522.286 299.451 522.338 Q 299.914 522.391 300.428 522.450 Q 300.941 522.509 301.029 522.521 Q 301.116 522.532 301.709 522.601 Q 302.301 522.669 302.945 522.739 Q 303.588 522.809 304.009 522.863 Q 304.431 522.917 305.374 523.037 L 306.052 523.121 "></path>
    <path id="STROKE_78A1292D-DC9E-48EA-BB07-2D6A56E9F1E1" opacity="1.000" fill="none" stroke="#000000" stroke-width="0.500" stroke-opacity="1.000" stroke-linecap="round" stroke-linejoin="round" d="M 314.759 523.103 Q 315.218 523.137 315.322 523.150 Q 315.426 523.162 315.735 523.192 Q 316.044 523.221 316.078 523.225 Q 316.112 523.229 316.730 523.282 Q 317.347 523.335 319.032 523.460 Q 320.717 523.585 322.275 523.699 Q 323.834 523.812 324.259 523.843 Q 324.684 523.874 325.433 523.926 Q 326.182 523.978 327.636 524.063 Q 329.090 524.149 330.311 524.214 Q 331.533 524.279 332.430 524.323 Q 333.328 524.368 333.760 524.390 Q 334.192 524.411 335.452 524.456 Q 336.711 524.502 337.951 524.550 L 339.361 524.630 "></path>
    <path id="STROKE_5E0D8857-50D2-40E3-BFEC-0799D6298311" opacity="1.000" fill="none" stroke="#000000" stroke-width="0.500" stroke-opacity="1.000" stroke-linecap="round" stroke-linejoin="round" d="M 347.904 524.829 Q 348.469 524.694 350.290 524.320 Q 352.111 523.945 353.159 523.723 Q 354.207 523.500 354.969 523.338 Q 355.731 523.176 356.347 523.045 Q 356.963 522.913 357.537 522.786 Q 358.111 522.659 359.081 522.444 Q 360.051 522.229 360.686 522.091 Q 361.321 521.953 362.100 521.771 Q 362.880 521.589 363.725 521.389 Q 364.570 521.190 364.764 521.144 Q 364.958 521.098 366.063 520.826 Q 367.167 520.555 367.738 520.415 Q 368.310 520.275 369.502 519.979 Q 370.693 519.683 371.244 519.546 Q 371.796 519.408 373.662 518.940 "></path>
    <path id="STROKE_3A489751-12CC-4BC4-9082-4D2D88FEA1B2" opacity="1.000" fill="none" stroke="#000000" stroke-width="0.500" stroke-opacity="1.000" stroke-linecap="round" stroke-linejoin="round" d="M 377.728 516.485 Q 378.149 516.371 378.240 516.347 Q 378.331 516.323 378.884 516.164 Q 379.437 516.006 379.857 515.885 Q 380.277 515.763 380.808 515.606 Q 381.338 515.449 381.463 515.411 Q 381.588 515.374 382.108 515.223 Q 382.629 515.072 383.622 514.782 Q 384.615 514.492 384.682 514.475 Q 384.749 514.457 385.310 514.297 Q 385.870 514.136 386.443 513.968 Q 387.017 513.800 387.999 513.512 Q 388.981 513.224 389.528 513.058 Q 390.075 512.893 390.674 512.715 Q 391.273 512.538 392.215 512.267 L 392.689 512.137 "></path>
    <path id="STROKE_05B8993C-BD1A-497C-93BB-7CE69A9498DB" opacity="1.000" fill="none" stroke="#000000" stroke-width="0.500" stroke-opacity="1.000" stroke-linecap="round" stroke-linejoin="round" d="M 375.470 518.609 Q 375.307 519.110 375.095 519.794 Q 375.085 519.850 374.805 520.725 Q 374.524 521.601 374.198 522.627 Q 373.872 523.654 373.611 524.459 Q 373.350 525.265 373.199 525.712 Q 373.048 526.158 373.024 526.227 Q 372.999 526.296 372.700 527.176 Q 372.401 528.056 372.350 528.205 Q 372.299 528.353 372.027 529.169 Q 371.756 529.984 371.435 530.922 Q 371.115 531.859 370.441 533.783 L 370.248 534.318 "></path>
    <path id="STROKE_8EBC0C40-C5A3-4A40-9E2B-C71FDF931E1A" opacity="1.000" fill="none" stroke="#000000" stroke-width="0.500" stroke-opacity="1.000" stroke-linecap="round" stroke-linejoin="round" d="M 363.513 517.513 Q 363.371 517.952 363.293 518.133 Q 363.270 518.218 362.965 519.220 Q 362.660 520.221 362.364 521.185 Q 362.068 522.149 361.864 522.816 Q 361.661 523.483 361.088 525.421 Q 360.515 527.359 360.476 527.498 Q 360.436 527.637 360.177 528.562 Q 359.918 529.487 359.775 530.015 Q 359.632 530.542 359.468 531.112 Q 359.304 531.681 359.015 532.755 Q 358.726 533.829 358.549 534.500 Q 358.373 535.170 358.231 535.705 Q 358.089 536.240 358.062 536.361 Q 358.035 536.482 357.689 537.801 "></path>
    <path id="STROKE_45D9E1E7-AE42-41AB-9C55-DEAAA9A28CDF" opacity="1.000" fill="none" stroke="#000000" stroke-width="0.500" stroke-opacity="1.000" stroke-linecap="round" stroke-linejoin="round" d="M 346.341 525.028 L 346.233 525.454 Q 346.222 525.497 346.033 526.189 Q 345.843 526.882 345.578 527.848 Q 345.313 528.814 344.976 530.045 Q 344.640 531.276 344.355 532.321 Q 344.071 533.365 343.935 533.890 Q 343.798 534.415 343.664 534.922 Q 343.530 535.430 343.485 535.581 Q 343.441 535.732 343.306 536.223 Q 343.170 536.714 342.906 537.670 Q 342.642 538.626 342.487 539.198 Q 342.332 539.769 342.133 540.479 Q 341.933 541.189 341.384 543.175 L 341.216 543.787 "></path>
    <path id="STROKE_9F492B85-23C6-4D85-AD71-E3F90517E4C1" opacity="1.000" fill="none" stroke="#000000" stroke-width="0.500" stroke-opacity="1.000" stroke-linecap="round" stroke-linejoin="round" d="M 334.865 499.118 Q 334.803 499.537 334.679 500.534 Q 334.686 500.685 334.565 501.927 Q 334.445 503.169 334.316 504.271 Q 334.188 505.373 334.070 506.362 Q 333.952 507.352 333.872 507.970 Q 333.792 508.589 333.654 509.608 Q 333.517 510.627 333.486 510.812 Q 333.455 510.996 333.371 511.552 Q 333.287 512.108 333.148 513.027 Q 333.010 513.946 332.921 514.508 Q 332.833 515.069 332.732 515.721 Q 332.631 516.372 332.536 516.891 Q 332.441 517.411 332.326 518.026 "></path>
    <path id="STROKE_0DD31E90-909C-4BB6-9468-C4365320727C" opacity="1.000" fill="none" stroke="#000000" stroke-width="0.500" stroke-opacity="1.000" stroke-linecap="round" stroke-linejoin="round" d="M 333.771 524.281 Q 333.641 524.775 333.613 524.894 Q 333.585 525.013 333.468 525.532 Q 333.351 526.051 333.227 526.588 Q 333.104 527.125 332.828 528.263 Q 332.552 529.401 332.415 529.972 Q 332.279 530.543 332.115 531.254 Q 331.951 531.966 331.703 533.043 Q 331.455 534.120 331.042 535.888 Q 330.630 537.656 330.354 538.766 Q 330.079 539.876 330.020 540.081 Q 329.961 540.286 329.713 541.328 Q 329.465 542.371 329.025 544.135 "></path>
    <path id="STROKE_04E07B5D-1DBD-4312-B8DE-772F0FE5E6B9" opacity="1.000" fill="none" stroke="#000000" stroke-width="0.500" stroke-opacity="1.000" stroke-linecap="round" stroke-linejoin="round" d="M 319.056 497.840 Q 319.039 498.187 319.016 498.346 L 319.001 498.581 Q 318.954 499.318 318.843 501.111 Q 318.732 502.903 318.677 503.964 Q 318.622 505.025 318.554 506.028 Q 318.485 507.030 318.406 508.189 Q 318.326 509.348 318.290 509.896 Q 318.255 510.444 318.221 511.026 Q 318.187 511.608 318.167 512.182 Q 318.146 512.756 318.129 513.192 Q 318.112 513.627 318.106 513.764 Q 318.101 513.900 318.076 514.331 Q 318.052 514.763 318.011 515.295 Q 317.971 515.828 317.943 516.323 Q 317.916 516.818 317.877 517.546 "></path>
    <path id="STROKE_EE580464-89C6-4D5E-B7FA-1E04E7192E7D" opacity="1.000" fill="none" stroke="#000000" stroke-width="0.500" stroke-opacity="1.000" stroke-linecap="round" stroke-linejoin="round" d="M 303.166 499.068 Q 303.170 499.480 303.195 499.644 Q 303.219 499.808 303.261 500.927 Q 303.303 502.046 303.377 503.737 Q 303.452 505.428 303.467 505.989 Q 303.483 506.549 303.503 507.657 Q 303.522 508.764 303.534 509.398 Q 303.547 510.031 303.582 511.090 Q 303.617 512.149 303.641 512.754 Q 303.666 513.358 303.728 516.054 "></path>
    <path id="STROKE_E98A9030-92BB-4CDF-BDA2-D1A06E55BD4B" opacity="1.000" fill="none" stroke="#000000" stroke-width="0.500" stroke-opacity="1.000" stroke-linecap="round" stroke-linejoin="round" d="M 303.595 521.627 Q 303.609 522.101 303.609 522.221 Q 303.609 522.341 303.632 522.734 Q 303.654 523.127 303.654 523.162 Q 303.653 523.198 303.701 523.895 Q 303.749 524.591 303.843 526.328 Q 303.937 528.065 303.999 529.170 Q 304.060 530.275 304.102 531.008 Q 304.144 531.741 304.177 532.314 Q 304.210 532.887 304.281 534.021 Q 304.352 535.154 304.415 536.135 Q 304.477 537.115 304.598 538.967 Q 304.719 540.818 304.797 542.013 Q 304.876 543.209 304.908 543.772 "></path>
    <path id="STROKE_C8537338-EB95-4592-AC4A-34EB89D52984" opacity="1.000" fill="none" stroke="#000000" stroke-width="0.500" stroke-opacity="1.000" stroke-linecap="round" stroke-linejoin="round" d="M 315.705 522.374 Q 315.673 522.771 315.597 524.086 Q 315.520 525.401 315.441 526.611 Q 315.362 527.822 315.292 528.796 Q 315.222 529.770 315.173 530.519 Q 315.125 531.267 315.090 531.838 Q 315.055 532.410 314.971 533.657 Q 314.888 534.904 314.756 536.625 Q 314.624 538.346 314.400 541.535 L 314.345 542.214 "></path>
    <path id="STROKE_E7CCB12E-44FE-4E6E-B6CB-91FF54502683" opacity="1.000" fill="none" stroke="#000000" stroke-width="0.500" stroke-opacity="1.000" stroke-linecap="round" stroke-linejoin="round" d="M 285.650 493.692 Q 285.648 494.139 285.634 497.011 Q 285.619 499.883 285.601 502.159 Q 285.583 504.435 285.582 505.630 Q 285.580 506.826 285.586 507.486 Q 285.591 508.146 285.612 509.211 Q 285.633 510.276 285.648 510.842 Q 285.662 511.409 285.697 513.350 "></path>
    <path id="STROKE_4CE9F140-1A25-4D1E-9B28-9B8D1A60EF1E" opacity="1.000" fill="none" stroke="#000000" stroke-width="0.500" stroke-opacity="1.000" stroke-linecap="round" stroke-linejoin="round" d="M 271.732 491.304 Q 271.767 491.795 271.806 492.269 Q 271.846 492.742 271.862 492.888 Q 271.879 493.034 271.934 493.510 Q 271.989 493.986 272.007 494.142 Q 272.025 494.298 272.125 495.179 Q 272.225 496.061 272.307 496.831 Q 272.390 497.600 272.458 498.185 Q 272.527 498.769 272.637 499.743 Q 272.747 500.718 272.803 501.242 Q 272.858 501.767 273.138 504.079 Q 273.417 506.391 273.546 507.382 Q 273.675 508.373 273.686 508.464 Q 273.698 508.555 273.853 510.130 "></path>
    <path id="STROKE_FBB43C96-2036-4A25-B9D1-9A0E363EA3E7" opacity="1.000" fill="none" stroke="#000000" stroke-width="0.500" stroke-opacity="1.000" stroke-linecap="round" stroke-linejoin="round" d="M 277.373 519.819 Q 277.514 520.192 277.908 521.389 Q 278.302 522.586 278.443 522.986 Q 278.584 523.386 278.973 524.476 Q 279.361 525.566 279.624 526.327 Q 279.888 527.089 280.411 528.532 Q 280.935 529.975 281.159 530.579 Q 281.383 531.183 281.612 531.781 Q 281.841 532.380 282.182 533.266 Q 282.523 534.152 282.769 534.753 Q 283.015 535.353 283.449 536.500 Q 283.882 537.646 284.388 538.962 "></path>
    <path id="STROKE_71191E8D-E346-4342-BCBA-0380CE8E3FD3" opacity="1.000" fill="none" stroke="#000000" stroke-width="0.500" stroke-opacity="1.000" stroke-linecap="round" stroke-linejoin="round" d="M 287.705 519.520 Q 287.795 520.108 288.144 522.007 Q 288.493 523.906 288.712 525.089 Q 288.931 526.272 289.036 526.866 Q 289.142 527.460 289.546 529.795 Q 289.951 532.130 290.264 533.873 Q 290.577 535.615 290.785 536.752 Q 290.992 537.889 291.287 539.641 "></path>
    <circle id="ERASER_612DADB0-A777-4993-BCD8-0783DDCD8179" opacity="0.960" fill="#ffffff" stroke="#ffffff" stroke-width="0.1" stroke-opacity="1.000" fill-opacity="1.000" cx="439.714" cy="503.532" r="1.349"></circle>
  </g>
</svg>